<?xml version="1.0" encoding="UTF-8" standalone="no"?>
<svg
   width="555.69324"
   height="159.84137"
   viewBox="0 0 147.02717 42.291363"
   version="1.1"
   id="svg8"
   xmlns="http://www.w3.org/2000/svg"
   xmlns:svg="http://www.w3.org/2000/svg"
   xmlns:rdf="http://www.w3.org/1999/02/22-rdf-syntax-ns#"
   xmlns:cc="http://creativecommons.org/ns#"
   xmlns:dc="http://purl.org/dc/elements/1.1/">
  <defs
     id="defs2" />
  <metadata
     id="metadata5">
    <rdf:RDF>
      <cc:Work
         rdf:about="">
        <dc:format>image/svg+xml</dc:format>
        <dc:type
           rdf:resource="http://purl.org/dc/dcmitype/StillImage" />
      </cc:Work>
    </rdf:RDF>
  </metadata>
  <g
     id="layer1"
     transform="translate(-30.815421,-55.408019)">
    <g
       aria-label="solutions "
       transform="scale(1.0072221,0.99282969)"
       id="text26-7"
       style="font-style:normal;font-variant:normal;font-weight:bold;font-stretch:normal;font-size:17.63889999999999958px;line-height:1;font-family:Copperplate;-inkscape-font-specification:'Copperplate, Bold';font-variant-ligatures:normal;font-variant-caps:normal;font-variant-numeric:normal;font-variant-east-asian:normal;letter-spacing:3.17499999999999982px;stroke-width:0.266494;fill:#93a7ac;fill-opacity:1">
      <path
         d="m 79.994638,90.564522 q -0.884699,0 -1.504815,-0.620116 -0.611848,-0.611848 -0.611848,-1.496547 h 1.058332 q 0,0.438216 0.305924,0.752408 0.314192,0.305924 0.752407,0.305924 h 4.233325 q 0.429947,0 0.744139,-0.305924 0.314192,-0.314192 0.314192,-0.752408 0,-0.429947 -0.314192,-0.744139 -0.314192,-0.314192 -0.744139,-0.314192 h -4.233325 q -0.884699,0 -1.504815,-0.620116 -0.611848,-0.611848 -0.611848,-1.496546 0,-0.876431 0.620116,-1.496547 0.611848,-0.620116 1.496547,-0.620116 h 4.233325 q 0.876431,0 1.496547,0.628384 0.620115,0.611848 0.620115,1.488279 h -1.058331 q 0,-0.429948 -0.314192,-0.74414 -0.314192,-0.314192 -0.744139,-0.314192 h -4.233325 q -0.438215,0 -0.752407,0.314192 -0.305924,0.314192 -0.305924,0.74414 0,0.438215 0.305924,0.752407 0.314192,0.305924 0.752407,0.305924 h 4.233325 q 0.876431,0 1.496547,0.628384 0.620115,0.611848 0.620115,1.488278 0,0.884699 -0.628384,1.504815 -0.611847,0.611848 -1.488278,0.611848 z"
         style="font-style:normal;font-variant:normal;font-weight:normal;font-stretch:normal;font-size:16.93329999999999913px;font-family:'Theorem NBP';-inkscape-font-specification:'Theorem NBP, Normal';font-variant-ligatures:normal;font-variant-caps:normal;font-variant-numeric:normal;font-variant-east-asian:normal;letter-spacing:1.32292000000000010px;fill:#93a7ac;fill-opacity:1"
         id="path141" />
      <path
         d="m 94.44748,89.506191 q 0.429947,0 0.744139,-0.305924 0.314192,-0.314192 0.314192,-0.752408 v -3.174993 q 0,-0.429948 -0.314192,-0.74414 -0.314192,-0.314192 -0.744139,-0.314192 h -3.174994 q -0.438215,0 -0.752407,0.314192 -0.305924,0.314192 -0.305924,0.74414 v 3.174993 q 0,0.438216 0.305924,0.752408 0.314192,0.305924 0.752407,0.305924 z m -3.174994,1.058331 q -0.884699,0 -1.504815,-0.620116 -0.611847,-0.611848 -0.611847,-1.496547 v -3.174993 q 0,-0.876431 0.620116,-1.496547 0.611847,-0.620116 1.496546,-0.620116 h 3.174994 q 0.876431,0 1.496546,0.628384 0.620116,0.611848 0.620116,1.488279 v 3.174993 q 0,0.884699 -0.628384,1.504815 -0.611847,0.611848 -1.488278,0.611848 z"
         style="font-style:normal;font-variant:normal;font-weight:normal;font-stretch:normal;font-size:16.93329999999999913px;font-family:'Theorem NBP';-inkscape-font-specification:'Theorem NBP, Normal';font-variant-ligatures:normal;font-variant-caps:normal;font-variant-numeric:normal;font-variant-east-asian:normal;letter-spacing:1.32292000000000010px;fill:#93a7ac;fill-opacity:1"
         id="path143" />
      <path
         d="m 100.43367,90.564522 v -7.408319 h 1.05833 v 6.349988 h 6.34999 v 1.058331 z"
         style="font-style:normal;font-variant:normal;font-weight:normal;font-stretch:normal;font-size:16.93329999999999913px;font-family:'Theorem NBP';-inkscape-font-specification:'Theorem NBP, Normal';font-variant-ligatures:normal;font-variant-caps:normal;font-variant-numeric:normal;font-variant-east-asian:normal;letter-spacing:1.32292000000000010px;fill:#93a7ac;fill-opacity:1"
         id="path145" />
      <path
         d="m 113.82818,90.564522 q -0.8847,0 -1.49654,-0.611848 -0.62012,-0.620116 -0.62012,-1.504815 v -5.291656 h 1.05833 v 5.291656 q 0,0.438216 0.30593,0.752408 0.31419,0.305924 0.7524,0.305924 h 3.175 q 0.42994,0 0.74414,-0.305924 0.31419,-0.314192 0.31419,-0.752408 v -5.291656 h 1.05833 v 5.291656 q 0,0.884699 -0.62012,1.496547 -0.62011,0.620116 -1.49654,0.620116 z"
         style="font-style:normal;font-variant:normal;font-weight:normal;font-stretch:normal;font-size:16.93329999999999913px;font-family:'Theorem NBP';-inkscape-font-specification:'Theorem NBP, Normal';font-variant-ligatures:normal;font-variant-caps:normal;font-variant-numeric:normal;font-variant-east-asian:normal;letter-spacing:1.32292000000000010px;fill:#93a7ac;fill-opacity:1"
         id="path147" />
      <path
         d="m 126.16436,90.564522 v -6.349988 h -3.17499 v -1.058331 h 7.40832 v 1.058331 h -3.175 v 6.349988 z"
         style="font-style:normal;font-variant:normal;font-weight:normal;font-stretch:normal;font-size:16.93329999999999913px;font-family:'Theorem NBP';-inkscape-font-specification:'Theorem NBP, Normal';font-variant-ligatures:normal;font-variant-caps:normal;font-variant-numeric:normal;font-variant-east-asian:normal;letter-spacing:1.32292000000000010px;fill:#93a7ac;fill-opacity:1"
         id="path149" />
      <path
         d="m 134.26722,90.564522 v -1.058331 h 3.17499 v -5.291657 h -3.17499 v -1.058331 h 7.40831 v 1.058331 h -3.17499 v 5.291657 h 3.17499 v 1.058331 z"
         style="font-style:normal;font-variant:normal;font-weight:normal;font-stretch:normal;font-size:16.93329999999999913px;font-family:'Theorem NBP';-inkscape-font-specification:'Theorem NBP, Normal';font-variant-ligatures:normal;font-variant-caps:normal;font-variant-numeric:normal;font-variant-east-asian:normal;letter-spacing:1.32292000000000010px;fill:#93a7ac;fill-opacity:1"
         id="path151" />
      <path
         d="m 150.83672,89.506191 q 0.42995,0 0.74414,-0.305924 0.31419,-0.314192 0.31419,-0.752408 v -3.174993 q 0,-0.429948 -0.31419,-0.74414 -0.31419,-0.314192 -0.74414,-0.314192 h -3.17499 q -0.43822,0 -0.75241,0.314192 -0.30592,0.314192 -0.30592,0.74414 v 3.174993 q 0,0.438216 0.30592,0.752408 0.31419,0.305924 0.75241,0.305924 z m -3.17499,1.058331 q -0.8847,0 -1.50482,-0.620116 -0.61184,-0.611848 -0.61184,-1.496547 v -3.174993 q 0,-0.876431 0.62011,-1.496547 0.61185,-0.620116 1.49655,-0.620116 h 3.17499 q 0.87643,0 1.49655,0.628384 0.62012,0.611848 0.62012,1.488279 v 3.174993 q 0,0.884699 -0.62839,1.504815 -0.61185,0.611848 -1.48828,0.611848 z"
         style="font-style:normal;font-variant:normal;font-weight:normal;font-stretch:normal;font-size:16.93329999999999913px;font-family:'Theorem NBP';-inkscape-font-specification:'Theorem NBP, Normal';font-variant-ligatures:normal;font-variant-caps:normal;font-variant-numeric:normal;font-variant-east-asian:normal;letter-spacing:1.32292000000000010px;fill:#93a7ac;fill-opacity:1"
         id="path153" />
      <path
         d="m 156.82291,90.564522 v -5.291656 q 0,-0.876431 0.62012,-1.496547 0.61185,-0.620116 1.49655,-0.620116 h 3.17499 q 0.87643,0 1.49655,0.628384 0.62011,0.611848 0.62011,1.488279 v 5.291656 h -1.05833 v -5.291656 q 0,-0.429948 -0.31419,-0.74414 -0.31419,-0.314192 -0.74414,-0.314192 h -3.17499 q -0.43822,0 -0.75241,0.314192 -0.30592,0.314192 -0.30592,0.74414 v 5.291656 z"
         style="font-style:normal;font-variant:normal;font-weight:normal;font-stretch:normal;font-size:16.93329999999999913px;font-family:'Theorem NBP';-inkscape-font-specification:'Theorem NBP, Normal';font-variant-ligatures:normal;font-variant-caps:normal;font-variant-numeric:normal;font-variant-east-asian:normal;letter-spacing:1.32292000000000010px;fill:#93a7ac;fill-opacity:1"
         id="path155" />
      <path
         d="m 170.21742,90.564522 q -0.88469,0 -1.50481,-0.620116 -0.61185,-0.611848 -0.61185,-1.496547 h 1.05833 q 0,0.438216 0.30593,0.752408 0.31419,0.305924 0.7524,0.305924 h 4.23333 q 0.42995,0 0.74414,-0.305924 0.31419,-0.314192 0.31419,-0.752408 0,-0.429947 -0.31419,-0.744139 -0.31419,-0.314192 -0.74414,-0.314192 h -4.23333 q -0.88469,0 -1.50481,-0.620116 -0.61185,-0.611848 -0.61185,-1.496546 0,-0.876431 0.62012,-1.496547 0.61185,-0.620116 1.49654,-0.620116 h 4.23333 q 0.87643,0 1.49655,0.628384 0.62011,0.611848 0.62011,1.488279 h -1.05833 q 0,-0.429948 -0.31419,-0.74414 -0.31419,-0.314192 -0.74414,-0.314192 h -4.23333 q -0.43821,0 -0.7524,0.314192 -0.30593,0.314192 -0.30593,0.74414 0,0.438215 0.30593,0.752407 0.31419,0.305924 0.7524,0.305924 h 4.23333 q 0.87643,0 1.49655,0.628384 0.62011,0.611848 0.62011,1.488278 0,0.884699 -0.62838,1.504815 -0.61185,0.611848 -1.48828,0.611848 z"
         style="font-style:normal;font-variant:normal;font-weight:normal;font-stretch:normal;font-size:16.93329999999999913px;font-family:'Theorem NBP';-inkscape-font-specification:'Theorem NBP, Normal';font-variant-ligatures:normal;font-variant-caps:normal;font-variant-numeric:normal;font-variant-east-asian:normal;letter-spacing:1.32292000000000010px;fill:#93a7ac;fill-opacity:1"
         id="path157" />
    </g>
    <g
       aria-label="the"
       transform="scale(1.0072221,0.99282969)"
       id="text26"
       style="font-style:normal;font-variant:normal;font-weight:bold;font-stretch:normal;font-size:16.93329999999999913px;line-height:1;font-family:Copperplate;-inkscape-font-specification:'Copperplate, Bold';font-variant-ligatures:normal;font-variant-caps:normal;font-variant-numeric:normal;font-variant-east-asian:normal;letter-spacing:1.32292000000000010px;stroke-width:0.266494;fill:#93a7ac;fill-opacity:1">
      <path
         d="M 81.052969,68.093079 V 61.743091 H 77.877975 V 60.68476 h 7.408319 v 1.058331 H 82.1113 v 6.349988 z"
         style="font-style:normal;font-variant:normal;font-weight:normal;font-stretch:normal;font-size:16.93329999999999913px;font-family:'Theorem NBP';-inkscape-font-specification:'Theorem NBP, Normal';font-variant-ligatures:normal;font-variant-caps:normal;font-variant-numeric:normal;font-variant-east-asian:normal;fill:#93a7ac;stroke-width:0.266494;fill-opacity:1"
         id="path134" />
      <path
         d="M 89.155824,68.093079 V 60.68476 h 1.058331 v 3.174994 h 5.291656 V 60.68476 h 1.058331 v 7.408319 h -1.058331 v -3.174994 h -5.291656 v 3.174994 z"
         style="font-style:normal;font-variant:normal;font-weight:normal;font-stretch:normal;font-size:16.93329999999999913px;font-family:'Theorem NBP';-inkscape-font-specification:'Theorem NBP, Normal';font-variant-ligatures:normal;font-variant-caps:normal;font-variant-numeric:normal;font-variant-east-asian:normal;fill:#93a7ac;stroke-width:0.266494;fill-opacity:1"
         id="path136" />
      <path
         d="M 100.43367,68.093079 V 60.68476 h 7.40832 v 1.058331 H 101.492 v 2.116663 h 5.29166 v 1.058331 H 101.492 v 2.116662 h 6.34999 v 1.058332 z"
         style="font-style:normal;font-variant:normal;font-weight:normal;font-stretch:normal;font-size:16.93329999999999913px;font-family:'Theorem NBP';-inkscape-font-specification:'Theorem NBP, Normal';font-variant-ligatures:normal;font-variant-caps:normal;font-variant-numeric:normal;font-variant-east-asian:normal;fill:#93a7ac;stroke-width:0.266494;fill-opacity:1"
         id="path138" />
    </g>
    <g
       aria-label="onald"
       id="text18"
       style="font-size:21.1667px;line-height:1.25;font-family:'Songti SC';-inkscape-font-specification:'Songti SC';fill:#214478;stroke-width:0.264583">
      <path
         d="m 85.002097,70.283171 q 1.016002,0 1.502836,0.635001 0.486834,0.635001 0.444501,1.651002 0.613834,0.105834 1.248835,0.08467 0.635001,-0.04233 1.227669,-0.169333 0.613834,-0.148167 1.143001,-0.381001 0.529168,-0.232834 0.952502,-0.529167 l 0.677334,0.381 q -0.486834,0.381001 -1.100668,0.698501 -0.592668,0.296334 -1.291169,0.508001 -0.698501,0.1905 -1.460502,0.275167 -0.740835,0.0635 -1.502836,-0.04233 -0.1905,0.846668 -0.698501,1.799169 -0.529167,0.994835 -1.270002,1.86267 -0.740834,0.846668 -1.587503,1.481669 -0.825501,0.635001 -1.714502,0.994835 -0.889002,0.359834 -1.714503,0.359834 -0.740834,0 -1.227669,-0.402168 -0.465667,-0.423334 -0.635001,-1.100668 -0.169333,-0.698501 0,-1.608669 0.148167,-0.910168 0.677335,-1.905003 0.529167,-0.994835 1.270002,-1.841503 0.762001,-0.846668 1.608669,-1.460502 0.846668,-0.613835 1.735669,-0.952502 0.889002,-0.338667 1.714503,-0.338667 z m 0.656168,4.021673 q 0.254,-0.571501 0.381001,-1.079502 -0.508001,-0.148167 -0.762002,-0.423334 -0.232833,-0.275167 -0.275167,-0.550334 -0.02117,-0.296334 0.105834,-0.571501 0.148167,-0.275167 0.402167,-0.423334 -0.105833,-0.04233 -0.211667,-0.0635 -0.105833,-0.02117 -0.211667,-0.02117 -0.444501,0 -0.952501,0.232834 -0.486835,0.211667 -0.973669,0.613834 -0.465667,0.402168 -0.889001,0.952502 -0.402167,0.550334 -0.698501,1.206502 -0.296334,0.656167 -0.402168,1.248835 -0.08467,0.592668 0,1.058335 0.105834,0.444501 0.359834,0.719668 0.275167,0.254 0.698501,0.254 0.444501,0 0.931335,-0.232833 0.486834,-0.254001 0.931335,-0.677335 0.465668,-0.444501 0.867835,-1.016001 0.402167,-0.571501 0.698501,-1.227669 z"
         style="font-style:normal;font-variant:normal;font-weight:normal;font-stretch:normal;font-size:21.1667px;font-family:'Ederson PERSONAL USE ONLY';-inkscape-font-specification:'Ederson PERSONAL USE ONLY, Normal';font-variant-ligatures:normal;font-variant-caps:normal;font-variant-numeric:normal;font-variant-east-asian:normal;fill:#214478;stroke-width:0.264583"
         id="path160" />
      <path
         d="m 100.01392,75.003345 q -0.804336,0.846668 -1.672171,1.714503 -0.846668,0.867834 -1.735669,1.587502 -0.889002,0.698501 -1.79917,1.143002 -0.910168,0.444501 -1.841503,0.444501 -0.613834,0 -0.931335,-0.359834 -0.296333,-0.359834 -0.338667,-0.910168 -0.04233,-0.571501 0.148167,-1.227669 0.211667,-0.656168 0.613834,-1.270002 l 2.159004,-3.217338 q 0.359834,-0.529168 0.296334,-0.867835 -0.04233,-0.359834 -0.381001,-0.359834 -0.444501,0 -1.058335,0.423334 -0.613834,0.402167 -1.143002,0.952502 l -4.635507,6.836844 h -2.921005 l 6.519344,-9.609682 h 0.465667 q 0.444501,0 0.719668,0.127 0.275167,0.105834 0.423334,0.296334 0.148167,0.1905 0.169334,0.444501 0.02117,0.232833 -0.02117,0.508 0.762001,-0.677334 1.502836,-1.016001 0.762001,-0.359834 1.587502,-0.359834 0.592668,0 0.973668,0.254 0.402168,0.254001 0.571501,0.677335 0.169334,0.402167 0.105834,0.910168 -0.0635,0.508001 -0.402167,1.016001 l -1.693336,2.497671 q -0.359834,0.529168 -0.296334,0.994835 0.0635,0.465667 0.529167,0.465667 0.359834,0 0.762001,-0.1905 0.402168,-0.1905 0.804335,-0.486834 0.423334,-0.296334 0.825501,-0.656168 0.402168,-0.381 0.740835,-0.762001 z"
         style="font-style:normal;font-variant:normal;font-weight:normal;font-stretch:normal;font-size:21.1667px;font-family:'Ederson PERSONAL USE ONLY';-inkscape-font-specification:'Ederson PERSONAL USE ONLY, Normal';font-variant-ligatures:normal;font-variant-caps:normal;font-variant-numeric:normal;font-variant-east-asian:normal;fill:#214478;stroke-width:0.264583"
         id="path162" />
      <path
         d="m 106.48299,70.283171 q 0.86783,0.08467 1.22767,0.783168 l 0.52917,-0.783168 h 2.87867 l -3.61951,5.355175 q -0.35983,0.529168 -0.29633,0.994835 0.0635,0.465667 0.52917,0.465667 0.35983,0 0.762,-0.1905 0.40216,-0.1905 0.80433,-0.486834 0.42334,-0.296334 0.8255,-0.656168 0.40217,-0.381 0.74084,-0.762001 h 0.9525 q -0.80434,0.846668 -1.67217,1.714503 -0.84667,0.867834 -1.73567,1.587502 -0.889,0.698501 -1.82034,1.143002 -0.91016,0.444501 -1.82033,0.444501 -0.6985,0 -1.016,-0.423334 -0.29634,-0.444501 -0.27517,-1.079502 -0.97367,0.740835 -1.9685,1.185335 -0.97367,0.423334 -1.883841,0.317501 -0.719668,-0.08467 -1.100668,-0.571501 -0.381001,-0.486834 -0.423334,-1.206502 -0.0635,-0.740835 0.254,-1.651003 0.296334,-0.931334 0.931335,-1.862669 0.635001,-0.931335 1.545168,-1.756836 0.91017,-0.825502 1.905,-1.418169 0.99484,-0.592668 1.96851,-0.910168 0.99483,-0.317501 1.778,-0.232834 z m -2.68817,6.709844 q 0.10583,-0.232834 0.21167,-0.444501 0.10583,-0.211667 0.254,-0.423334 l 2.87867,-4.23334 q -0.0635,-0.656168 -0.67734,-0.719668 -0.4445,-0.04233 -1.05833,0.169334 -0.59267,0.211667 -1.22767,0.613834 -0.61383,0.402167 -1.18534,0.952502 -0.55033,0.550334 -0.91016,1.143001 -0.381,0.613835 -0.52917,1.206502 -0.14817,0.592668 -0.10583,1.058335 0.0423,0.444501 0.254,0.762002 0.23283,0.296333 0.635,0.338667 0.35983,0.04233 0.71966,-0.0635 0.35984,-0.127 0.74084,-0.359834 z"
         style="font-style:normal;font-variant:normal;font-weight:normal;font-stretch:normal;font-size:21.1667px;font-family:'Ederson PERSONAL USE ONLY';-inkscape-font-specification:'Ederson PERSONAL USE ONLY, Normal';font-variant-ligatures:normal;font-variant-caps:normal;font-variant-numeric:normal;font-variant-east-asian:normal;fill:#214478;stroke-width:0.264583"
         id="path164" />
      <path
         d="m 113.56524,77.098848 q 0.33867,0 0.74083,-0.1905 0.42334,-0.1905 0.8255,-0.486834 0.42334,-0.296334 0.82551,-0.656168 0.40216,-0.381 0.762,-0.762001 h 0.9525 q -0.80434,0.846668 -1.67217,1.714503 -0.86784,0.867834 -1.75684,1.587502 -0.889,0.698501 -1.82033,1.143002 -0.91017,0.444501 -1.84151,0.444501 -0.61383,0 -0.91016,-0.359834 -0.3175,-0.359834 -0.33867,-0.910168 -0.0423,-0.571501 0.16933,-1.227669 0.21167,-0.656168 0.61384,-1.270002 l 7.30251,-10.795017 h 2.87867 l -6.98501,10.308183 q -0.16934,0.254 -0.23284,0.529168 -0.0635,0.254 -0.0423,0.465667 0.0423,0.1905 0.16933,0.338667 0.127,0.127 0.35984,0.127 z"
         style="font-style:normal;font-variant:normal;font-weight:normal;font-stretch:normal;font-size:21.1667px;font-family:'Ederson PERSONAL USE ONLY';-inkscape-font-specification:'Ederson PERSONAL USE ONLY, Normal';font-variant-ligatures:normal;font-variant-caps:normal;font-variant-numeric:normal;font-variant-east-asian:normal;fill:#214478;stroke-width:0.264583"
         id="path166" />
      <path
         d="m 124.15686,70.283171 q 0.8255,0.08467 1.18533,0.719668 l 3.83117,-5.672676 h 2.87867 l -6.98501,10.308183 q -0.33866,0.529168 -0.27516,0.994835 0.0847,0.465667 0.52916,0.465667 0.33867,0 0.74084,-0.1905 0.42333,-0.1905 0.8255,-0.486834 0.42333,-0.296334 0.8255,-0.656168 0.40217,-0.381 0.762,-0.762001 h 0.9525 q -0.80433,0.846668 -1.67217,1.714503 -0.86783,0.867834 -1.75683,1.587502 -0.889,0.698501 -1.82034,1.143002 -0.91017,0.444501 -1.8415,0.444501 -0.67734,0 -0.97367,-0.423334 -0.29633,-0.423334 -0.29633,-1.037169 -0.9525,0.740835 -1.92617,1.164169 -0.9525,0.402167 -1.84151,0.296334 -0.71966,-0.08467 -1.10066,-0.571501 -0.381,-0.486834 -0.42334,-1.227669 -0.0635,-0.740834 0.23284,-1.651002 0.29633,-0.910168 0.93133,-1.841503 0.635,-0.931335 1.54517,-1.756836 0.91017,-0.825502 1.905,-1.418169 1.016,-0.613835 1.98967,-0.910168 0.99484,-0.317501 1.77801,-0.232834 z m -2.79401,6.773344 q 0.1905,-0.508001 0.508,-0.931335 l 2.94217,-4.36034 q -0.10583,-0.529168 -0.65616,-0.592668 -0.44451,-0.04233 -1.05834,0.169334 -0.61383,0.211667 -1.24884,0.613834 -0.61383,0.402167 -1.18533,0.952502 -0.55033,0.550334 -0.93134,1.143001 -0.35983,0.613835 -0.508,1.206502 -0.14816,0.592668 -0.10583,1.058335 0.0423,0.444501 0.27517,0.762002 0.23283,0.296333 0.635,0.338667 0.65617,0.0635 1.3335,-0.359834 z"
         style="font-style:normal;font-variant:normal;font-weight:normal;font-stretch:normal;font-size:21.1667px;font-family:'Ederson PERSONAL USE ONLY';-inkscape-font-specification:'Ederson PERSONAL USE ONLY, Normal';font-variant-ligatures:normal;font-variant-caps:normal;font-variant-numeric:normal;font-variant-east-asian:normal;fill:#214478;stroke-width:0.264583"
         id="path168" />
    </g>
    <g
       aria-label="R"
       id="text22"
       style="font-style:normal;font-variant:normal;font-weight:normal;font-stretch:normal;font-size:35.2778px;line-height:1.25;font-family:'Ederson PERSONAL USE ONLY';-inkscape-font-specification:'Ederson PERSONAL USE ONLY, Normal';font-variant-ligatures:normal;font-variant-caps:normal;font-variant-numeric:normal;font-variant-east-asian:normal;stroke-width:0.264583">
      <path
         d="m 65.224846,60.793763 q -0.670279,0.105834 -1.234724,0.599723 -0.529167,0.458611 -0.987778,1.093612 -0.458611,0.635 -0.811389,1.340556 -0.352778,0.670279 -0.635001,1.199446 l -1.481668,2.963335 q -0.599722,1.234723 -1.128889,2.39889 -0.529167,1.164168 -1.12889,2.328335 0.493889,0.246945 0.952501,0.529167 0.458611,0.282223 0.917223,0.635001 0.670278,-0.282223 1.234723,-0.564445 0.564445,-0.3175 1.058334,-0.564445 2.010834,-1.023056 3.84528,-2.222501 1.834446,-1.234723 3.421947,-2.751669 0.705556,-0.670278 1.411112,-1.481668 0.705556,-0.846667 1.199445,-1.76389 0.529167,-0.9525 0.705556,-1.975557 0.211667,-1.023056 -0.105833,-2.08139 -0.282223,-0.987778 -0.987779,-1.658057 -0.670278,-0.670278 -1.587501,-1.093611 -0.881945,-0.423334 -1.869723,-0.635001 -0.987779,-0.211667 -1.905001,-0.282222 -2.25778,-0.141111 -4.550837,0.246944 -2.257779,0.352778 -4.445003,1.164168 -2.187224,0.776111 -4.233336,1.940279 -2.010835,1.12889 -3.739447,2.469446 -1.76389,1.340557 -3.316113,2.998613 -1.516946,1.658057 -2.398891,3.739447 -0.176389,0.352778 -0.352778,0.881945 -0.176389,0.529167 -0.282222,1.093612 -0.105834,0.529167 -0.07056,1.093612 0.03528,0.529167 0.3175,0.881945 0.317501,0.423334 0.776112,0.458611 0.458611,0.03528 0.917223,-0.141111 0.458611,-0.176389 0.846667,-0.493889 0.423334,-0.3175 0.635001,-0.599723 0.211666,-0.246944 0.423333,-0.493889 0.246945,-0.282222 0.423334,-0.352778 0.211667,-0.07056 0.3175,0.105833 0.141111,0.176389 0.105833,0.740834 0,0.952501 -0.599722,1.975557 -0.564445,1.023056 -1.411112,1.728612 -0.81139,0.599723 -1.834446,0.881945 -0.987778,0.246945 -2.010835,0.105834 -0.987778,-0.141111 -1.905001,-0.670278 -0.881945,-0.529167 -1.44639,-1.481668 -0.776111,-1.305279 -0.881945,-2.57528 -0.105833,-1.27 0.246945,-2.469446 0.352778,-1.199445 1.093612,-2.293057 0.776111,-1.093612 1.693334,-2.08139 0.952501,-0.987778 1.975557,-1.799168 1.058334,-0.846667 2.010835,-1.552223 1.799168,-1.305279 3.810002,-2.363613 2.046113,-1.058334 4.198059,-1.869723 2.187223,-0.81139 4.409725,-1.375835 2.222501,-0.564444 4.409725,-0.881945 1.340556,-0.211666 2.786946,-0.3175 1.44639,-0.141111 2.928058,-0.07055 1.481667,0.07055 2.89278,0.352778 1.411112,0.282222 2.645835,0.881945 1.234723,0.599722 2.222501,1.587501 1.023056,0.987778 1.658057,2.434168 0.740834,1.622779 0.740834,3.21028 0.03528,1.552223 -0.49389,2.963335 -0.493889,1.411112 -1.446389,2.681113 -0.952501,1.234723 -2.187224,2.293057 -1.234723,1.023056 -2.645835,1.799168 -1.375835,0.776112 -2.786947,1.270001 -2.645835,0.881945 -5.362225,1.270001 0.282222,0.388056 0.564444,0.740834 0.317501,0.352778 0.599723,0.740833 1.270001,1.834446 2.151946,3.880559 0.917223,2.046112 1.940279,4.021669 0.599723,1.12889 1.340556,2.363613 0.776112,1.234723 1.693335,2.328335 0.917223,1.128889 2.046112,1.940279 1.12889,0.846667 2.469447,1.128889 1.27,0.317501 2.751668,0.07056 1.516946,-0.211667 2.610557,-0.917223 0.705556,-0.493889 1.058334,-0.599722 0.388056,-0.07056 0.423334,0.141111 0.07056,0.211667 -0.176389,0.670278 -0.246945,0.458611 -0.776112,1.058334 -0.9525,1.058334 -2.046112,1.905001 -1.093612,0.846667 -2.328335,1.375835 -1.234723,0.529167 -2.610557,0.635 -1.340557,0.141111 -2.751669,-0.211667 -2.540002,-0.599722 -4.339169,-2.328335 -1.799168,-1.728612 -2.928058,-3.951114 -0.599723,-1.128889 -0.952501,-2.328334 -0.352778,-1.164168 -0.599722,-2.363613 -0.211667,-1.199445 -0.352778,-2.398891 -0.141111,-1.234723 -0.352778,-2.504724 -0.211667,-1.340556 -0.705556,-2.681112 -0.493889,-1.340557 -1.305279,-2.469447 -0.564445,0.07056 -1.12889,0.07056 -0.529167,0 -1.058334,0 l -1.587501,0.105833 q -1.340556,2.504724 -3.033891,5.115282 -1.658056,2.575279 -3.739447,4.691947 -2.08139,2.116668 -4.586114,3.492503 -2.504724,1.411112 -5.503337,1.516945 -1.375834,0.07056 -2.928057,-0.246945 -1.516946,-0.3175 -2.751669,-1.058334 -1.199445,-0.740833 -1.940279,-1.975556 -0.705556,-1.199446 -0.493889,-2.89278 0.141111,-0.917223 0.705556,-1.940279 0.599723,-1.058334 1.516945,-1.552224 0.705556,-0.388055 1.12889,-0.352778 0.423334,0 0.493889,0.282223 0.03528,0.3175 -0.3175,0.493889 -0.811389,0.352778 -1.305279,1.058334 -0.493889,0.705556 -0.564444,1.481668 -0.07056,0.811389 0.3175,1.516945 0.388056,0.705556 1.340556,1.058334 0.740834,0.282223 1.693335,0.246945 0.9525,0 1.905001,-0.176389 0.987778,-0.176389 1.834446,-0.493889 0.846667,-0.282223 1.375834,-0.564445 1.44639,-0.776112 2.681113,-1.834446 1.270001,-1.023056 2.39889,-2.222501 1.12889,-1.199446 2.116668,-2.504724 1.023057,-1.305279 1.940279,-2.645835 l 1.199446,-1.76389 Q 50.760943,74.940175 50.47872,74.37573 50.231776,73.811285 50.514,73.105729 q 0.282223,-0.811389 1.199446,-1.093612 0.917222,-0.3175 1.834445,-0.3175 1.12889,-1.834446 2.25778,-3.633614 1.128889,-1.799167 2.363612,-3.563057 0.493889,-0.670279 1.058334,-1.375835 0.564445,-0.740834 1.164168,-1.411112 0.635,-0.705556 1.305278,-1.270001 0.705556,-0.564444 1.516946,-0.917222 0.246944,-0.105834 0.599722,-0.211667 0.388056,-0.141112 0.776112,-0.176389 0.388056,-0.07056 0.740834,0 0.352778,0.07056 0.529167,0.388056 0.282222,0.388055 0.07056,0.811389 -0.211667,0.388056 -0.705556,0.458611 z M 51.819281,73.387939 q -0.141111,0.282222 -0.07056,0.458611 0.105834,0.176389 0.282223,0.3175 l 0.776111,-1.199445 q -0.3175,0.03528 -0.599722,0.141111 -0.246945,0.105833 -0.388056,0.282223 z m 5.362226,0.635 q -0.07056,0.141111 -0.141111,0.282222 -0.07056,0.105834 -0.141112,0.246945 l -0.141111,0.282222 q 0.282223,-0.07055 0.564445,-0.105833 0.282222,-0.07056 0.564445,-0.176389 z"
         style="font-style:normal;font-variant:normal;font-weight:normal;font-stretch:normal;font-size:35.2778px;font-family:'Ederson PERSONAL USE ONLY';-inkscape-font-specification:'Ederson PERSONAL USE ONLY, Normal';font-variant-ligatures:normal;font-variant-caps:normal;font-variant-numeric:normal;font-variant-east-asian:normal;fill:#214478;stroke-width:0.264583"
         id="path171" />
    </g>
  </g>
</svg>
