<?xml version="1.0" encoding="UTF-8" standalone="no"?>
<svg
   version="1.1"
   viewBox="0 0 1812.193 758.24719"
   xmlns="http://www.w3.org/2000/svg"
   xmlns:svg="http://www.w3.org/2000/svg">
  <path d="m 636.97146,268.1164 -14.2784,-0.1308 -8,-0.9014 -8,-0.9014 -8.38484,-1.9811 -8.38485,-1.9811 -6.11515,-2.9221 -6.11516,-2.9221 -3.39777,-3.3146 -3.39778,-3.3146 -1.35222,-3.2179 -1.35223,-3.2179 v -4.2615 -4.2614 l 3.12779,-4.5207 3.12779,-4.5206 7.89829,-6.2488 7.8983,-6.2488 6.01365,-3.0357 6.01366,-3.0356 0.96026,0.5934 0.96026,0.5935 v -1.118 -1.1181 l 0.91938,0.5682 0.91938,0.5682 1.35443,-1.2591 1.35443,-1.2592 1.47619,-0.325 1.47619,-0.325 0.31461,-0.8689 0.31461,-0.8688 1.18539,0.4381 1.18539,0.438 13.5,-5.5979 13.5,-5.5978 6.665,-2.3919 6.6651,-2.3919 11.3992,-2.9391 11.39916,-2.9392 13.9357,-2.1655 13.9358,-2.1656 1.8581,-0.6876 1.8581,-0.6876 -14.3581,-6.7597 -14.3581,-6.7596 -11.99996,-6.5935 -12,-6.5935 -9,-5.0175 -9,-5.0175 -6.5,-4.5347 -6.5,-4.5347 -6.75271,-6.4735 -6.75272,-6.4735 -2.9685,-4.626 -2.9685,-4.626 -1.56568,-4.4376 -1.56567,-4.4376 -0.0383,-7.3399 -0.0383,-7.3398 1.82521,-5.0949 1.82521,-5.0948 4.31075,-4.7995 4.31076,-4.7995 5.68924,-3.4309 5.68925,-3.4309 11.25936,-5.1215 11.2594,-5.1216 15.7406,-5.8555 15.74056,-5.8554 15,-4.588 15,-4.5879 12.5,-3.4758 12.5,-3.4758 12,-2.9396 12,-2.9395 15,-3.1212 15,-3.1212 18.5,-2.4765 18.5,-2.4765 12.5,-1.1502 12.5,-1.1502 11,0.5646 11,0.5646 5.5,1.6473 5.5,1.6472 4.7989,3.0473 4.7988,3.0474 1.9512,3.8245 1.9511,3.8246 v 3.3435 3.3435 l -2.4806,4.9779 -2.4806,4.9779 -8.7694,8.7064 -8.7694,8.7064 -11.5,8.4947 -11.5,8.4948 -12.9961,7.7673 -12.9961,7.7673 -17.843,8.7859 -17.843,8.786 -2.7155,2.0076 -2.7155,2.0077 -1.6573,-0.636 -1.6574,-0.636 -0.5607,-1.7667 -0.5607,-1.7668 0.5749,-1.4982 0.5749,-1.4983 4.1978,-1.2568 4.1977,-1.2569 7,-3.5244 7,-3.5244 7.8382,-3.306 7.8383,-3.3059 10.1617,-5.7357 10.1618,-5.7357 12.5,-8.448 12.5,-8.4481 5,-4.0486 5,-4.0485 5.2973,-5.0731 5.2973,-5.0731 2.8757,-4.5 2.8758,-4.5 0.6423,-3.5052 0.6423,-3.5051 -2.3509,-3.4949 -2.3509,-3.4948 -5.5114,-2.1955 -5.5114,-2.1955 -6.4531,-1.0469 -6.453,-1.047 -10,-0.01 -10,-0.01 -21.8277,2.4691 -21.8277,2.4691 -11.6723,2.1029 -11.6723,2.1029 -9,1.9799 -9,1.9798 -19.9901,5.0007 -19.99,5.0007 -13.01,3.9012 -13.0099,3.9013 -11,3.6252 -10.99996,3.6252 -9.5,3.4495 -9.5,3.4494 -2.7521,1.5293 -2.752,1.5293 -0.9289,-0.5741 -0.9288,-0.5741 -0.6435,1.0412 -0.6435,1.0413 -6.7475,3.3979 -6.74747,3.398 -5.50004,3.3271 -5.50005,3.3272 -3.27004,3.7367 -3.27003,3.7368 -2.38692,6.7632 -2.38693,6.7633 -0.0211,3.0685 -0.0211,3.0685 1.48919,4.9315 1.4892,4.9315 4.9274,6.5 4.9274,6.5 4.78503,3.9683 4.78502,3.9683 14.04834,8.7987 14.0484,8.7987 31.21766,15.483 31.2177,15.483 h 1.5323 1.5323 v 0.919 0.919 l 8.75,4.7415 8.75,4.7416 6.2445,4.4233 6.2445,4.4233 4.4275,4.3029 4.4274,4.303 2.2656,4.3632 2.2657,4.3632 -0.078,7.1869 -0.078,7.187 -2.3603,4.313 -2.3604,4.3131 -6.9993,4.6112 -6.9994,4.6112 -9,4.0771 -9,4.0771 -11.8509,3.5746 -11.8509,3.5747 -13.3058,2.4575 -13.3058,2.4575 -14.56486,1.5295 -14.5648,1.5296 -14.2785,-0.1308 z m 11.8254,-5.2707 1.2083,-0.4637 12.3439,-1.102 12.34396,-1.102 7,-1.4613 7,-1.4614 9.4916,-1.5457 9.4916,-1.5457 0.9584,-0.9584 0.9584,-0.9583 h 1.8976 1.8976 l 11.6524,-4.1185 11.6524,-4.1184 6.9067,-3.473 6.9067,-3.4731 5.1954,-5.1954 5.1954,-5.1954 1.2678,-3.8414 1.2677,-3.8413 -1.2214,-4.0768 -1.2214,-4.0768 -6.6485,-6.6112 -6.6484,-6.6112 -7.5,-4.828 -7.5,-4.8281 -9.2982,-4.9706 -9.2981,-4.9706 -10.7019,1.6941 -10.7018,1.694 -14.0412,3.3983 -14.04126,3.3983 -16.4587,5.5695 -16.4588,5.5695 -20.1253,9.9422 -20.12529,9.9422 -5.87471,4.3319 -5.8747,4.332 -2.87788,4.1671 -2.87787,4.1672 -0.1036,3.9509 -0.1036,3.9509 2.48148,2.6611 2.48147,2.661 5.5,2.7709 5.5,2.7709 5.5,1.5562 5.5,1.5561 6.5,1.2161 6.5,1.2162 1,0.6543 1,0.6543 15.5,0.2937 15.5,0.2937 0.4478,0.4397 0.4477,0.4397 z m -23.6038,-200.5985 2,-1.0704 v -0.5 -0.5 l -2,1.0704 -2,1.0703 v 0.5 0.5 z m 7.5,-4.0636 h 1 l 1.9411,-1.4682 1.9412,-1.4682 h -1 -1 l -1.9412,1.4682 -1.9411,1.4682 z m 8,-3.9364 h 0.5 v -0.5 -0.5 h -0.5 -0.5 v 0.5 0.5 z m 2,-1 h 0.5 v -0.5 -0.5 h -0.5 -0.5 v 0.5 0.5 z m 2,-1 h 0.5 v -0.5 -0.5 h -0.5 -0.5 v 0.5 0.5 z m 2,-1 h 0.5 v -0.5 -0.5 h -0.5 -0.5 v 0.5 0.5 z m 2.5,-1 h 1.3333 l -0.6666,-0.6667 -0.6667,-0.6667 -0.6667,0.6667 -0.6666,0.6667 z m 2.5,-1 h 0.5 v -0.5 -0.5 h -0.5 -0.5 v 0.5 0.5 z m 2.5,-1 h 1.3333 l -0.6666,-0.6667 -0.6667,-0.6667 -0.6667,0.6667 -0.6666,0.6667 z m 2.5,-1 h 0.5 v -0.5 -0.5 h -0.5 -0.5 v 0.5 0.5 z m 3,-1 h 0.5 v -0.5 -0.5 h -0.5 -0.5 v 0.5 0.5 z m 11,-4 h 0.5 v -0.5 -0.5 h -0.5 -0.5 v 0.5 0.5 z m 2.5,-1 h 1.33326 l -0.66656,-0.6667 -0.6667,-0.6667 -0.6667,0.6667 -0.6666,0.6667 z m 2.99996,-1 h 1.3333 l -0.6666,-0.6667 -0.6667,-0.6667 -0.6667,0.6667 -0.6666,0.6667 z m 6,-2 h 1.3333 l -0.6666,-0.6667 -0.6667,-0.6667 -0.6667,0.6667 -0.6666,0.6667 z m 2.5,-1 h 0.5 v -0.5 -0.5 h -0.5 -0.5 v 0.5 0.5 z m 9,-3 h 0.5 v -0.5 -0.5 h -0.5 -0.5 v 0.5 0.5 z m 9,-3 h 0.5 v -0.5 -0.5 h -0.5 -0.5 v 0.5 0.5 z m 3.5,-1 h 1.3333 l -0.6666,-0.6667 -0.6667,-0.6667 -0.6667,0.6667 -0.6666,0.6667 z m 3.4167,-1.079 1.9166,0.079 -0.6041,-0.6042 -0.6042,-0.6041 -1.3125,0.5252 -1.3125,0.5252 1.9167,0.079 z m 3.5833,-0.921 h 1.3333 l -0.6666,-0.6667 -0.6667,-0.6667 -0.6667,0.6667 -0.6666,0.6667 z m 3.5,-1 h 0.5 v -0.5 -0.5 h -0.5 -0.5 v 0.5 0.5 z m 3.5,-1 h 1.3333 l -0.6666,-0.6667 -0.6667,-0.6667 -0.6667,0.6667 -0.6666,0.6667 z m 3.5,-1 h 0.5 v -0.5 -0.5 h -0.5 -0.5 v 0.5 0.5 z m 12,-3 h 0.5 v -0.5 -0.5 h -0.5 -0.5 v 0.5 0.5 z m -119.99996,239 h -0.5 v -0.5 -0.5 h 0.5 0.5 v 0.5 0.5 z m 378.82136,3.9655 -4.1785,0.034 -1.5715,-1.5714 -1.5714,-1.5714 v -2.9782 -2.9783 l 1.652,-3.2003 1.652,-3.2004 6.598,-6.8682 6.59798,-6.8682 8,-6.2613 8,-6.2612 12.0538,-7.8705 12.0537,-7.8706 14.1963,-7.3687 14.1962,-7.3687 0.1107,-2.1313 0.1107,-2.1313 -0.2119,-2.4762 -0.2119,-2.4762 -1.9806,-4.2134 -1.9805,-4.2134 -4.722,-4.3104 -4.722,-4.3104 -6.7239,-5.25 -6.7238,-5.25 h -0.8348 -0.8347 l -7.8877,7.2586 -7.8876,7.2586 -8,5.5788 -8,5.5788 -10.9413,6.8166 -10.94118,6.8167 -9.3895,4.4478 -9.3895,4.4479 -4.8121,0.1481 -4.8122,0.1481 -2.1071,-1.9049 -2.1071,-1.905 v -3.7623 -3.7622 l 5.5,-6.71 5.5,-6.7099 v -0.8728 -0.8729 h -1.664 -1.664 l -14.086,8.3799 -14.086,8.3799 -2.1843,1.1201 -2.1842,1.1201 h -2.6773 -2.6774 l -9.1384,6.3264 -9.1384,6.3263 -13.5,8.4091 -13.5,8.4091 -8.3337,4.2034 -8.3337,4.2035 -6.8653,1.5615 -6.8654,1.5615 -4.9154,-1.0542 -4.9154,-1.0541 -2.8855,-3.0146 -2.8856,-3.0145 0.046,-6.6817 0.046,-6.6817 2.1528,-4.1099 2.1529,-4.11 7.4068,-9.89 7.4068,-9.8901 2.7447,-2.5 2.7447,-2.5 4.1017,-4.8802 4.1018,-4.8802 -3.2766,1.6944 -3.2766,1.6944 -15.1756,9.2632 -15.1755,9.2632 -12.5,6.6049 -12.5,6.6049 -7.6763,2.5677 -7.6763,2.5677 h -3.6506 -3.6506 l -2.9231,-2.923 -2.9231,-2.9231 v -2.7612 -2.7612 l 2.1932,-4.5305 2.1931,-4.5304 10.5569,-10.7277 10.5568,-10.7276 4.5,-2.0357 4.5,-2.0356 2.1392,-0.022 2.1392,-0.022 2.2699,1.838 2.2699,1.8381 -0.6709,1.0855 -0.6708,1.0854 -4.9421,1.6415 -4.9421,1.6415 -8.2961,7.2629 -8.2962,7.2629 -3.5945,4.4221 -3.5946,4.4221 -1.2324,2.3281 -1.2325,2.3281 0.5456,1.4219 0.5456,1.4219 h 3.3563 3.3562 l 7.384,-2.5115 7.384,-2.5114 11.0411,-5.3115 11.0412,-5.3114 11,-6.3313 11,-6.3312 13,-8.0312 13,-8.0312 5.6945,-4.5647 5.6944,-4.5646 14.8056,-12.8026 14.8055,-12.8025 5.0269,-4.3133 5.0269,-4.3134 4.4731,-2.2547 4.4731,-2.2547 4,-3.2318 4,-3.2318 3.1053,-1.5985 3.1052,-1.5984 6.2131,-4.1268 6.213,-4.1268 5.1817,-2.4126 5.1817,-2.4126 3.691,-0.01 3.691,-0.01 0.6235,1.009 0.6236,1.0089 -0.5937,1.8707 -0.5938,1.8707 -6.4923,4.1986 -6.4923,4.1987 -11.1211,7.9609 -11.1211,7.9609 -7.1074,4.1274 -7.1074,4.1274 -5,4.2134 -5,4.2133 -6.5,3.9629 -6.5,3.9629 -9.5,6.3788 -9.5,6.3787 -12.6493,12.7589 -12.6493,12.7588 -9.2078,11.7642 -9.2079,11.7642 -2.4128,4.7616 -2.4129,4.7615 -0.5937,4.3318 -0.5937,4.3317 2.8637,2.2716 2.8637,2.2715 6.2917,-0.5758 6.2917,-0.5757 9.2083,-3.6637 9.2083,-3.6638 12.6821,-6.2776 12.6822,-6.2777 6.8178,-4.4404 6.8179,-4.4405 1.9976,-2.2543 1.9977,-2.2543 2.7523,-1.4233 2.7524,-1.4233 v -2.6279 -2.6279 l 3.9649,-3.6604 3.965,-3.6604 7.8114,-5.6243 7.8114,-5.6243 5.9148,-3.5617 5.9148,-3.5617 h 2.2618 2.2618 l 2.547,1.1605 2.5471,1.1605 v 0.8395 0.8395 h 1.5087 1.5086 l 4.2047,-3.0458 4.2046,-3.0459 2.5367,0.2959 2.5367,0.2958 0.3107,2.1823 0.3107,2.1823 -1.4776,2.8177 -1.4776,2.8177 -4.6216,4.5 -4.6216,4.5 -5.9615,7.3093 -5.9615,7.3094 v 1.5519 1.552 l 3.75,-0.6506 3.75,-0.6506 10.2048,-4.8984 10.2048,-4.8983 10.79518,-6.7476 10.7952,-6.7475 5.5,-3.9709 5.5,-3.9708 6.6623,-5.3857 6.6624,-5.3857 1.568,-2.393 1.5679,-2.393 -1.9583,-4.3153 -1.9584,-4.3152 -0.022,-3.7342 -0.022,-3.7342 2.918,-3.2658 2.9179,-3.2658 h 4.6687 4.6686 l 2.4134,2.8058 2.4134,2.8057 -0.01,2.1943 -0.01,2.1942 -2.9881,5 -2.9882,5 -1.5104,2.0783 -1.5104,2.0783 5.7389,3.9217 5.7389,3.9217 6.519,5.5819 6.5191,5.582 2.6428,4.918 2.6428,4.9181 0.7015,3.3176 0.7015,3.3175 1.3335,0.5118 1.3336,0.5117 8.8221,-3.5013 8.8222,-3.5013 7,-2 7,-2 3.75,-0.5152 3.75,-0.5151 -0.038,0.6872 -0.038,0.6871 -11.7122,3.8968 -11.7121,3.8969 -8.3328,3.4878 -8.3328,3.4879 -1.0664,2.6153 -1.0663,2.6153 -2.9093,6.5 -2.9093,6.5 -10.701,10.5 -10.701,10.5 -11.4906,8.6239 -11.4905,8.6239 -7.47,4.8169 -7.47,4.8169 -7.03,2.7748 -7.02998,2.7748 -4.1786,0.034 z m 0.9286,-5.9663 2.25,-8e-4 6.49998,-3.087 6.5,-3.0871 4.7446,-1.814 4.7447,-1.8141 9.7553,-6.9853 9.7554,-6.9853 12.678,-13.0619 12.678,-13.0619 2.6935,-4.5961 2.6935,-4.5961 -0.5621,-0.5621 -0.5622,-0.5622 -10.8093,5.746 -10.8094,5.746 -7.5,5.0198 -7.5,5.0198 -6.5,5.058 -6.5,5.058 -8.7511,7.3524 -8.7512,7.3524 -4.49878,5.5228 -4.4989,5.5228 v 1.4083 1.4084 z m -38.4456,-81.9572 3.6956,-1.943 2.7581,-1.8748 2.758,-1.8748 -0.6351,-0.6351 -0.635,-0.635 -3.431,1.4335 -3.431,1.4336 -2.9538,2.1032 -2.9537,2.1033 0.5662,0.9161 0.5661,0.9161 z m 86.46468,-30.0489 1.2309,-0.01 2.1919,-3.2431 2.1919,-3.2432 1.0199,-2.7146 1.0199,-2.7146 -1.0186,-0.6295 -1.0187,-0.6296 -2.4718,0.6204 -2.4719,0.6204 -1.6062,3.3682 -1.6062,3.3683 0.654,2.6055 0.6539,2.6055 1.231,-0.01 z m -125.76908,-9.412 3,-1.8843 17.5,-12.2346 17.5,-12.2346 2.5,-2.2023 2.5,-2.2023 -4,2.2847 -4,2.2847 -8.5,5.4326 -8.5,5.4325 -9.0793,6.8132 -9.0794,6.8131 -1.4206,1.7908 -1.4207,1.7908 z m 114.99998,93.4189 h -0.5 v -0.5 -0.5 h 0.5 0.5 v 0.5 0.5 z m -124.99998,-31 h -0.5 v -0.5 -0.5 h 0.5 0.5 v 0.5 0.5 z m -92.6588,-47.3142 -2.6588,1.2455 -2.4683,-1.9416 -2.4682,-1.9415 -0.5197,-1.9873 -0.5197,-1.9874 1.1467,-0.9005 1.1468,-0.9005 8.5698,-0.6283 8.5699,-0.6282 1.9154,1.4006 1.9153,1.4005 -5.9852,2.8116 -5.9852,2.8116 z m 66.6588,-2.6858 h -0.5 v -0.5 -0.5 h 0.5 0.5 v 0.5 0.5 z m 3,-3 h -0.5 v -0.5 -0.5 h 0.5 0.5 v 0.5 0.5 z" />
  <path d="m 924.98502,333.6342 -7.292,0.4781 -5.1128,-0.8066 -5.1128,-0.8067 -4.9922,-1.6581 -4.9922,-1.6581 -4.395,-2.8223 -4.395,-2.8222 -4.1356,-4.2274 -4.1356,-4.2273 -2.5815,-4.7431 -2.5815,-4.7431 -1.5329,-5.8852 -1.5329,-5.8852 v -5.7407 -5.7407 l 1.1341,-5.2992 1.1341,-5.2992 2.5765,-5.5 2.5765,-5.5 5.5394,-5.5641 5.5394,-5.564 5.5,-2.6555 5.5,-2.6555 5.9601,-1.5305 5.9601,-1.5304 7.5399,0.015 7.5399,0.015 6.2692,1.478 6.2691,1.4781 5.1769,2.6234 5.1769,2.6233 5.665,5.4035 5.6649,5.4034 3.0962,6.7304 3.0962,6.7303 1.0913,7.0664 1.0914,7.0663 -1.0995,6.9337 -1.0994,6.9336 -2.4762,5.4301 -2.4763,5.4302 -3.6532,4.4582 -3.6531,4.4582 -5.9976,3.8764 -5.9975,3.8764 -6.2802,1.9398 -6.2801,1.9397 -7.292,0.4781 z m 520.35858,285.5322 -16.6506,-0.081 -10.841,-1.9084 -10.841,-1.9084 -10.3192,-3.453 -10.3191,-3.453 -7.3398,-3.6664 -7.3399,-3.6664 -8.5,-5.6054 -8.5,-5.6053 -10.0066,-10.0361 -10.0065,-10.0361 -5.3039,-8 -5.3038,-8 -3.8159,-8 -3.8158,-8 -2.0914,-6 -2.0913,-6 -1.9947,-8.5 -1.9947,-8.5 -1.1408,-11.5 -1.1409,-11.5 0.6491,-9 0.6491,-9 1.5339,-9.5 1.5338,-9.5 3.428,-10.3562 3.428,-10.3563 4.6785,-9.0583 4.6784,-9.0584 5.9747,-8.0854 5.9747,-8.0854 6.3913,-6.2929 6.3914,-6.2929 8.1459,-6.0399 8.146,-6.0398 11.0517,-5.3787 11.0518,-5.3786 7.7601,-2.5002 7.7601,-2.5002 7.5727,-1.5642 7.5727,-1.5642 10.6672,-1.0935 10.6672,-1.0935 12.2933,0.6375 12.2934,0.6374 10.4148,2.0099 10.4149,2.0099 7.7918,2.5355 7.7918,2.5356 9.0222,4.265 9.0221,4.2651 6.9779,4.6025 6.9778,4.6024 6.717,5.8189 6.7169,5.8189 5.0984,6 5.0983,6 4.3199,6.5 4.3199,6.5 3.9936,8 3.9936,8 3.0215,9.5 3.0215,9.5 1.7198,10 1.7198,10 -0.09,15.5 -0.09,15.5 -0.7929,5 -0.7928,5 -94.7377,0.2551 -94.7377,0.2551 v 0.6019 0.602 l 3.0493,6.3892 3.0493,6.3892 5.4371,5.8728 5.4372,5.8727 6.7635,3.5212 6.7636,3.5212 7.1974,1.6098 7.1974,1.6098 h 8.3926 8.3927 l 7.5535,-1.9318 7.5535,-1.9319 5.9574,-3.0073 5.9575,-3.0073 3.0433,-2.5609 3.0434,-2.5608 h 45.0911 45.091 l -1.9583,4.9684 -1.9584,4.9684 -4.158,8.2816 -4.158,8.2816 -3.0506,4.5 -3.0506,4.5 -5.8359,7.1085 -5.8359,7.1084 -7.7325,6.5125 -7.7326,6.5125 -6.5,4.2062 -6.5,4.2063 -8.1841,3.9198 -8.184,3.9198 -8.9602,3.0019 -8.9602,3.0019 -11.7051,2.0011 -11.7051,2.0011 -16.6507,-0.081 z m 1.336,-160.9192 h 53.5134 v -1.1038 -1.1038 l -3.588,-6.8279 -3.5879,-6.8279 -5.8745,-5.6033 -5.8744,-5.6032 -6.3752,-2.9833 -6.3751,-2.9833 -6.9125,-1.4644 -6.9124,-1.4644 h -7.5 -7.5 l -6.9124,1.4644 -6.9125,1.4644 -6.0875,2.8546 -6.0876,2.8545 -5.6536,5.176 -5.6536,5.1759 -3.0481,4.75 -3.0481,4.75 -1.5617,3.7377 -1.5617,3.7378 z m -936.82279,156 h -46.66375 v -171.5 -171.5 h 37.75316 37.75316 l 46.9152,68.25 46.91518,68.25 3.4404,4.7821 3.4405,4.7822 1.1412,-0.9764 1.1412,-0.9765 48.99996,-72.024 49,-72.0241 37.75,-0.032 37.75,-0.032 v 171.5 171.5 h -46.6086 -46.6085 l 0.3585,-88.4501 0.3586,-88.45 -0.7495,0.7495 -0.7495,0.7496 -29.7505,43.4505 -29.75046,43.4505 -22.5,0.2526 -22.5,0.2527 -12,-17.4922 -12,-17.4922 -18.5,-26.9872 -18.5,-26.9871 -0.88084,-0.023 -0.88084,-0.023 0.63574,3.75 0.63575,3.75 0.65884,84.75 0.65884,84.75 h -46.66374 z m 411.83621,0 h -43.5 v -130 -130 h 43.5 43.5 v 130 130 z m 148.49998,0 h -44 v -171.5 -171.5 h 44 44 v 171.5 171.5 z m 148.75,-0.2395 -43.75,0.2605 V 442.7577 271.2472 h 44.0029 44.0028 l -0.2528,171.25 -0.2529,171.25 z m 452.8717,0.2395 h -43.2884 l -0.652,-0.6521 -0.6521,-0.652 -0.022,-129.348 -0.022,-129.3479 h 40.3699 40.3699 l 1.2819,12.5729 1.282,12.573 5.1053,-4.9043 5.1053,-4.9043 4.1284,-3.1564 4.1285,-3.1564 8.3715,-3.9864 8.3716,-3.9864 6,-1.5602 6,-1.5602 10.25,-1.1682 10.25,-1.1681 10.3948,1.1616 10.3948,1.1616 4.6052,1.1596 4.6052,1.1596 v 40.237 40.2371 l -7.75,-1.475 -7.75,-1.475 -15.5,-0.026 -15.5,-0.026 -8.1615,2.4696 -8.1616,2.4696 -5.6982,3.4257 -5.6983,3.4257 -4.4819,4.9601 -4.4818,4.9601 -2.8283,5.6028 -2.8283,5.6029 -1.7757,5.937 -1.7756,5.9371 -0.3494,68.75 -0.3493,68.75 h -43.2884 z" />
  <path d="m 1299.8212,742.74722 h -14.669 l 1.7704,-0.6665 1.7704,-0.6664 1.765,-0.5579 1.765,-0.5579 0.985,-2.5908 0.985,-2.5907 v -23.8698 -23.86982 l -0.9605,-2.5263 -0.9605,-2.5262 -3.2895,-0.9049 -3.2895,-0.9048 2.5,-0.5708 2.5,-0.5708 5.75,-0.5719 5.75,-0.572 v 1.9599 1.9598 l 4.25,-1.9291 4.25,-1.9292 5.6849,-0.022 5.6849,-0.022 2.8151,1.0666 2.8151,1.0666 2.3819,2.1834 2.3819,2.1834 1.8462,4 1.8461,4.00002 0.022,5.5927 0.022,5.5927 -2.3276,4.4073 -2.3277,4.4073 -4.5332,2.8079 -4.5332,2.8079 -5.5358,0.5713 -5.5357,0.5714 -4.6034,-1.5686 -4.6034,-1.5685 v 11.3803 11.3803 l 1.1226,0.6937 1.1225,0.6938 5.0261,1.1153 5.0261,1.1152 h -14.6691 z m 14.9869,-26.5037 h 4.1152 l 2.756,-2.1679 2.7561,-2.1679 1.3788,-3.3 1.3788,-3.3 v -6.0642 -6.0642 l -1.364,-3.26462 -1.3641,-3.2646 -3.3405,-2.8109 -3.3405,-2.8108 -4.87,0.4679 -4.8699,0.4679 -2.6755,1.9951 -2.6755,1.9952 -0.2827,11.75272 -0.2826,11.7526 1.2826,1.5539 1.2827,1.5539 3,1.8342 3,1.8342 h 4.1151 z m -768.11504,2.9801 -3,-0.022 -3.11706,-1.5378 -3.11706,-1.5377 -1.13294,-2.4866 -1.13294,-2.4865 v -2.8181 -2.8181 l 2.09239,-2.66 2.09239,-2.6601 3.64924,-1.5247 3.64925,-1.5248 7.86723,-0.6066 7.86723,-0.6067 -0.43344,-5.99212 -0.43343,-5.9922 -2.28621,-1.8512 -2.28622,-1.8513 h -3.46966 -3.46966 l -1.57125,4 -1.57124,4 -1.59831,-0.014 -1.59831,-0.014 -2.25,-0.603 -2.25,-0.603 v -0.9833 -0.9834 l 3.50251,-3.5025 3.50252,-3.5025 8.57952,0.3525 8.57953,0.3525 2.91796,3.2658 2.91796,3.2658 v 12.04992 12.05 l 1.03518,1.9342 1.03519,1.9343 h 2.84237 2.84237 l 1.24489,-1.5 1.24489,-1.5 h 0.87755 0.87756 v 0.9542 0.9542 l -4.6438,3.5458 -4.6438,3.5458 h -1.84043 -1.84042 l -3.2082,-2.8665 -3.20821,-2.8666 -6.05757,2.8658 -6.05757,2.8657 -3,-0.022 z m 6.0616,-5.2305 4.40954,-0.497 2.56475,-1.6805 2.56474,-1.6804 -0.30031,-5.194 -0.30032,-5.194 -6.27847,-0.2985 -6.27846,-0.2984 -2.97154,2.9715 -2.97153,2.9716 v 2.1223 2.1224 l 2.57603,2.576 2.57603,2.5761 z m 98.9384,5.1427 -5,-0.067 -4.8347,-1.3286 -4.8346,-1.3286 -0.3833,-0.3832 -0.3832,-0.3833 -0.6533,-5.9487 -0.6532,-5.9488 4.8711,4.8852 4.8712,4.8852 3.2179,1.3648 3.2179,1.3648 h 3.5321 3.5321 l 2,-2 2,-2 v -1.2775 -1.2775 l -1.493,-2.1316 -1.4931,-2.1316 -9.0545,-3.753 -9.0544,-3.753 -2.4525,-2.9146 -2.4525,-2.91472 v -2.8762 -2.8762 l 1.1947,-2.622 1.1947,-2.6221 2.7556,-1.425 2.7557,-1.425 h 4.5004 4.5005 l 4.9359,1.0586 4.9359,1.0585 0.6133,3.0665 0.6133,3.0664 v 2.5414 2.5414 l -3.8266,-4.145 -3.8266,-4.145 -3.7592,-1.5706 -3.7591,-1.5707 -3.4147,1.1269 -3.4147,1.127 -0.6514,2.5954 -0.6514,2.5953 2.7138,2.1639 2.7137,2.1638 6.589,2.32622 6.589,2.3261 3.2788,2.8788 3.2789,2.8789 0.6489,2.9546 0.649,2.9547 -1.1886,3.6015 -1.1887,3.6016 -4.14,1.8799 -4.1401,1.88 -5,-0.068 z m 32.29706,-0.1828 -4.2971,0.4708 -3.4678,-2.3564 -3.46766,-2.3564 -0.9422,-3.285 -0.9421,-3.285 1.6734,-3.5091 1.67336,-3.5091 4.5692,-2.0212 4.5692,-2.0211 7.4173,-0.561 7.4173,-0.561 v -5.68132 -5.6814 l -2.3145,-2.1743 -2.3144,-2.1743 h -3.1288 -3.1289 l -1.5567,2.2225 -1.5567,2.2225 v 1.7775 1.7775 l -1.75,-0.014 -1.75,-0.014 -2.25,-0.603 -2.25,-0.603 v -1.4603 -1.4602 l 2.9231,-2.9231 2.9231,-2.9231 h 7.6265 7.6266 l 3.0291,1.5664 3.0292,1.5664 1.4212,3.4015 1.4212,3.4015 v 10.95032 10.9503 l 0.607,1.5818 0.607,1.5818 h 2.6705 2.6705 l 2.2225,-1.5567 2.2225,-1.5567 v 0.8696 0.8696 l -2.75,2.5649 -2.75,2.5649 -2.1843,1.1222 -2.1842,1.1222 h -1.46 -1.46 l -3.1408,-2.9339 -3.1408,-2.934 -4.9178,2.5515 -4.9179,2.5515 -4.2971,0.4707 z m 3.9327,-4.7205 2.2297,0.015 4.0664,-1.627 4.0663,-1.6271 -0.2961,-5.6229 -0.2961,-5.623 -5.2018,-0.3006 -5.2019,-0.3006 -3.0336,1.5688 -3.0337,1.5688 -0.5974,2.3801 -0.5974,2.3801 0.3329,2.3267 0.3329,2.3266 2.5,1.2603 2.5,1.2603 2.2298,0.015 z m 49.1404,4.5946 -6.3702,0.3688 -5.2803,-1.338 -5.2803,-1.338 -0.3316,-0.3863 -0.3317,-0.3864 -0.5658,-5.75 -0.5658,-5.75 h 0.4072 0.4071 l 4.0603,4.4049 4.0603,4.4049 3.3614,1.5951 3.3615,1.5951 h 3.3763 3.3764 l 2.2225,-1.5567 2.2225,-1.5567 v -2.269 -2.269 l -2.25,-2.1123 -2.25,-2.1124 -8.1064,-3.0946 -8.1064,-3.0947 -2.3936,-2.5479 -2.3936,-2.5478 v -4.50152 -4.5015 l 3.2658,-2.9179 3.2658,-2.918 h 5.4079 5.4079 l 5.0763,1.1717 5.0763,1.1718 v 5.5082 5.5083 l -3.4772,-4.0623 -3.4771,-4.0623 -4.1402,-1.6565 -4.1401,-1.6566 -3.3349,1.1006 -3.3349,1.1007 -0.6032,1.9004 -0.6032,1.9005 1.0401,1.9434 1.0401,1.9434 9.0291,3.74252 9.0292,3.7425 2.4457,2.2666 2.4457,2.2666 0.6833,2.7225 0.6833,2.7224 -0.8929,3.517 -0.8928,3.5169 -2.6298,1.9514 -2.6298,1.9513 z m 147.6298,0.3706 -4,-0.038 -3.9422,-1.4043 -3.9422,-1.4044 -2.5578,-1.8603 -2.5578,-1.8603 -2.25,-4.4033 -2.25,-4.4034 v -4.6389 -4.6389 l 1.1361,-3.39922 1.136,-3.3992 2.614,-2.8761 2.6139,-2.8761 4,-1.8519 4,-1.852 h 6.5 6.5 l 4,1.852 4,1.8519 2.6864,2.8761 2.6864,2.8761 1.0636,2.8151 1.0636,2.81512 v 5.223 5.223 l -2.25,4.4538 -2.25,4.4539 -3.3824,2.2476 -3.3823,2.2476 -3.6177,1.0049 -3.6176,1.0048 -4,-0.038 z m 2.1151,-3.0139 3.1152,0.063 2.756,-2.1679 2.7561,-2.1679 1.3788,-3.3 1.3788,-3.3 v -5.7164 -5.7164 l -2.0858,-4.30872 -2.0859,-4.3087 -2.6641,-1.8648 -2.6642,-1.8648 -2.9997,-0.5513 -2.9998,-0.5512 -3.2823,1.3714 -3.2823,1.3714 -1.946,4.2877 -1.946,4.2876 -0.022,5.28212 -0.022,5.2821 1.5477,3.7043 1.5478,3.7042 2.2022,2.373 2.2023,2.373 2,0.8273 2,0.8272 3.1151,0.063 z m 43.494,3.0406 -3.6091,-0.023 -3.1171,-1.5378 -3.117,-1.5377 -1.133,-2.4866 -1.1329,-2.4865 v -13.0187 -13.01872 l -0.9917,-1.853 -0.9917,-1.8529 -3.2583,-0.7508 -3.2583,-0.7508 2.5,-0.7308 2.5,-0.7308 5.75,-0.1 5.75,-0.1 v 15.54552 15.5454 l 2.4545,2.4546 2.4546,2.4545 h 3.2297 3.2298 l 4.3157,-2.0892 4.3157,-2.0892 v -13.3541 -13.35412 l -2.2225,-1.5567 -2.2225,-1.5567 -2.0275,-0.07 -2.0275,-0.07 2,-0.8594 2,-0.8594 6.25,-0.07 6.25,-0.07 v 17.37762 17.3775 l 1.4361,1.1918 1.436,1.1919 2.814,0.8446 2.8139,0.8447 -4.5,0.097 -4.5,0.097 -3.75,0.6198 -3.75,0.6199 v -2.6309 -2.6308 l -0.25,0.013 -0.25,0.013 -5.8909,2.9874 -5.8909,2.9873 -3.6091,-0.023 z m 53.3909,-0.4211 -6,0.3246 -4.7924,-1.2 -4.7925,-1.2 -0.9422,-1.4904 -0.9423,-1.4903 -0.015,-4.9782 -0.015,-4.9782 4.318,4.7032 4.318,4.7032 3.6499,1.525 3.6499,1.525 h 2.8096 2.8096 l 2.2787,-1.5961 2.2787,-1.596 -0.3062,-3.154 -0.3062,-3.1539 -5.0753,-2.5 -5.0754,-2.5 -4.611,-1.8227 -4.6111,-1.8228 -2.5636,-2.5636 -2.5636,-2.5636 v -3.92942 -3.9294 l 1.0296,-1.9239 1.0297,-1.9239 2.9207,-1.5103 2.9207,-1.5104 h 4.5004 4.5005 l 5.0492,1.0829 5.0492,1.0828 v 2.2922 2.2921 l 0.625,3.125 0.625,3.125 h -0.956 -0.956 l -1.3219,-2.47 -1.3219,-2.4699 -3.8476,-2.6664 -3.8476,-2.6664 h -3.9828 -3.9827 l -1.5167,1.2588 -1.5168,1.2588 v 2.0488 2.0488 l 1.5537,1.7169 1.5538,1.7168 7.5521,2.86192 7.5521,2.8619 3.6214,3.116 3.6214,3.116 v 4.0251 4.0251 l -1.3371,2.4984 -1.3371,2.4985 -2.6402,1.2262 -2.6401,1.2263 -6,0.3245 z m 40.58788,0.077 -5.5879,0.4138 -3.4702,-1.5677 -3.4703,-1.5676 -1.8862,-1.7056 -1.8861,-1.7057 -1.9123,-3.7468 -1.9123,-3.7468 -0.5844,-4.2635 -0.5844,-4.2636 1.1452,-4.25282 1.1452,-4.2528 3.1063,-3.5379 3.1064,-3.538 2.8019,-1.4489 2.8019,-1.4489 h 5.6485 5.6485 l 3.4904,1.6563 3.4904,1.6563 2.389,3.6101 2.389,3.61 0.6468,3.2337 0.6467,3.23362 h -15.125 -15.125 l 0.01,1.75 0.01,1.75 1.0855,4 1.0855,4 3.095,3.2396 3.095,3.2396 3.3139,0.6217 3.3139,0.6217 3.3994,-0.6378 3.3994,-0.6377 3.5722,-2.4241 3.5721,-2.4241 0.6898,1.1161 0.6897,1.116 -2.9113,2.3872 -2.9113,2.3871 -2.9121,1.5569 -2.9122,1.5569 -5.5878,0.4137 z m -2.6955,-25.6328 h 9.2743 l 0.55,-0.5501 0.5501,-0.55002 -0.8121,-3.6009 -0.8122,-3.6009 -1.9747,-1.9747 -1.9747,-1.9747 -4.0357,-0.1058 -4.0357,-0.1058 -2.5828,2.4263 -2.5827,2.4264 -0.8313,3.0551 -0.8313,3.0551 0.4122,0.75 0.4122,0.75002 z m 70.1076,25.9505 -4,-0.038 -3.9422,-1.4043 -3.9422,-1.4044 -2.5188,-1.8806 -2.5189,-1.8806 -2.289,-4.3284 -2.2889,-4.3285 0.022,-5.0927 0.022,-5.0927 1.8461,-4.00002 1.8462,-4 2.3955,-2.2023 2.3956,-2.2022 3.7042,-1.5478 3.7043,-1.5477 h 6.4179 6.4179 l 5.291,2.764 5.291,2.7641 2.3232,4.3932 2.3232,4.3933 -0.016,6.09272 -0.016,6.0927 -2.2488,3.9704 -2.2488,3.9705 -3.3671,2.2691 -3.3671,2.2691 -3.6177,1.0049 -3.6176,1.0048 -4,-0.038 z m 2.013,-2.9505 h 3.2173 l 2.6548,-2.0883 2.6549,-2.0883 1.48,-2.862 1.48,-2.8621 -0.022,-6.2996 -0.022,-6.2997 -1.8615,-4.09892 -1.8615,-4.099 -2.8666,-2.0052 -2.8665,-2.0052 -2.7416,-0.6628 -2.7416,-0.6628 -3.5404,1.4793 -3.5405,1.4793 -1.946,4.2877 -1.946,4.2876 -0.022,5.53812 -0.022,5.5381 2.25,4.4538 2.25,4.4539 3.3979,2.258 3.3979,2.2581 h 3.2172 z m 172.8564,2.6251 -5.8694,0.4571 -4.1161,-1.9322 -4.1161,-1.9323 -2.5101,-3.3589 -2.5102,-3.3588 -1.2467,-3.8877 -1.2468,-3.8876 0.588,-4.9648 0.588,-4.96482 2.437,-4.1583 2.4369,-4.1583 3.9842,-2.2392 3.9842,-2.2393 h 5.6537 5.6537 l 3.8594,1.9689 3.8594,1.9689 1.9929,3.2811 1.9929,3.2811 0.6873,3.25 0.6873,3.25002 h -15.0794 -15.0795 v 2.134 2.134 l 1.1931,3.9822 1.1931,3.9821 2.8458,2.8459 2.8458,2.8458 3.4611,0.6493 3.4611,0.6493 3.3994,-0.6378 3.3994,-0.6377 3.5193,-2.3882 3.5192,-2.3882 0.5814,0.5813 0.5813,0.5813 v 0.7116 0.7115 l -5.3806,3.7058 -5.3807,3.7058 z m -2.977,-25.6251 h 9.2743 l 0.55,-0.5501 0.5501,-0.55002 -0.8121,-3.6009 -0.8122,-3.6009 -1.9747,-1.9747 -1.9747,-1.9747 -4.0127,-0.1052 -4.0127,-0.1052 -2.2219,1.9808 -2.2218,1.9809 -1.3938,3.294 -1.3938,3.294 0.5908,0.956 0.5908,0.95602 z m 137.2451,25.5562 -5.1375,0.3884 -2.7086,-0.8748 -2.7087,-0.8747 -2.9555,-2.1045 -2.9555,-2.1046 -2.1668,-4.4759 -2.1668,-4.4759 0.029,-5.9541 0.028,-5.95412 1.9551,-3.813 1.9552,-3.813 2.3473,-2.1834 2.3473,-2.1834 2.8151,-1.0666 2.8151,-1.0666 h 4.967 4.967 l 3.2179,1.3711 3.2179,1.3711 2.3118,2.5092 2.3119,2.5091 1.3903,4.6198 1.3903,4.61972 h -15.0794 -15.0794 l 0.4876,5.0745 0.4876,5.0745 1.9607,2.6755 1.9608,2.6755 3.4289,1.8054 3.4289,1.8054 4.7254,-0.4063 4.7254,-0.4062 3.9765,-2.6315 3.9765,-2.6315 0.5508,0.8912 0.5508,0.8912 -3.1226,2.6275 -3.1226,2.6274 -2.9926,1.5476 -2.9926,1.5475 z m -2.5262,-25.5562 h 10.1113 l -0.6923,-3.75002 -0.6923,-3.75 -2.0138,-2.1654 -2.0139,-2.1654 -2.3967,-0.6015 -2.3968,-0.6016 -3.442,1.4382 -3.442,1.4381 -1.5664,3.0292 -1.5664,3.0291 v 2.0496 2.04972 z m 41.3887,25.8784 -4,-0.1104 -2,-0.4599 -2,-0.4599 -3.75,-0.9626 -3.75,-0.9627 v -6.1414 -6.1415 l 3.6074,4.2145 3.6075,4.2145 3.8527,1.9655 3.8527,1.9655 h 3.3174 3.3173 l 2.2225,-1.5567 2.2225,-1.5567 v -2.3544 -2.3544 l -2.8544,-2.4018 -2.8544,-2.4018 -6.3956,-2.3016 -6.3956,-2.3015 -3.1249,-2.341 -3.1249,-2.3411 -0.5102,-2.66872 -0.5102,-2.6688 0.9196,-3.3303 0.9195,-3.3302 2.6004,-2.0455 2.6004,-2.0455 h 5.2889 5.2888 l 5.0763,1.1717 5.0763,1.1718 v 5.5082 5.5083 l -3.5106,-4.1013 -3.5106,-4.1014 -4.395,-1.6784 -4.395,-1.6785 -2.8444,1.3592 -2.8444,1.3591 -0.3304,2.3231 -0.3303,2.3231 1.7164,1.8966 1.7163,1.8966 5.4103,2.02422 5.4102,2.0242 3.8877,1.9834 3.8876,1.9833 1.5661,2.2359 1.5661,2.2359 v 4.1426 4.1427 l -2.0455,2.6004 -2.0455,2.6004 -3.7045,1.0289 -3.7045,1.0288 z m 40.384,0.022 -3.384,-0.1 -2.2571,-0.6503 -2.2572,-0.6503 -3.5986,-2.877 -3.5986,-2.877 -1.8723,-4.123 -1.8723,-4.123 -0.022,-5.4343 -0.022,-5.4343 2.1024,-4.34292 2.1023,-4.3429 3.4954,-2.6661 3.4954,-2.666 5.8658,-0.4243 5.8658,-0.4243 2.4594,0.6173 2.4594,0.6172 3.1129,2.6194 3.113,2.6194 1.3238,2.6309 1.3237,2.6309 0.6594,2.75 0.6594,2.75002 h -15.019 -15.0191 l 0.022,3.25 0.022,3.25 1.8943,4.172 1.8942,4.1721 2.3861,1.5634 2.386,1.5634 3.1624,0.6325 3.1624,0.6325 3.4348,-0.6444 3.4347,-0.6444 3.5722,-2.4241 3.5721,-2.4241 0.5355,0.8665 0.5356,0.8666 -3.9995,3.4234 -3.9995,3.4235 -3.8736,1.1605 -3.8736,1.1606 -3.384,-0.1 z m -0.884,-25.9007 h 10 v -2.54972 -2.5496 l -1.4826,-2.8671 -1.4826,-2.867 -3.4793,-1.1483 -3.4793,-1.1483 -3.4609,1.6423 -3.4608,1.6422 -1.5772,3.3239 -1.5773,3.3239 v 1.5988 1.59892 z m 91.25,25.9963 h -3.25 l -2,-2 -2,-2 v -16.5 -16.50002 l -4.75,-0.071 -4.75,-0.071 4.0926,-1.8215 4.0925,-1.8215 2.0968,-2.6656 2.0968,-2.6656 1.6965,-4.4423 1.6965,-4.4422 h 0.8642 0.8641 v 7.5 7.5 h 7 7 v 1.5 1.5 h -7 -7 v 14.80002 14.8 l 1.2,1.2 1.2,1.2 h 2.7233 2.7232 l 3.0768,-2.5889 3.0767,-2.5889 v 0.9146 0.9146 l -2.25,2.0693 -2.25,2.0693 -3.5,2.1013 -3.5,2.1012 h -3.25 z m 29.0871,-0.4002 -4.8371,0.5224 -3.1194,-1.9651 -3.1193,-1.9651 -1.0921,-3.1329 -1.0922,-3.1329 1.2115,-3.7113 1.2115,-3.7112 4.6787,-2.3217 4.6787,-2.3217 7.5713,-0.5727 7.5713,-0.5726 v -5.85562 -5.8557 l -2,-2 -2,-2 h -3.3776 -3.3775 l -1.0421,1.2556 -1.042,1.2556 -0.7161,2.8532 -0.7161,2.8532 -3.4882,-0.566 -3.4882,-0.5661 -0.4674,-0.4674 -0.4674,-0.4674 0.6806,-2.1443 0.6806,-2.1444 3.1607,-1.9273 3.1607,-1.9272 h 7 7 l 3.2749,1.9967 3.275,1.9967 0.975,2.5647 0.9751,2.5646 v 11.73492 11.7349 l 1.2,1.2 1.2,1.2 h 2.1089 2.1088 l 1.9412,-1.4682 1.9411,-1.4682 0.9371,-0.032 0.9371,-0.032 -2.9371,3.0893 -2.9371,3.0893 -2.7003,1.4107 -2.7004,1.4107 h -1.0148 -1.0149 l -3.4137,-2.9973 -3.4137,-2.9973 -4.534,2.5341 -4.5339,2.5341 -4.8372,0.5225 z m 3.879,-4.6265 2.716,0.03 3.534,-1.6852 3.5339,-1.6852 v -5.8148 -5.8148 h -5.9233 -5.9232 l -3.0768,2.5889 -3.0767,2.5889 0.015,2.6611 0.015,2.6611 0.7347,1.0855 0.7347,1.0854 2,1.1342 2,1.1341 2.7161,0.03 z m 42.3296,5.0304 h -2.3241 l -2.3608,-1.9095 -2.3608,-1.9094 -0.3173,-16.5906 -0.3173,-16.59052 -4.1827,-0.028 -4.1827,-0.028 4.5,-2.2898 4.5,-2.2897 3.5,-6.8448 3.5,-6.8447 0.2921,7.6626 0.292,7.6627 h 6.958 6.9579 v 1.5 1.5 h -7 -7 v 13.77752 13.7775 l 1.5567,2.2225 1.5567,2.2225 h 2.1933 2.1933 l 3.2742,-1.9962 3.2741,-1.9963 h 0.4788 0.4787 l -3.8278,3.4582 -3.8278,3.4582 -2.7402,1.0418 -2.7402,1.0418 h -2.3241 z m 62.8616,0 h -1.4241 l -3.8761,-8.25 -3.8761,-8.25 -4.0073,-8.5 -4.0074,-8.50002 -2.3581,-2.1134 -2.3582,-2.1135 -2,-1.1061 -2,-1.1062 12.5,0.01 12.5,0.01 -3.1546,1.3724 -3.1545,1.3725 -0.6209,1.9563 -0.6209,1.9563 1.0655,2.8821 1.0655,2.8821 4.1258,8.75002 4.1258,8.75 h 0.7473 0.7473 l 3.8648,-7.25 3.8649,-7.25 1.846,-4.18812 1.8459,-4.1881 -0.6219,-2.4779 -0.6219,-2.4779 -2.7521,-1.005 -2.752,-1.0051 10,-0.056 10,-0.056 -3.1761,1.5664 -3.1761,1.5663 -2.681,4.0513 -2.681,4.0513 -7.4772,14.35962 -7.4772,14.3596 h -1.4241 z m 49.2302,-0.4438 -5.1375,0.3884 -2.9063,-0.9276 -2.9063,-0.9276 -3.4629,-3.2947 -3.463,-3.2947 -1.3807,-3.2179 -1.3808,-3.2179 0.022,-5.7821 0.022,-5.7821 1.8692,-4.11612 1.8692,-4.1161 3.7066,-2.8271 3.7066,-2.8272 5.7963,-0.4193 5.7963,-0.4193 3.441,1.1357 3.441,1.1356 2.722,2.8411 2.7219,2.8411 1.3952,4.6358 1.3951,4.63582 h -15.0794 -15.0794 l 0.4876,5.0745 0.4876,5.0745 1.9607,2.6755 1.9608,2.6755 3.4289,1.8054 3.4289,1.8054 4.7254,-0.4063 4.7254,-0.4062 3.9765,-2.6315 3.9765,-2.6315 0.5508,0.8912 0.5508,0.8912 -3.1226,2.6275 -3.1226,2.6274 -2.9926,1.5476 -2.9926,1.5475 -5.1375,0.3885 z m -2.6375,-25.5562 h 10 v -2.03212 -2.0321 l -1.4201,-3.3989 -1.4201,-3.3988 -3.7154,-1.0258 -3.7154,-1.0259 -3.2981,1.378 -3.2981,1.378 -1.5664,3.0292 -1.5664,3.0291 v 2.0496 2.04972 z m 41.5,25.8784 -4,-0.1104 -2,-0.4599 -2,-0.4599 -3.75,-0.9626 -3.75,-0.9627 v -6.1893 -6.1893 l 3.0736,3.7288 3.0736,3.7289 4.2643,2.499 4.2642,2.499 h 3.4397 3.4396 l 2.2225,-1.5567 2.2225,-1.5567 v -2.4043 -2.4044 l -2.1862,-2.0368 -2.1863,-2.0368 -5.36,-2.0054 -5.36,-2.0054 -3.9203,-2 -3.9203,-2 -1.0335,-1.931 -1.0334,-1.93102 v -4.1427 -4.1426 l 2.9231,-2.9231 2.9231,-2.9231 h 5.5277 5.5277 l 5.0492,1.0829 5.0492,1.0828 v 5.452 5.4519 l -3.25,-3.7016 -3.25,-3.7016 -4.0505,-1.7917 -4.0505,-1.7918 -2.4495,0.603 -2.4495,0.603 -1.25,0.978 -1.25,0.978 v 2.305 2.3049 l 2.5625,2.0157 2.5625,2.0156 3.6875,1.19352 3.6875,1.1934 4.6804,2.3451 4.6804,2.345 1.5696,2.241 1.5696,2.2409 v 4.1426 4.1427 l -2.0455,2.6004 -2.0455,2.6004 -3.7045,1.0289 -3.7045,1.0288 z m -1318.49994,-1.3784 h -14.80902 l 0.46353,-0.75 0.46352,-0.75 h 2.36841 2.3684 l 2.07258,-2.6349 2.07258,-2.6348 V 683.5669 656.1563 l -2.45455,-2.4546 -2.45454,-2.4545 h -2.54546 -2.54545 v -0.75 -0.75 h 15 15 v 0.75 0.75 h -2.44424 -2.44423 l -2.67484,2.3008 -2.67484,2.3008 -0.52274,13.6992 -0.52274,13.6992 h 0.90257 0.90258 l 8.5476,-6.8788 8.54761,-6.8789 4.19163,-4.762 4.19164,-4.7619 v -3.4103 -3.4102 l -3.5,-1.4624 -3.5,-1.4624 v -0.2366 -0.2365 h 15.5 15.5 v 0.5426 0.5426 l -4.25,1.1755 -4.25,1.1755 -6.5,4.937 -6.5,4.937 -6,5.4863 -6,5.4864 11,16.3285 11,16.32852 4.39794,4.3346 4.39795,4.3347 2.87286,0.5746 2.87287,0.5745 0.3837,0.6209 0.3837,0.6208 h -16.30902 -16.30902 l 0.3837,-0.6208 0.3837,-0.6209 3.03187,-0.6063 3.03186,-0.6064 1.16143,-2.5491 1.16143,-2.549 -10.35568,-15.3679 -10.35567,-15.36782 -5.45366,4.1176 -5.45365,4.1175 0.54671,11.86622 0.54671,11.8661 2.26445,2.4104 2.26445,2.4104 h 2.26667 2.26667 l 0.46352,0.75 0.46353,0.75 z m 113.40451,0 h -11.40451 v -0.2366 -0.2366 l 3.5256,-1.473 3.5256,-1.4731 -0.2756,-15.7904 -0.2756,-15.79032 -2.75,-0.3164 -2.75,-0.3164 v -0.8184 -0.8184 l 5.65677,-0.7067 5.65677,-0.7068 1.34323,-0.5154 1.34323,-0.5155 v 2.607 2.607 l 0.75,-0.031 0.75,-0.031 4,-2.4637 4,-2.4637 4.79966,-0.01 4.79966,-0.01 2.93341,1.5169 2.93342,1.517 1.65034,3.1914 1.65034,3.1914 0.36658,10.51442 0.36659,10.5144 v 2.8283 2.8283 l 3.5,1.4623 3.5,1.4624 2e-4,0.2366 2e-4,0.2366 H 620.19552 609.1976 l -0.002,-0.75 -0.002,-0.75 h 1.97695 1.97694 l 1.63131,-2.4897 1.63131,-2.4897 -0.39354,-11.2603 -0.39354,-11.26032 -1.45671,-2.2523 -1.4567,-2.2523 -3.15732,-1.042 -3.15733,-1.042 -2.85068,0.6901 -2.85069,0.6902 -2.75,1.9222 -2.75,1.9223 v 12.43192 12.4319 l 2,2 2,2 h 1.44098 1.44099 l 0.46352,0.75 0.46353,0.75 h -11.40451 z m 204.07045,0 h -15.5242 l 2.2746,-0.8594 2.2746,-0.8595 2.2701,-0.8782 2.2701,-0.8783 0.9799,-2.5774 0.9799,-2.5774 V 683.6324 658.1478 l -1.463,-2.8291 -1.463,-2.8292 -1.6188,-0.6212 -1.6188,-0.6211 h -2.4182 -2.4182 v -0.75 -0.75 l 15.2515,0.3567 15.2515,0.3567 -1,0.3058 -1,0.3058 -2.8159,0.6231 -2.8159,0.623 -1.4341,3.4323 -1.4341,3.4323 v 10.0321 10.0322 h 19.5 19.5 v -10.5497 -10.5497 l -1.463,-2.8291 -1.463,-2.8292 -1.6188,-0.6212 -1.6188,-0.6211 h -2.4182 -2.4182 v -0.75 -0.75 h 15 15 v 0.75 0.75 h -2.0657 -2.0658 l -1.8291,0.9789 -1.829,0.9788 -1.1052,3.1704 -1.1052,3.1703 v 24.3829 24.38292 l 1.4244,3.409 1.4243,3.409 4.0757,1.0974 4.0756,1.0975 v 0.2114 0.2115 h -15.5233 -15.5233 l 2.2733,-0.8594 2.2733,-0.8595 2.2701,-0.8782 2.2701,-0.8783 0.9799,-2.5774 0.9799,-2.5774 v -13.4349 -13.43492 h -19.5 -19.5 v 13.03212 13.0321 l 1.4244,3.409 1.4243,3.409 4.0757,1.0974 4.0756,1.0975 -4e-4,0.2114 -5e-4,0.2115 h -15.5241 z m 336.08528,0 h -13.3681 l 0.4629,-0.75 0.4629,-0.75 h 1.3843 1.3843 l 1.5567,-2.2225 1.5567,-2.2225 v -14.2775 -14.27752 h -2.5 -2.5 v -1.5 -1.5 h 2.3837 2.3837 l 0.4325,-9.75 0.4326,-9.75 2.3168,-5.2731 2.3168,-5.2731 2.9124,-2.4506 2.9124,-2.4506 3.7361,-1.0061 3.7361,-1.006 3.7249,1.0286 3.725,1.0285 2.0397,2.1893 2.0396,2.1893 -0.2961,3.5119 -0.2962,3.5119 -2.6112,0.303 -2.6112,0.303 -0.5758,-4.2928 -0.5758,-4.2928 -2.1738,-1.7602 -2.1738,-1.7602 h -1.6667 -1.6667 l -2.3281,1.6307 -2.3282,1.6307 -1.3943,3.3371 -1.3944,3.3372 v 12.5321 12.5322 h 6.5 6.5 v 1.5 1.5 h -6.5 -6.5 v 14.46102 14.4611 l 2.1886,2.0389 2.1885,2.039 2.0615,0.07 2.0614,0.07 1.7142,0.6797 1.7142,0.6797 h -13.3681 z m 57.9436,0 h -15.5453 l 2.2707,-0.8594 2.2707,-0.8595 2.1995,-0.8461 2.1995,-0.8461 1.1131,-4.134 1.1132,-4.134 -0.3126,-24.83182 -0.3127,-24.8319 -2.4243,-2.5786 -2.4243,-2.5786 h -2.8257 -2.8257 v -0.75 -0.75 h 20.2591 20.2592 l 4.8806,2.5044 4.8806,2.5045 3.1067,3.8384 3.1066,3.8383 v 6.3339 6.3338 l -2.0447,2.8234 -2.0447,2.8233 -5.6391,2.8426 -5.6391,2.8426 2.8758,4.6574 2.8758,4.65742 5.3808,6.5 5.3807,6.5 4.1252,2.85 4.1253,2.8499 3.802,1.3562 3.802,1.3561 -10.0255,0.044 -10.0256,0.044 -7.2049,-9.0356 -7.205,-9.0355 -3.2695,-5.9612 -3.2695,-5.96112 -1.5,-0.4192 -1.5,-0.4193 -4.75,-0.6453 -4.75,-0.6453 v 11.99612 11.9962 l 0.9799,2.5774 0.9799,2.5774 2.2701,0.8783 2.2701,0.8782 2.2746,0.8595 2.2746,0.8594 h -15.5453 z m 14.4961,-34.56492 5.5,0.062 3.4289,-1.7485 3.4289,-1.7484 2.0365,-2.777 2.0365,-2.777 0.035,-5.8965 0.035,-5.8966 -2.0919,-2.8265 -2.092,-2.8264 -3.3059,-2.25 -3.306,-2.25 h -6.2703 -6.2703 l -1.5818,0.607 -1.5818,0.6069 v 13.9253 13.9252 l 2.25,0.9044 2.25,0.9044 5.5,0.062 z m 147.4056,34.56492 h -11.4042 l -7e-4,-0.2366 -7e-4,-0.2366 3.5,-1.4624 3.5,-1.4623 v -15.5825 -15.58242 l -1.75,-0.5645 -1.75,-0.5646 -1.5,-0.5518 -1.5,-0.5517 4.5,-0.8103 4.5,-0.8102 2.6894,-0.5049 2.6894,-0.505 0.3106,3.1186 0.3106,3.1186 3,-2.515 3,-2.515 3.2003,-1.6407 3.2004,-1.6407 h 2.0951 2.0951 l 2.4546,2.4545 2.4545,2.4546 v 1.8602 1.8603 l -3.5339,1.6852 -3.534,1.6852 h -0.3724 -0.3725 l 0.4543,-1.75 0.4543,-1.75 -1.3923,-1.8975 -1.3923,-1.8974 -2.6373,0.6619 -2.6372,0.6619 -3.5184,3.0891 -3.5183,3.0892 v 11.89642 11.8964 l 2,2 2,2 h 1.441 1.441 l 0.4638,0.75 0.4639,0.75 z m 163,0 h -11.4042 l -7e-4,-0.2366 -7e-4,-0.2366 3.5256,-1.473 3.5256,-1.4731 -0.2756,-15.7904 -0.2756,-15.79032 -2.5,-0.3347 -2.5,-0.3347 -0.8136,-0.7789 -0.8137,-0.779 6.1312,-0.6936 6.1311,-0.6937 1.4325,-0.5497 1.4325,-0.5497 v 2.607 2.607 h 0.3979 0.398 l 4.352,-2.488 4.3521,-2.4879 4.7997,-0.012 4.7996,-0.012 2.9334,1.5169 2.9334,1.517 1.517,2.9334 1.5169,2.9334 v 11.48452 11.4846 l 0.9286,2.4424 0.9286,2.4424 3.0714,1.0707 3.0714,1.0707 2e-4,0.302 2e-4,0.302 h -10.9979 -10.998 v -0.6804 -0.6805 l 2.225,-0.3195 2.2249,-0.3196 1.3248,-2.5 1.3248,-2.5 -0.3673,-11 -0.3674,-11.00002 -1.4047,-2.2208 -1.4047,-2.2207 -2.6514,-1.0983 -2.6514,-1.0982 -3.635,0.6819 -3.635,0.6819 -2.4913,1.9597 -2.4913,1.9597 v 12.77242 12.7724 l 1.8287,1.655 1.8288,1.655 h 1.6122 1.6123 l 0.4638,0.75 0.4639,0.75 h -11.4041 z m 158.6327,0 h -12.0083 l 3.035,-1.0219 3.035,-1.0219 0.9347,-1.4781 0.9347,-1.4781 0.015,-12.6849 0.015,-12.68492 -0.9286,-2.4424 -0.9286,-2.4424 -3.2335,-1.1272 -3.2336,-1.1272 0.4121,-0.356 0.4122,-0.3559 7.7275,-0.6249 7.7275,-0.6249 0.2725,18.12752 0.2725,18.1274 1.5,0.7559 1.5,0.7558 2.2733,0.8521 2.2733,0.852 h -12.0083 z m -1.5108,-58.51532 -1.0275,-0.015 -1.1003,-0.7347 -1.1003,-0.7347 -1.085,-2.0633 -1.085,-2.0634 1.2085,-2.4366 1.2084,-2.4367 2.7873,-0.3223 2.7873,-0.3222 1.4396,1.1947 1.4395,1.1947 v 2.8208 2.8209 l -2.2225,1.5567 -2.2225,1.5567 -1.0275,-0.015 z" />
  <path d="m 161.7464,758.24722 h -3.5857 l -1.37822,-3.25 -1.37822,-3.25 -1.10487,-2.7955 -1.10487,-2.7954 -3.33907,0.6264 -3.33908,0.6264 -3.58116,-1.4963 -3.58117,-1.4963 -1.05106,-1.9639 -1.05106,-1.9639 -8.44967,-0.7039 -8.44967,-0.7039 -1.78786,-1.9755 -1.78786,-1.9756 -3.09396,0.2666 -3.09396,0.2665 -3.69794,-1.7547 -3.69794,-1.7548 v -0.8138 -0.8138 l -4.93161,-0.5841 -4.93161,-0.5841 -4.05376,-2.068 -4.05377,-2.0681 -1.45047,-2.2372 -1.45048,-2.2371 -0.52037,-4 -0.52036,-4 -0.49901,-2.5 -0.49901,-2.5 -0.58155,-3.7045 -0.58156,-3.7045 -1.46322,0.5615 -1.46322,0.5615 v -2.607 -2.607 H 74.78808 73.3831 l -2.56064,-4.36942 -2.56064,-4.3694 -0.95283,-4.2408 -0.95284,-4.2407 -2.74649,-2.8668 -2.74649,-2.8667 -3.34273,-1.1032 -3.34273,-1.1032 -1.04773,-1.9577 -1.04772,-1.9577 0.58097,-1.8304 0.58097,-1.8305 -2.52557,-1.6548 -2.52557,-1.6548 0.006,-3.727 0.006,-3.7269 1.02776,-3.7005 1.02775,-3.7005 -1.53333,-6.6116 -1.53333,-6.6115 v -2.5436 -2.5436 l -2.5,-2.9711 -2.5,-2.9711 v -2.3518 -2.3519 l -1.57143,-1.5714 -1.57143,-1.5714 h -0.92857 -0.92857 v -2.441 -2.441 l -1.01902,-0.6298 -1.01901,-0.6298 -2.4149,-4.7655 -2.41489,-4.7656 -2.10974,-6.5304 -2.10974,-6.5303 -2.37483,-2.2311 -2.37483,-2.231 -1.29983,-4.4023 -1.29984,-4.4022 h -0.70223 -0.70223 l -0.66791,-3.041 -0.6679,-3.041 1.23547,-1.4886 1.23547,-1.4887 -1.14702,-2.5174 -1.14702,-2.5174 v -1.953 -1.9529 h 1.38337 1.38337 l 0.53901,-2.0612 0.539,-2.0612 -1.42237,-0.5458 -1.42238,-0.5458 v -4.893 -4.893 h 1.15499 1.15499 l -1.65499,-1.8288 -1.65499,-1.8287 v -2.0046 -2.0046 l 0.60073,-0.6007 0.60073,-0.6008 0.51613,-4.8159 0.51613,-4.8159 -0.14993,-5.6706 -0.14994,-5.6705 1.03308,-0.6385 1.03307,-0.6385 v -0.941 -0.9409 h -1.46862 -1.46861 l 0.56811,-1.4805 0.56811,-1.4805 -3.05799,-3.861 -3.05799,-3.861 1.20849,-1.3052 1.2085,-1.3052 -1.25,0.7057 -1.25,0.7057 -0.18209,-1.309 -0.18208,-1.309 -0.34257,-5.5 -0.34256,-5.5 -0.042,-3.75 -0.042,-3.75 0.0278,-1.75 0.0278,-1.75 0.17459,-4.5 0.17459,-4.5 -0.0498,-1.5 -0.0498,-1.5 -1.03682,-3.9992 -1.03682,-3.9991 0.90407,-0.9041 0.90407,-0.904 -1.04931,-1.9607 -1.04931,-1.9606 0.44373,-3.1362 0.44373,-3.1361 0.70565,-1.61 0.70564,-1.61 -2.37231,-2.89 -2.37231,-2.89 0.6962,-8.5 0.69621,-8.5 -0.87715,-0.95 -0.878,-0.95 v -3.8 -3.8 H 6.7588 7.32454 l 2.04162,1.0926 2.04162,1.0926 1.09264,-1.0926 1.09264,-1.0926 H 11.5155 9.43795 l -1.17858,-1.4201 -1.17857,-1.4201 0.014,-1.8299 0.014,-1.8299 0.43009,-5.1643 0.43008,-5.1642 0.55065,-0.891 0.55066,-0.8909 -0.89435,-3.9448 -0.89435,-3.9448 1.02885,-0.3577 1.02885,-0.3578 -2.12994,-2.2672 -2.12994,-2.2672 1.11747,-12.3751 1.11748,-12.375 -0.63589,-11.5 -0.63589,-11.5 -0.17477,-4.5952 -0.17477,-4.5951 -1.12761,-1.4049 -1.12761,-1.4048 -0.66307,-2.1659 -0.66306,-2.1658 1.04338,-0.6449 1.04338,-0.6448 -1.00271,-1.8736 -1.0027,-1.8736 v -2.0793 -2.0793 l 1.18251,-1.8935 1.18251,-1.8935 -1.82062,-9.3429 -1.82062,-9.3429 -0.4584,-4.75 L 0,264.2472 h 1.59652 1.59651 v -0.941 -0.941 l -1,-0.618 -1,-0.6181 v -3.5067 -3.5067 l 1.1434,-2.1365 1.1434,-2.1364 -1.18514,-0.3951 -1.18514,-0.395 1.06587,-1.2843 1.06586,-1.2843 0.48879,-7.3685 0.48879,-7.3684 0.25563,-6 0.25563,-6 1.22327,-3.5 1.22328,-3.5 0.31748,-12.5 0.31748,-12.5 2.81148,-4.2317 2.81147,-4.2317 0.50928,-4.5183 0.50927,-4.5183 h 0.97694 0.97694 l -0.56332,-1.468 -0.56331,-1.468 0.95632,-0.591 0.95633,-0.5911 0.0307,-4.691 0.0307,-4.6909 2.21928,-5.4578 2.21928,-5.4579 2.38545,-0.5602 2.38545,-0.5602 1.45299,-4.982 1.45299,-4.9819 0.91156,-1.7365 0.91156,-1.7364 v -2.8911 -2.8911 l 1.4562,-1.2086 1.45619,-1.2085 1.0082,0.6231 1.00821,0.6231 2.5356,-5.0038 2.5356,-5.0037 v -1.4167 -1.4166 l 2.16445,-0.566 2.16445,-0.566 -1.21438,-1.4632 -1.21438,-1.4633 1.56766,-3.3374 1.56766,-3.3373 1.3726,-2.5 1.37259,-2.5 2.10968,-4.7768 2.10967,-4.7767 V 84.4319 82.67 l 1.96666,-3.8574 1.96666,-3.8575 -0.21666,-3.1637 -0.21666,-3.1636 3.5,-3.0437 3.5,-3.0436 2.18426,-1.1467 2.18426,-1.1466 1.81574,-0.022 1.81581,-0.022 2.5,-1.9555 2.5,-1.9556 -1.81955,-0.022 -1.81955,-0.022 0.31955,-2.25 0.31955,-2.25 4.10332,-0.039 4.10331,-0.039 2.57084,-1.6844 2.57084,-1.6845 0.64718,-2.0391 0.64717,-2.039 3.55416,-2.4152 3.55417,-2.4151 2.1926,0.8336 2.19261,0.8337 1.19037,-1.9061 1.19038,-1.9061 h 2.38312 2.38311 l 0.62746,-2.5 0.62746,-2.5 h 0.92194 0.92193 l 0.62811,1.0163 0.62812,1.0163 0.88722,-0.5483 0.88723,-0.5484 -0.56331,-1.4679 -0.56332,-1.468 h 1.88448 1.88449 l 2.2891,-1.6034 2.2891,-1.6033 0.56483,2.1599 0.56482,2.1599 1.45037,-0.5565 1.45036,-0.5566 1.66822,-0.035 1.66821,-0.035 -2.36358,-1.3105 -2.36359,-1.3106 4.12462,-1.6503 4.12463,-1.6504 0.73896,0.1964 0.73896,0.1963 5.37989,-2.7827 5.37989,-2.7827 2.02333,0.5291 2.02333,0.5292 2.59678,-1.3282 2.59678,-1.3282 4.5,-0.798 4.5,-0.7979 2.19728,-0.1444 2.19728,-0.1445 1.84424,-2.2775 1.84425,-2.2775 4.95847,-1.2775 4.95848,-1.2774 1.60404,0.8361 1.60404,0.8362 2.84833,-2.973 2.84833,-2.973 3.60278,-0.9702 3.60278,-0.9701 2.97332,0.8527 2.97332,0.8528 4.29774,2.1925 4.29773,2.1926 1.58642,-1.3092 1.58641,-1.3092 0.42026,1.2486 0.42027,1.2487 2.09168,-1.4651 2.09168,-1.4651 5.71073,0.5969 5.71072,0.5969 3.02185,-1.5075 3.02186,-1.5075 6.34286,1.1294 6.34285,1.1293 0.31336,3.2477 0.31336,3.2477 h 2.1079 2.1079 l 1.74555,1.5797 1.74556,1.5797 2.21036,-1.183 2.21036,-1.1829 0.90631,1.3532 0.90631,1.3533 1.01669,1.778 1.01669,1.778 1.018,-0.6292 1.018,-0.6291 -0.53679,-1.3989 -0.53679,-1.3988 h 3.28152 3.28153 l 2.87418,3 2.87418,3 h 2.0904 2.09041 l 2.15686,1.5107 2.15686,1.5107 0.66085,-1.0693 0.66084,-1.0692 3.1548,0.6665 3.1548,0.6665 2.06445,1.892 2.06445,1.8921 h 1.11746 1.11745 l 2.0928,2.939 2.0928,2.9391 5.41337,2.5609 5.41337,2.561 h 1.95494 1.95493 l 0.59293,1.5451 0.59293,1.5452 3.26406,1.3645 3.26406,1.3645 4,3.1802 4,3.1803 3.38034,-0.5482 3.38033,-0.5482 2.68671,1.3894 2.6867,1.3893 1.83288,4.0646 1.83287,4.0646 3.20355,2.4434 3.20355,2.4435 1.26785,3.0609 1.26786,3.0609 h 1.91241 1.9124 l 1.94631,3.2987 1.9463,3.2987 3.76997,1.6849 3.76997,1.6849 2.97058,2.3981 2.97058,2.3982 -1.36896,1.6495 -1.36897,1.6495 1.73869,1.2713 1.73868,1.2714 -1.5903,1.3198 -1.5903,1.3199 v 0.869 0.869 l 5.39398,3.0441 5.39398,3.0442 3.60602,4.6285 3.60602,4.6285 0.0354,2.0859 0.0354,2.0859 1.42913,2.5 1.42913,2.5 0.0354,4.3157 0.0354,4.3157 -1.02292,1.9114 -1.02292,1.9113 -1.82655,0.9776 -1.82655,0.9775 -3.77635,-2.024 -3.77635,-2.024 0.67095,2.8194 0.67095,2.8194 1.93322,2.5 1.93322,2.5 5.04527,8.178 5.04528,8.1779 2.64162,12.8221 2.64162,12.822 0.22995,4.5 0.22994,4.5 1.04125,8 1.04124,8 1.42708,3.5 1.42708,3.5 -0.14904,27.5 -0.14905,27.5 -1.3602,2.0981 -1.36021,2.0982 1.59394,4.678 1.59393,4.6779 -1.9955,7.2239 -1.9955,7.2239 -1.01226,5.5 -1.01227,5.5 -0.33408,7 -0.33409,7 4.84715,7.5 4.84715,7.5 1.70019,4 1.70018,4 0.0236,7.5 0.0236,7.5 -0.68738,11.9608 -0.68737,11.9609 -2.38053,3.5391 -2.38053,3.5392 -1.75649,5.4511 -1.7565,5.451 -3.35284,3.4524 -3.35284,3.4523 v 2.3118 2.3118 l -2.8725,3.2848 -2.87249,3.2848 -0.70898,3.2591 -0.70897,3.2592 -4.90183,4.1333 -4.90183,4.1333 0.56266,2.2418 0.56267,2.2418 -1.9471,3.8657 -1.94709,3.8658 -0.48143,7.0079 -0.48144,7.008 -1.65083,3.1924 -1.65084,3.1923 -0.0642,5.7997 -0.0642,5.7997 -1.18579,5.5737 -1.1858,5.5738 -1.59455,1.5922 -1.59456,1.5922 -0.66766,10.993 -0.66767,10.9929 -1.48778,4.2168 -1.48778,4.2168 -0.02,2.6243 -0.02,2.6243 -2.38131,9.2749 -2.38132,9.275 -1.68341,2.5692 -1.68341,2.5692 0.63334,2.5234 0.63333,2.5235 -1.60575,1.7743 -1.60574,1.7743 -0.19282,6.1067 -0.19282,6.1067 h -0.75 l -0.75,10e-4 v 1.9758 1.9758 l -1.9434,3.1957 -1.9434,3.1957 0.97858,1.8285 0.97859,1.8285 -1.1885,2.25 -1.1885,2.25 -4.23556,5.5 -4.23557,5.5 -2.61112,2.4243 -2.61112,2.4243 v 0.8752 0.8753 l -3.62683,3.7004 -3.62682,3.7005 -2.29252,3.5 -2.29252,3.5 -2.18745,8.2397 -2.18745,8.2398 -2.97536,4.492 -2.97536,4.492 -5.00901,3.2457 -5.009,3.2457 -2.40884,4.1104 -2.40884,4.1104 0.0282,2.4121 0.0282,2.4122 -3.27823,6.5 -3.27823,6.5 -1.29596,0.8254 -1.29596,0.8254 -2.29235,5.1746 -2.29235,5.17462 -1.71946,1.4204 -1.71947,1.4204 -1.34244,3.2129 -1.34244,3.2129 -4.52996,3.1167 -4.52996,3.1167 h -1.05612 -1.05613 l -8.26288,4.5705 -8.26287,4.5705 -1.71318,1.5504 -1.71318,1.5504 -1.07315,3.2517 -1.07315,3.2517 -8.19079,6.2726 -8.19078,6.2726 -3.71618,0.2097 -3.71617,0.2097 -2.58457,3.0716 -2.58456,3.0716 -3.0082,0.6607 -3.00821,0.6607 -8.21476,0.3964 -8.21477,0.3963 -8.91372,0.4913 -8.91373,0.4913 -7.26676,3.0251 -7.26675,3.0252 h -3.5857 z m 30.69583,-21.5139 3.25083,-0.6731 1.25,-1.5976 1.25,-1.5977 v -1.8088 -1.8089 h -2.44424 -2.44423 l -2.72323,2.3424 -2.72322,2.3424 0.66664,1.7373 0.66663,1.7372 z m 15.1675,-0.5215 2.08333,-0.035 2.12626,-1.2145 2.12625,-1.2146 2.72979,-3.2704 2.72978,-3.2704 4.79006,0.6355 4.79006,0.6354 0.67162,-2.1161 0.67163,-2.1161 1.99684,-1.0687 1.99684,-1.0687 -1.11409,-1.3424 -1.1141,-1.3424 -5.02719,-1.206 -5.02719,-1.206 -0.58037,-1.5124 -0.58037,-1.5124 1.81456,-3.3695 1.81456,-3.3694 h 1.38904 1.38904 l 1.70349,-2.9937 1.70349,-2.9937 1.66667,-0.01 1.66666,-0.01 1.4162,4.25 1.4162,4.25 1.52665,0.2963 1.52665,0.2962 1.30232,-3.2962 1.30233,-3.2963 1.71856,-2 1.71857,-2 0.65262,-5.5 0.65262,-5.50002 0.59346,-5.282 0.59346,-5.2821 -4.10984,0.6572 -4.10985,0.6572 -0.5748,-1.4979 -0.5748,-1.4979 2.05816,-8.514 2.05816,-8.5139 v -1.4925 -1.4924 l -2.56475,-5.6022 -2.56475,-5.6022 0.31475,-3.2686 0.31475,-3.2618 6.10499,0.2772 6.10499,0.2771 1.09125,-1.3148 1.09125,-1.3149 0.24241,-8.1751 0.24241,-8.1751 -1.83447,-2.0271 -1.83447,-2.0271 -0.48141,-5.0101 -0.48141,-5.0101 h 3.11469 3.11468 l 2.49795,3.957 2.49794,3.957 1.93882,1.0376 1.93882,1.0376 1.11777,-3.3869 1.11777,-3.3868 -2.03157,-7.7563 -2.03157,-7.7563 -1.91525,-1.3415 -1.91526,-1.3415 -2.09516,-6.2042 -2.09517,-6.2041 v -1.7706 -1.7707 l 1.86201,-0.9965 1.86201,-0.9965 2.07037,2.2113 2.07037,2.2114 3.50721,8.3264 3.50722,8.3264 2.51803,3.3013 2.51803,3.3013 2.54237,5.5582 2.54238,5.5582 v 1.3838 1.3837 l 2.5,2.1737 2.5,2.1737 v 4.8842 4.8842 l -1.48659,1.2337 -1.48659,1.2338 2.85866,2.6704 2.85866,2.6704 -0.48823,9.9683 -0.48824,9.9683 -0.8602,0.9263 -0.86021,0.9264 -1.9099,-1.7284 -1.90989,-1.7285 -2.11374,3.4201 -2.11373,3.4201 v 1.1994 1.1993 l 1.75,-0.5315 1.75,-0.5315 3.45911,-0.5869 3.45911,-0.587 1.23974,-1.0289 1.23974,-1.0289 1.1186,-3.3894 1.1186,-3.3894 3.81069,-3.0181 3.81069,-3.0182 1.12186,-4.4553 1.12186,-4.4553 v -2.8346 -2.8347 l 1.5901,-2.2702 1.59009,-2.2702 1.40991,1.1701 1.4099,1.1702 v 2.8775 2.8776 h 0.98746 0.98745 l 2.50416,-3.9669 2.50416,-3.9668 0.65591,-8.5332 0.65591,-8.5331 h -0.76551 -0.76551 l -3.41681,3 -3.41681,3 h -1.53095 -1.53094 l -1.68426,-0.9152 -1.68426,-0.9152 -2.33072,-4.3348 -2.33072,-4.3348 1.08579,-2.8285 1.08578,-2.8284 3.36917,2.0823 3.36917,2.0822 0.5696,-2.848 0.56959,-2.848 -0.5616,-5.9058 -0.56161,-5.9058 -1.57335,-1.25 -1.57336,-1.25 h 2.7047 2.7047 l 2.04733,1.25 2.04734,1.25 1.32704,-1.7879 1.32703,-1.7879 1.65192,-6.5763 1.65192,-6.5763 -1.17728,-3.6358 -1.17728,-3.6358 -3.05159,-6 -3.05158,-6 -0.561,-8 -0.56099,-8 -2.74642,-0.046 -2.74641,-0.046 -0.90557,-0.9536 -0.90557,-0.9536 2.88046,-7.4277 2.88045,-7.4277 1.27153,-0.807 1.27153,-0.807 4.30623,-0.015 4.30623,-0.015 2.0254,-4.5787 2.0254,-4.5788 0.9322,-13.1712 0.9322,-13.1713 0.42608,-1.5 0.42609,-1.5 0.2959,-7 0.29589,-7 2.33551,-1.8787 2.33551,-1.8786 1.02867,1.0286 1.02867,1.0287 0.19927,14.85 0.19927,14.85 0.45074,1.5 0.45074,1.5 1.82448,0.7454 1.82447,0.7453 1.92553,-1.0305 1.92552,-1.0305 1.53878,-2.3485 1.53878,-2.3485 -0.1572,-0.8663 -0.1572,-0.8664 0.11842,-1.7197 0.11842,-1.7198 4.49626,-1.311 4.49625,-1.311 -4.5401,-7.9669 -4.5401,-7.9668 -2.95616,-3.05 -2.95615,-3.05 v -2.2681 -2.2682 l 1.03518,-1.9342 1.03519,-1.9343 h 2.94176 2.94176 l 1.65852,2.5312 1.65851,2.5312 0.35881,-0.3588 0.35881,-0.3588 -1.8638,-10.4224 -1.8638,-10.4224 0.49718,-1.3038 0.49718,-1.3039 3.12235,0.3039 3.12235,0.3038 0.59315,5.5 0.59315,5.5 1.56184,3 1.56183,3 2.67561,2.5 2.6756,2.5 1.46284,-2 1.46284,-2 0.52914,-2.1072 0.52914,-2.1072 -5.07256,-6.7859 -5.07256,-6.7859 -1.06678,-3.9617 -1.06678,-3.9617 0.53539,-1.3952 0.53538,-1.3952 h 0.98334 0.98335 l 3.16384,4.5985 3.16384,4.5985 1.56155,-1.5615 1.56154,-1.5616 -1.21492,-2.6665 -1.21493,-2.6664 2.03758,-1.4272 2.03758,-1.4272 v -0.9119 -0.9119 l -1.5,0.5756 -1.5,0.5756 v -2.107 -2.107 h 0.95173 0.95172 l -1.24948,-2.75 -1.24948,-2.75 -1.95224,-3.2525 -1.95225,-3.2526 -1.76242,-0.5688 -1.76242,-0.5687 -2.48758,-3.6608 -2.48758,-3.6608 v -1.2005 -1.2005 l 2.02247,-0.6419 2.02247,-0.6419 3.0375,0.6671 3.03749,0.6672 0.86711,2.2806 0.86711,2.2807 2.61891,0.6573 2.61892,0.6573 0.95401,-0.5896 0.95401,-0.5896 v -4.382 -4.3819 l 0.91608,-0.5662 0.91609,-0.5662 2.58391,0.9824 2.58392,0.9824 v -1.5931 -1.5932 l -4.01484,-8.9164 -4.01484,-8.9164 -0.91131,-7.2157 -0.91131,-7.2157 0.0468,-3.5 0.0468,-3.5 -1.71615,-5.5 -1.71615,-5.5 -0.78489,-3.8304 -0.7849,-3.8304 -1.11956,-1.1196 -1.11965,-1.1196 v -2.1776 -2.1775 l 1.56594,-1.2997 1.56593,-1.2996 1.45528,-2.8142 1.45529,-2.8142 -2.47483,-4.8838 -2.47483,-4.8839 -1.54639,-0.5934 -1.54639,-0.5934 v -1.9842 -1.9843 l -3.99013,-3.2065 -3.99013,-3.2066 1.11258,-1.3406 1.11257,-1.3405 h 3.3585 3.35851 l 0.64108,-2.5543 0.64109,-2.5543 -0.56071,-3.4552 -0.5607,-3.4552 -2.13896,-3.0039 -2.13896,-3.0039 2.58432,-3.0713 2.58431,-3.0713 -0.67115,-1.1653 -0.67115,-1.1653 -3.91839,-5.6616 -3.91839,-5.6616 0.28727,-3.9787 0.28728,-3.9787 -5.20442,-6.7416 -5.20442,-6.7415 v -4.3682 -4.3681 h -1.5 -1.5 v -3.5658 -3.5657 l -0.97416,-1.8203 -0.97416,-1.8202 -3.52584,-2.0803 -3.52584,-2.0803 v -7.009 -7.0089 l 2.53775,0.9648 2.53776,0.9649 3.69438,2.5104 3.69438,2.5104 h 1.26786 1.26787 v -1.3861 -1.386 l -4.04089,-6.0513 -4.04088,-6.0513 -4.31545,-4.8127 -4.31546,-4.8126 -0.50223,-3 -0.50223,-3 -0.74842,-1.75 -0.74842,-1.75 h 1.72498 1.72497 l 3.3136,-2.9094 3.31359,-2.9094 -5.15888,-3.3406 -5.15888,-3.3406 -1.63124,-10.93 -1.63125,-10.9299 -2.69722,-2.3201 -2.69722,-2.32 h -3.97757 -3.97757 l -3.50849,-3.5085 -3.50849,-3.5085 -7.13579,-3.5935 -7.1358,-3.5936 -3.10997,0.5047 -3.10997,0.5047 -1.61667,-2.8169 -1.61666,-2.8169 -2.7985,-1.8357 -2.79851,-1.8358 -7.54724,-0.8136 -7.54724,-0.8135 -7.75,-0.224 -7.75,-0.2239 v 0.7875 0.7875 h -3.84636 -3.84636 l -3.32872,1.6605 -3.32871,1.6606 -4.48072,-1.1984 -4.48072,-1.1984 -2.91469,2.7878 -2.9147,2.7879 -1.8778,-0.3041 -1.87779,-0.3041 -4.97973,1.4788 -4.97972,1.4788 -1.38949,-2.0927 -1.38949,-2.0927 -3.95932,1.005 -3.95933,1.005 -7.30128,-0.9883 -7.30128,-0.9884 -2.58978,-3.2456 -2.58977,-3.2457 -5.54146,2.998 -5.54145,2.9981 -4.64677,-0.6164 -4.64676,-0.6164 -2.8939,1.5092 -2.8939,1.5091 -4.5,0.042 -4.5,0.042 -2.5,1.4292 -2.5,1.4291 -3.02749,0.035 -3.0275,0.035 -2.36084,-1.6536 -2.36084,-1.6536 -4.82347,1.2362 -4.82347,1.2363 -0.98285,-0.6075 -0.98285,-0.6074 -5.11491,3.1472 -5.11492,3.1473 -5.69043,-0.6194 -5.69043,-0.6193 -1.04818,0.7469 -1.04818,0.7469 -2.2278,3.1909 -2.2278,3.1908 -2.06788,0.6563 -2.06787,0.6564 -4.40615,2.9736 -4.40614,2.9737 v 0.9292 0.9291 h -0.95455 -0.95454 l -2.5925,2.5925 -2.5925,2.5925 -3.45296,5.0197 -3.45295,5.0197 v 1.2135 1.2135 l -2.59501,2.4243 -2.59502,2.4243 -1.48636,2.8577 -1.48636,2.8577 0.60594,2.4143 0.60594,2.4142 -1.52457,0.5851 -1.52456,0.585 v 1.3216 1.3215 l -1.34206,1.3421 -1.34207,1.3421 -1.15793,2.1636 -1.15794,2.1636 v 3.0218 3.0217 l -3.11642,5.2855 -3.11642,5.2854 -0.19467,3.5086 -0.19467,3.5085 -1.18891,2.1843 -1.18891,2.1842 v 5.4157 5.4157 l -3.01442,4.1613 -3.01442,4.1613 -0.12679,10.2387 -0.1268,10.2388 -1.38979,3.4463 -1.38978,3.4463 -2.41611,9.515 -2.4161,9.5149 1.1971,1.4435 1.19711,1.4435 0.19461,11.5953 0.1946,11.5952 0.35643,12.0214 0.35643,12.0214 2.34994,3.1784 2.34994,3.1785 -0.82592,7.8001 -0.82591,7.8002 0.2601,10.5489 0.26011,10.5489 0.66484,3.2128 0.66483,3.2128 -0.58094,11.2383 -0.58093,11.2383 2.90669,3.1258 2.90669,3.1257 -3.0371,1.0588 -3.03711,1.0587 0.3667,9.0966 0.36669,9.0965 1.59466,2.4338 1.59465,2.4337 v 0.5352 0.5352 h -1.5 -1.5 v 0.941 0.941 l 1.09562,0.6771 1.09561,0.6771 -0.45422,3.6319 -0.45423,3.6319 1.32444,2.6343 1.32445,2.6342 -0.0816,6.8658 -0.0816,6.8657 0.98824,11.5446 0.98824,11.5446 4.04994,7.644 4.04994,7.644 -0.54313,2.077 -0.54314,2.077 -0.8793,0.5434 -0.87929,0.5434 v 2.4809 2.4808 l 2,3.9203 2,3.9203 0.0153,2.7899 0.0153,2.7898 0.7447,1.1707 0.7447,1.1707 2.79741,0.7021 2.7974,0.7021 1.34959,2.1272 1.34959,2.1272 -0.70253,7.3244 -0.70253,7.3243 1.36695,3.6757 1.36695,3.6756 1.04215,3.7182 1.04214,3.7183 3.51083,2.0714 3.51083,2.0715 -0.55149,3.3984 -0.55148,3.3984 1.53894,1.2772 1.53894,1.2772 0.78798,2.0347 0.78798,2.0347 0.65259,-2 0.6526,-2 1.87651,-4 1.87651,-4 0.64799,-3.2385 0.64799,-3.2386 0.9024,-0.5577 0.9024,-0.5577 1.9118,1.0232 1.91181,1.0232 5.10886,-1.2136 5.10886,-1.2136 v -3.6908 -3.6907 l 2.63486,-2.0726 2.63486,-2.0726 h 1.06042 1.06042 l 2.80472,-2.6871 2.80472,-2.6871 v -2.8481 -2.8481 l 1.58293,-2.4158 1.58293,-2.4159 -0.62334,-1.9639 -0.62334,-1.964 2.28565,-1.6009 2.28565,-1.6009 4.14633,4.5159 4.14634,4.5159 h 0.50965 0.50965 l 2.16002,-3.661 2.16003,-3.6609 -2.08849,-2.0885 -2.0885,-2.0885 -4.51644,0.1748 -4.51645,0.1748 0.61108,-1.9254 0.61108,-1.9253 h -1 -1 l -0.61434,1.75 -0.61433,1.75 -4.06119,3.25 -4.0612,3.25 -1.14186,-0.015 -1.14186,-0.015 -1.35701,-0.8598 -1.35701,-0.8599 0.61803,-1.9472 0.61803,-1.9473 4.48111,-3.3575 4.48111,-3.3576 -1.49213,-1.6488 -1.49213,-1.6487 v -4.6039 -4.6039 l 1.89203,-0.6005 1.89203,-0.6005 0.51435,-1.9669 0.51435,-1.9669 h 2.12916 2.12915 l 1.93804,-4.5212 1.93803,-4.5212 1.68401,-0.6463 1.68402,-0.6462 2.29445,2.6675 2.29445,2.6674 h 0.44919 0.44919 l 1.9155,-3.25 1.9155,-3.25 1.16768,-3.3545 1.16768,-3.3545 -2.7344,0.8024 -2.73441,0.8023 -4.47811,0.052 -4.47811,0.052 -1.42413,-3 -1.42412,-3 -2.30934,-2.781 -2.30933,-2.7811 -1.03285,-3.7189 -1.03286,-3.719 5.9e-4,-2.5 5.8e-4,-2.5 1.49384,-2.8643 1.49384,-2.8643 v -1.0413 -1.0413 l 2.44665,-3.2077 2.44664,-3.2077 0.66413,-2.6462 0.66414,-2.6461 0.88922,-0.5496 0.88922,-0.5495 v -1.8684 -1.8684 l 2.59894,-2.0444 2.59894,-2.0443 0.8772,-3.7782 0.87721,-3.7783 0.0238,-4.5386 0.0239,-4.5385 1.91232,-3.7509 1.91233,-3.7509 0.59164,-6.0179 0.59165,-6.0179 1.51317,-2.9261 1.51317,-2.9262 -0.14611,-2.7665 -0.14611,-2.7665 1.66629,-3.8072 1.66629,-3.8072 0.12387,-8.4834 0.12387,-8.4834 0.82769,-0.5115 0.8277,-0.5116 -1.45689,-2.2235 -1.45689,-2.2235 0.0915,-4.5593 0.0915,-4.5593 -1.15869,-2.1651 -1.1587,-2.165 h -0.87692 -0.87691 l -0.68897,4.078 -0.68897,4.0779 2.10107,2.2365 2.10107,2.2365 v 2.6856 2.6855 h -3.87756 -3.87755 l -1.08059,-1.302 -1.0806,-1.3021 0.57618,-2.2033 0.57617,-2.2032 -1.24047,-1.4947 -1.24047,-1.4947 h -2.75831 -2.7583 l -0.86925,7.6997 -0.86925,7.6996 -3.20882,1.8684 -3.20883,1.8683 -5.31278,0.5483 -5.31279,0.5484 -6.47839,-1.6571 -6.47839,-1.657 -1.34518,-1.3402 -1.34519,-1.3402 -0.2575,-5.8137 -0.2575,-5.8138 -2.0921,-0.9335 -2.0921,-0.9335 -1.44978,0.5563 -1.44977,0.5563 -2.16792,6.5146 -2.16791,6.5146 -10.68753,-0.4986 -10.68752,-0.4986 -1.75,-2.0549 -1.75,-2.055 v -1.6667 -1.6667 l 1.3653,-1.9725 1.3653,-1.9725 0.74964,-2.5 0.74963,-2.5 2.05938,-2.25 2.05938,-2.25 h 1.68476 1.68477 l 5.89092,-3.0596 5.89092,-3.0595 7.5,-1.8235 7.5,-1.8235 4,-0.6703 4,-0.6702 1.76452,-0.5187 1.76452,-0.5187 -0.62939,-1.0184 -0.62939,-1.0183 -4.26055,0.5217 -4.26055,0.5218 -2.2306,-1.5623 -2.2306,-1.5624 -3.64398,-0.083 -3.64398,-0.083 -5.64449,2.3542 -5.64449,2.3542 -4.68072,-2.2659 -4.68072,-2.2659 -4.67479,0.6335 -4.67479,0.6335 -2.78544,2.0482 -2.78544,2.0483 -2.08218,-0.6608 -2.08219,-0.6609 0.52742,-3.9322 0.52742,-3.9322 3.71691,-4.536 3.71691,-4.536 2.6233,-1.0347 2.62329,-1.0346 6.16413,1.6076 6.16414,1.6076 h 0.57407 0.57408 l -0.23821,-2.25 -0.23821,-2.25 10.51711,-0.1101 10.51711,-0.11 5.64308,-3.1847 5.64309,-3.1848 0.55842,-1.4552 0.55842,-1.4552 h 2.90926 2.90926 l 3.87213,1.6554 3.87212,1.6554 3.0772,-0.1751 3.07719,-0.1751 1.82779,2.0197 1.8278,2.0197 h 4.22256 4.22257 l 1.26021,1.5184 1.2602,1.5185 3.39591,1.6114 3.39591,1.6115 4.55136,5.3274 4.55136,5.3274 1.39702,4.642 1.39702,4.6419 -1.03694,1.9376 -1.03693,1.9375 0.0528,19.7132 0.0528,19.7132 -0.32332,5.5 -0.32332,5.5 -1.55296,3 -1.55295,3 -1.23355,5.5 -1.23356,5.5 -0.7368,3.6571 -0.7368,3.6571 1.34874,3.2077 1.34874,3.2077 v 2.5473 2.5473 l -1.68262,5.3379 -1.68262,5.3379 h -2.12625 -2.12625 l -1.49819,1.25 -1.4982,1.25 -2.94293,3.8609 -2.94294,3.8609 -2.25,3.1109 -2.25,3.1108 v 0.7109 0.7108 l 2.22432,0.706 2.22432,0.7059 5.27568,5.318 5.27568,5.318 v 1.157 1.157 l -4.32638,-0.6488 -4.32639,-0.6488 -1.56311,0.5998 -1.5631,0.5998 0.5102,1.951 0.51019,1.951 0.77306,0.4778 0.77306,0.4778 3.57412,-1.4934 3.57411,-1.4933 h 2.20146 2.20145 l 9.43248,4.713 9.43248,4.7131 4.37624,-0.1905 4.37623,-0.1905 3.73535,-1.5607 3.73535,-1.5607 1.7866,-1.6169 1.7866,-1.6168 v -1.822 -1.8219 l 2.5059,-1.642 2.5059,-1.6419 3.05498,1.2654 3.05498,1.2654 2.47857,3.2496 2.47857,3.2496 3.48934,0.6546 3.48935,0.6546 3.22121,1.8721 3.2212,1.8721 4.69079,0.6818 4.69079,0.6819 2.6601,-2.6601 2.6601,-2.6601 -0.62444,-3.3285 -0.62443,-3.3286 1.56667,-0.6012 1.56667,-0.6012 -0.93957,-1.7648 -0.93958,-1.7648 -0.35355,-5 -0.35355,-5 2.2533,-0.32 2.2533,-0.32 2.68756,2.114 2.68755,2.1141 4.84618,7.149 4.84618,7.1491 -0.61538,2.8019 -0.61539,2.8018 2.60398,0.99 2.60397,0.99 0.52549,1.7651 0.52549,1.765 1.44888,2.831 1.44889,2.831 v 2.36 2.3599 l -0.83568,0.5165 -0.83568,0.5165 -2.63125,-0.7075 -2.63125,-0.7074 -3.11755,-4.918 -3.11754,-4.9179 0.4458,-2.3321 0.44581,-2.332 h -1.70082 -1.70081 l -1.16051,2.547 -1.16052,2.5471 -0.0136,2.2029 -0.0137,2.203 -0.56831,2.1174 -0.56832,2.1175 -4.91803,2.3035 -4.91803,2.3034 v 0.3948 0.3948 l 1.06939,1.9982 1.0694,1.9982 -0.93877,1.1861 -0.93876,1.1861 1.12114,3.8921 1.12115,3.8921 1.49822,0.7945 1.49823,0.7944 3.30128,1.5124 3.30128,1.5123 1.27627,-0.4897 1.27627,-0.4898 2.65018,1.0076 2.65018,1.0076 2.20261,2.5332 2.2026,2.5333 h 2.20715 2.20714 l 2.77495,6.5292 2.77494,6.5291 1.08758,-0.362 1.08757,-0.3621 0.34706,-1.9171 0.34707,-1.9171 0.83822,-0.8853 0.83822,-0.8853 4.06471,3.2193 4.06472,3.2193 v 2.1113 2.1112 l 2.7004,2.8186 2.70039,2.8186 -1.63299,1.633 -1.633,1.633 -6.75045,-0.1857 -6.75044,-0.1857 -1.24203,-1.7732 -1.24204,-1.7733 -4.23942,-2.9379 -4.23942,-2.9379 h -2.8355 -2.8355 v 0.635 0.6349 l 2.4754,1.622 2.4754,1.6219 -1.10686,2.4293 -1.10686,2.4293 0.56389,1.4695 0.56389,1.4695 3.00623,0.6603 3.00623,0.6602 1.40297,4.184 1.40298,4.1841 2.40836,0.1084 2.40837,0.1084 1.25,0.1416 1.25004,0.1416 2.08136,2.0813 2.08136,2.0814 1.74738,-1.5814 1.74738,-1.5813 h 2.48013 2.48013 l 1.69263,1.25 1.69262,1.25 2.07342,5.5 2.07341,5.5 0.92509,2.9934 0.92509,2.9934 v 1.2214 1.2214 l -2.08209,1.1143 -2.08208,1.1143 -3.91053,-2.71 -3.91052,-2.71 -5.92713,0.134 -5.92713,0.134 -4.33026,-4.8644 -4.33026,-4.8644 -4.65086,-2.6756 -4.65086,-2.6757 -0.5624,-2.2408 -0.5624,-2.2408 -2.92388,-2.8012 -2.92387,-2.8013 -1.99638,1.2468 -1.99638,1.2468 -1.60152,2.7111 -1.60152,2.7112 -3.56693,1.6926 -3.56693,1.6926 -0.86771,2.2823 -0.86771,2.2822 -3.33033,2.1675 -3.33032,2.1674 -4.53992,3.2287 -4.53992,3.2288 -4.03178,4.0717 -4.03179,4.0717 -5.37464,2.6783 -5.37464,2.6783 h -2.39593 -2.39592 l -2.3128,1.8192 -2.3128,1.8193 -8.42197,-1.1296 -8.42197,-1.1296 -6.11734,-3.9397 -6.11734,-3.9396 -0.0556,-1.25 -0.0556,-1.25 h 1.94709 1.94708 l 4.70185,-2.5 4.70186,-2.5 h 2.73622 2.73623 l 5.00002,1.6148 5.00002,1.6148 3.08863,-2.2835 3.08863,-2.2835 4.03115,1.3304 4.03116,1.3304 0.69986,-0.6999 0.69986,-0.6999 -1.07583,-2.8502 -1.07582,-2.8502 3.75715,-2.1116 3.75715,-2.1116 h 2.07905 2.07905 l 3.53479,-3.1036 3.5348,-3.1036 v -2.774 -2.7739 l -1.53095,-1.2706 -1.53095,-1.2706 -9.21905,2.8511 -9.21905,2.851 -13.94738,0.2951 -13.94738,0.2951 -5.32327,-1.9917 -5.32327,-1.9917 -5.52205,-0.649 -5.52205,-0.649 3.5427,3.5427 3.5427,3.5427 v 1.5648 1.5648 l -1.76064,0.9423 -1.76065,0.9422 -2.98935,-0.5376 -2.98936,-0.5377 -1.5,-1.2511 -1.5,-1.2512 -2.35312,-0.7184 -2.35312,-0.7184 -3.53643,-2.3999 -3.53642,-2.3998 h -1.46046 -1.46045 l -3.15,3.3506 -3.15,3.3506 -5.38587,6.2226 -5.38588,6.2226 -3.9821,2.5138 -3.9821,2.5138 3.7086,3.798 3.7086,3.7979 -1.09062,0.6741 -1.09063,0.674 v 4.816 4.816 l 0.625,3.125 0.625,3.125 h 3.85195 3.85194 l 1.44166,2.25 1.44165,2.25 1.17443,4.5 1.17442,4.5 1.56196,1.75 1.56197,1.75 h 2.34501 2.34501 v 1.4409 1.441 l 0.97858,0.6048 0.97857,0.6048 2.91188,-2.1528 2.91188,-2.1529 2.84352,1.3629 2.84353,1.3629 0.58217,3.4942 0.58218,3.4942 1.42439,2.25 1.42439,2.25 h 0.60447 0.60446 l 1.64585,-1.8187 1.64584,-1.8186 -3.06053,-4.826 -3.06054,-4.8259 1.52717,-1.5272 1.52718,-1.5272 1.93211,0.9218 1.93211,0.9218 6.08548,7.7035 6.08547,7.7035 -1.54651,1.5465 -1.54651,1.5465 h -1.92857 -1.92857 v 1.0354 1.0354 l 2.75,4.7887 2.75,4.7888 2.59933,3.0735 2.59932,3.0735 1.82749,0.3523 1.82749,0.3524 1.30452,3.1972 1.30452,3.1972 -1.63041,1.6304 -1.63041,1.6305 -2.10093,-0.6712 -2.10092,-0.6711 -2.82168,-0.5305 -2.82168,-0.5306 -6.09188,-9.376 -6.09189,-9.3759 h -2.76501 -2.765 l -1.45094,-1.451 -1.45093,-1.4509 -0.66581,-3.5491 -0.66581,-3.549 h -3.95468 -3.95469 v 1.0313 1.0314 l -1.43139,0.5493 -1.43139,0.5493 -3.02784,-2.2386 -3.02783,-2.2386 0.57708,-4.2102 0.57707,-4.2102 -1.16165,-0.718 -1.16166,-0.7179 -1.45619,1.2085 -1.4562,1.2086 v 2.337 2.3371 l -2.75,2.6168 -2.75,2.6167 2.25,1.5457 2.25,1.5457 v 2.6869 2.6869 l 1.25,1.5674 1.25,1.5674 6.75,3.7098 6.75,3.7098 v -4.9791 -4.9791 l 1.75,-0.677 1.75,-0.6771 2.5887,3.0891 2.5887,3.0891 1.00499,-2.2523 1.00498,-2.2522 3.05055,3.339 3.05054,3.339 1.68713,1.9756 1.68713,1.9756 -1.7852,1.9726 -1.78521,1.9726 -3.04615,-0.304 -3.04616,-0.3039 -0.82677,4 -0.82677,4 -1.36119,2.7229 -1.36118,2.7229 0.90767,3.1649 0.90767,3.1649 1.43189,1.6122 1.4319,1.6122 0.34839,5.2626 0.34839,5.2626 -1.82372,0.5782 -1.82372,0.5782 -2.92259,-1.2106 -2.92259,-1.2106 -2.98058,-6.1302 -2.98058,-6.1302 -0.68507,-6.983 -0.68507,-6.9829 -2.41135,-5.2671 -2.41134,-5.267 h -1.39151 -1.39151 l -1.03519,1.9342 -1.03518,1.9343 v 2.0572 2.0573 l 2,1.249 2,1.2491 v 1.8143 1.8143 l 1.97378,4.3327 1.97377,4.3327 -0.13675,3.6376 -0.13675,3.6376 2.66297,2.7796 2.66298,2.7795 v 3.7611 3.76102 l -0.97988,1.8309 -0.97988,1.8309 3.39489,2.5894 3.39488,2.5894 1.70062,5.1201 1.70063,5.1201 5.41288,2.3939 5.41289,2.3938 h 1.97148 1.97149 l -0.0108,-0.25 -0.0108,-0.25 -1.28765,-4.5 -1.28765,-4.5 0.35263,-2.1325 0.35262,-2.1325 3.39579,0.7659 3.39578,0.7659 0.55007,-0.5501 0.55006,-0.55 v -1.7841 -1.7842 l 1.09763,-5.118 1.09763,-5.11812 1.46828,-0.5634 1.46829,-0.5635 3.41667,3.31162 3.41667,3.3116 3.76742,0.071 3.76741,0.071 -0.20026,2.8376 -0.20026,2.8376 -1.17218,1.4124 -1.17219,1.4124 h -4.37755 -4.37756 v 0.4182 0.4182 l -0.60166,1.5679 -0.60165,1.5679 2.70987,1.0303 2.70987,1.0303 -0.65353,3.4836 -0.65353,3.4836 h 1.44832 1.44832 l 2.93531,3.6589 2.93531,3.659 1.28747,-0.7957 1.28748,-0.7957 -0.55354,-5.3633 -0.55353,-5.3632 h 1.02345 1.02346 l 2.86376,1.6917 2.86376,1.6916 1.86927,-1.6916 1.86927,-1.6917 h 1.78784 1.78783 l -0.52226,2.732 -0.52226,2.7321 1.42387,2.7535 1.42388,2.7534 2.39902,0.6021 2.39902,0.6022 5.09461,-2.3372 5.09462,-2.3372 0.5559,-1.7515 0.5559,-1.7515 2.18227,-1.1726 2.18228,-1.1726 2.98268,-0.6138 2.98267,-0.6138 1.48922,-2.6532 1.48921,-2.6532 -3.13163,-6.8094 -3.13163,-6.8093 -1.78942,-6.50002 -1.78941,-6.5 -1.70999,-3.905 -1.70998,-3.905 0.50186,-1.3078 0.50186,-1.3079 -1.54077,-4.7871 -1.54078,-4.7872 0.31654,-3.4562 0.31654,-3.4562 1.13151,-0.3771 1.13152,-0.3772 v -1.4167 -1.4166 h 2.92857 2.92857 l 1.57143,1.5714 1.57143,1.5714 v 1.2937 1.2937 l -2,2.5426 -2,2.5426 0.005,2.3423 0.005,2.3423 2.46366,4 2.46367,4 0.063,4 0.063,4 1.46819,1.9411 1.4682,1.9412 v 1.8484 1.8485 l 4.1154,4.03392 4.11541,4.0339 2.91666,-1.2081 2.91666,-1.2081 0.61022,0.6102 0.61022,0.6102 -0.0305,2.7744 -0.0305,2.7744 -0.7435,4.25 -0.7435,4.25 h -1.89971 -1.89972 l -0.47384,1.25 -0.47384,1.25 -1.42783,6.8496 -1.42783,6.8497 -2.50911,3.7915 -2.50911,3.7915 0.60883,0.6089 0.60883,0.6088 2.08334,-0.035 z m -55.7886,-0.9646 h 1.2539 l 0.61803,-1 0.61803,-1 h -2 -2 l -0.61471,-0.9946 -0.61471,-0.9946 -2.1943,-1.135 -2.19431,-1.135 2.93709,3.1296 2.93709,3.1296 z m 107.41382,-33 h 0.82791 l 2.45401,-0.933 2.45401,-0.933 3.72966,-3.2747 3.72966,-3.2747 2.38143,-3.77242 2.38143,-3.7725 v -1.3648 -1.3649 l -1.96275,-1.7763 -1.96276,-1.7763 -1.64987,0.6332 -1.64987,0.6331 1.23507,1.4881 1.23507,1.4882 h -1.0182 -1.0182 l -3.2356,5.0422 -3.2356,5.04232 -2.80523,1.4506 -2.80524,1.4507 -0.56665,0.9168 -0.56666,0.9169 0.61023,1.5903 0.61024,1.5902 z M 93.05766,680.6675 l 0.36459,-0.3162 -2.61459,-4.678 -2.6146,-4.678 v -3.8151 -3.815 l -1,-0.618 -1,-0.6181 v -1.941 -1.9409 l -2,-2 -2,-2 -0.75,0.028 -0.75,0.028 -2.18546,4.337 -2.18546,4.3371 0.95887,0.9589 0.95887,0.9589 0.37293,1.9364 0.37293,1.9365 2.26113,4.6541 2.26112,4.6541 1.41396,-1.4139 1.41397,-1.414 h 0.85251 0.85251 l 2.32606,2.8682 2.32606,2.8682 0.3646,-0.3161 z m 165.96601,-3.4203 h 0.88196 l 2.6118,-5.75 2.6118,-5.75 -3.96809,-1.709 -3.96808,-1.709 -0.0153,-1.291 -0.0153,-1.291 -0.96937,1.5 -0.96937,1.5 -0.0153,1.5307 -0.0153,1.5308 3,1.1324 3,1.1323 v 1.6366 1.6365 l -1.52568,2.9504 -1.52568,2.9503 h 0.88197 z m 19.13977,-3.9842 1.69411,-0.9066 1.1946,-1.4394 1.19459,-1.4394 -3.27684,-2.0876 -3.27684,-2.0876 -1.47742,3.0695 -1.47742,3.0695 1.86556,1.3641 1.86556,1.3642 z m -19.30094,-20.2473 1.25969,-2.2685 0.0354,-2.691 0.0354,-2.691 -0.79399,-0.4907 -0.794,-0.4907 -3.206,2.0299 -3.20601,2.0299 v 0.597 0.5971 l 2.70488,2.8233 2.70488,2.8233 1.25968,-2.2686 z m 10.29918,-2.7685 h 2.03138 v -1.5306 -1.5305 l 3.5,-3.0731 3.5,-3.073 v -2.4622 -2.4621 l 1.09977,-2.055 1.09977,-2.0549 -1.12786,0.6971 -1.12785,0.697 -2.98187,-6.5764 -2.98187,-6.5763 h -1.01148 -1.01149 l -1.14297,2.5085 -1.14297,2.5086 1.36286,2.5465 1.36286,2.5465 -1.30247,3.1949 -1.30248,3.195 -0.93686,5.4222 -0.93686,5.4223 0.5095,1.3277 0.5095,1.3278 z m -204.9096,-10 h 0.94098 l -0.0153,-4.75 -0.0153,-4.75 -0.87288,-1.3782 -0.87288,-1.3781 -1.15978,0.7168 -1.15978,0.7168 0.67539,4.6613 0.67539,4.6614 0.4316,0.75 0.4316,0.75 h 0.94099 z m 9.92634,-12.6828 0.71979,-0.8172 1.24323,-4.628 1.24322,-4.628 -1.70457,-7.0133 -1.70457,-7.0132 -1.89123,1.8912 -1.89123,1.8913 H 69.3155 68.43795 l -1.22035,-1.4705 -1.22035,-1.4704 0.68375,-4.9714 0.68374,-4.9715 -0.6764,-2.1311 -0.67641,-2.1312 -1.89482,1.7148 -1.89482,1.7148 0.35945,5.6082 0.35946,5.6083 0.75497,1.8074 0.75497,1.8075 1.37096,-0.5261 1.37096,-0.5261 1.51584,0.5817 1.51584,0.5817 -0.083,3.6369 -0.083,3.637 0.9329,4.5 0.9329,4.5 0.76707,1.8172 0.76708,1.8172 0.71979,-0.8172 z m 256.56979,-28.7235 1.37272,-1.8774 0.28607,-0.6784 0.28606,-0.6785 3.93109,-1.9297 3.93109,-1.9297 0.96083,-1.5868 0.96082,-1.5868 -0.68723,-3.6632 -0.68723,-3.6632 h -1.33832 -1.33833 l -3.61636,4.0028 -3.61636,4.0029 -0.0435,1.2471 -0.0435,1.2472 -0.86524,4.4855 -0.86524,4.4855 1.37273,-1.8773 z m -7.93694,-6.5937 h 0.21822 l 1.58178,-0.607 1.58179,-0.607 v -1.7706 -1.7705 l -1.48727,-1.2344 -1.48726,-1.2343 -1.51274,0.5805 -1.51273,0.5805 v 1.8314 1.8314 l 1.2,1.2 1.2,1.2 z m -278.29714,-2.6093 0.97129,-1.7356 -2.25696,-1.8276 -2.25697,-1.8275 h -0.9244 -0.9244 l 1.16787,2.25 1.16787,2.25 1.0422,1.3132 1.0422,1.3131 z m 283.32815,-17.7066 0.31589,-0.3159 0.48611,-3.9341 0.4861,-3.9341 3.53138,-3 3.53139,-3 -5e-5,-3.7997 -4e-5,-3.7997 1.57209,-3.04 1.57209,-3.0401 1.8242,1.6508 1.8242,1.6509 0.44376,-1.3111 0.44376,-1.3111 -2.51623,-3.8155 -2.51624,-3.8154 -2.79417,-1.4449 -2.79417,-1.4449 -1.0525,-1.9667 -1.0525,-1.9666 1.2634,-2.023 1.2634,-2.023 h 0.7364 0.7364 l 1.63807,2.5 1.63806,2.5 h 0.76836 0.76836 l 0.5425,-2.0746 0.54249,-2.0745 -1.43937,-5.5261 -1.43937,-5.5261 -2.2365,-1.8661 -2.23649,-1.8661 -1.3379,-0.033 -1.3379,-0.033 0.66967,3.9637 0.66966,3.9637 -2.59015,2.5901 -2.59014,2.5902 -0.99162,-0.6129 -0.99162,-0.6128 v -1.5143 -1.5143 l -1.75,0.3318 -1.75,0.3319 -0.32711,2.8522 -0.32711,2.8522 -3.95323,1.5528 -3.95324,1.5529 2.4773,2.5864 2.47729,2.5864 1.50588,3.605 1.50589,3.605 3.54716,3.1144 3.54717,3.1145 v 1.5453 1.5452 l -3.23466,1.9671 -3.23465,1.9671 -0.87942,-2.2318 -0.87941,-2.2318 -0.4098,1.0716 -0.40979,1.0716 2.47059,5.5865 2.4706,5.5864 1.05327,0.651 1.05327,0.6509 v 2.2744 2.2743 l 0.66667,0.6666 0.66666,0.6667 0.31589,-0.3159 z m -183.08288,-25.7159 1.06634,0.032 5.43366,-0.9745 5.43366,-0.9745 8.70954,-0.4415 8.70955,-0.4415 0.99678,-0.616 0.99678,-0.6161 -0.56331,-1.468 -0.56332,-1.4679 h -7.42513 -7.42513 l -3.33914,1.3951 -3.33914,1.3952 -6.62874,-0.5321 -6.62874,-0.5321 v 1.2767 1.2767 l 1.75,1.3284 1.75,1.3285 1.06634,0.032 z m 30.18366,-18.0778 3.25,0.1096 v -0.6713 -0.6713 l -1.62128,-1.7914 -1.62128,-1.7915 0.58989,-1.5373 0.5899,-1.5372 h 3.08776 3.08775 l 2.69363,2.8746 2.69363,2.8746 2.18426,1.1254 2.18426,1.1254 h 3.92925 3.92925 l 5.31022,-1.0071 5.31022,-1.0071 0.53719,-0.5372 0.53719,-0.5371 -2.96092,-2.4611 -2.96092,-2.4611 -2,0.3767 -2,0.3768 -1.56015,0.6627 -1.56015,0.6627 -3.67587,-2.4945 -3.67587,-2.4945 -1.04917,1.9604 -1.04916,1.9604 -1.21481,-0.01 -1.21482,-0.01 -4.75,-4.0714 -4.75,-4.0713 v -1.4222 -1.4222 l 2,-2 2,-2 v -0.4786 -0.4785 l -2.49594,1.1372 -2.49594,1.1372 -2.01019,-1.8192 -2.01019,-1.8192 -0.61046,0.6105 -0.61046,0.6104 3.11659,5.0651 3.11659,5.0651 v 0.4593 0.4593 l -2.95034,1.5257 -2.95034,1.5257 h -1.95542 -1.95543 l -3.09423,-4.6715 -3.09424,-4.6714 -0.004,-1.0786 -0.004,-1.0785 -2.06447,-3.3864 -2.06448,-3.3863 -4.05258,3.8863 -4.05257,3.8864 -2.87921,3.9 -2.87921,3.9001 0.008,1.5999 0.008,1.6 4.01673,2.2939 4.01673,2.2939 1.0496,-0.6487 1.0496,-0.6487 2.29554,2.1566 2.29555,2.1565 2.38043,-0.5694 2.38042,-0.5694 4.5,0.9081 4.5,0.908 3.25,0.1096 z m 49.50847,-3.9694 0.75848,0.079 -1.25848,-2.25 -1.25847,-2.25 -0.17464,-0.3413 -0.17464,-0.3413 -2.07536,0.6587 -2.07536,0.6587 v 0.8493 0.8492 l 2.75,1.0044 2.75,1.0044 0.75847,0.079 z m 122.8064,-11.0383 0.59967,-2.3827 -0.43926,-1.25 -0.43926,-1.25 h -1.9604 -1.9604 l 0.68978,2.25 0.68978,2.25 1.11021,1.3827 1.11021,1.3827 z m -143.72829,-0.8827 h 1.38608 l -0.4919,-2.75 -0.4919,-2.75 -1.49271,-1.715 -1.4927,-1.715 0.49137,-2.5704 0.49137,-2.5705 -1.86809,-0.9997 -1.8681,-0.9998 v -4.4648 -4.4648 h -1.06739 -1.06739 l 0.69567,2.1918 0.69567,2.1919 -2.77262,2.2108 -2.77262,2.2108 0.61295,1.5973 0.61296,1.5974 h 2.89972 2.89971 l 0.53047,3.75 0.53047,3.75 1.07645,2.75 1.07645,2.75 z m 139.33009,-5.3334 0.66666,-0.6666 -0.66666,-0.6667 -0.66667,-0.6667 v 1.3334 1.3333 z m 51.48432,-107.6666 h 1.84901 v -0.9708 -0.9708 l 3.08772,-4.3805 3.08772,-4.3806 1.70845,-10.3987 1.70845,-10.3986 -3.54617,-0.2769 -3.54617,-0.2769 -2.3151,-1.1769 -2.3151,-1.177 -1.6849,1.0776 -1.6849,1.0776 0.1794,3.3762 0.1794,3.3763 0.72159,12.75 0.72159,12.75 z m 11.61245,-42.5 0.98822,-1 0.52934,-6.25 0.52934,-6.25 h -0.87037 -0.87038 l -3.41681,-3 -3.41681,-3 h -1.22497 -1.22498 l 0.72224,1.75 0.72224,1.75 0.82188,3.4382 0.82188,3.4381 3.10244,2.8995 3.10243,2.8995 -0.65196,2.1623 -0.65196,2.1624 z m -86.16906,-266.725 2.3155,-1.055 2.97134,1.2308 2.97134,1.2307 2.08824,-0.6627 2.08824,-0.6628 -0.57354,-0.928 -0.57353,-0.928 h -4.71848 -4.71848 l -2.4725,-1.6493 -2.47251,-1.6493 -3.75,-3.5537 -3.75,-3.5536 v -2.6304 -2.6304 l -0.62702,-0.627 -0.62701,-0.627 -3.49511,1.4603 -3.49511,1.4604 h -3.40926 -3.40926 l -0.38367,-1.25 -0.38367,-1.25 -0.55111,-4.6427 -0.5511,-4.6427 2.89386,-1.1987 2.89387,-1.1987 1.70842,-1.8878 1.70841,-1.8877 -1.7177,-0.6592 -1.71769,-0.6591 -3.80458,2.1383 -3.80458,2.1383 h -1.3916 -1.39161 l -1.75619,2.051 -1.75619,2.0511 -5.14728,-0.3011 -5.14728,-0.301 -0.26709,-4.6705 -0.26709,-4.6704 1.44832,-1.202 1.44832,-1.202 v -0.7609 -0.761 l -2,-0.523 -2,-0.523 -0.0318,-2.3436 -0.0318,-2.3436 -1.36188,-1.7958 -1.36188,-1.7957 -2.68629,0.6742 -2.6863,0.6742 -1.07966,2.3696 -1.07967,2.3696 -3.84035,1.6944 -3.84036,1.6944 v 0.8075 0.8076 h 1.57946 1.57945 l -0.64215,2.9237 -0.64216,2.9237 3.16017,2.3263 3.16017,2.3263 1.3825,2.6616 1.38251,2.6616 2.02535,-0.5296 2.02535,-0.5297 1.59429,1.3232 1.59429,1.3231 2.65038,-0.1882 2.65039,-0.1883 4.5,1.354 4.5,1.3541 -0.3282,3.6291 -0.32821,3.6291 h 1.01919 1.01919 l 0.61803,-1 0.61803,-1 h 0.79267 0.79267 l 3.07799,2.9415 3.078,2.9415 3.82032,0.6122 3.82032,0.6123 1.5,0.9405 1.5,0.9404 4.88944,2.9208 4.88944,2.9208 2.3155,-1.055 z m -240.34438,-9.9453 1.75,-0.9001 V 77.712 76.2472 h 0.89301 0.89301 l 0.57561,1.5 0.5756,1.5 h 2.0904 2.0904 l -0.61803,-1 -0.61803,-1 h 2.24456 2.24457 l 2.24559,-2.1097 2.24559,-2.1096 6.4421,-0.5171 6.4421,-0.5171 -0.49127,-1.8786 -0.49126,-1.8786 1.21851,-1.4682 1.21851,-1.4682 3.64951,-0.6138 3.64952,-0.6138 1.75,-0.48 1.75,-0.4801 v -1.3652 -1.3653 l 2.10066,-0.6667 2.10067,-0.6667 1.07221,1.0722 1.07221,1.0722 -1.17288,2.5742 -1.17287,2.5742 v 1.4529 1.453 h 1.48095 1.48095 l 0.62746,-2.5 0.62746,-2.5 h 0.83257 0.83258 l 0.62243,1.0071 0.62242,1.0071 2.92348,1.5118 2.92347,1.5118 3.63524,-1.5189 3.63524,-1.5189 h 1.94526 1.94527 l -0.64718,-2.0391 -0.64718,-2.0391 2.82979,0.6673 2.82979,0.6673 0.5,0.1156 0.5,0.1155 3.7809,-2.3444 3.78089,-2.3444 2.45092,0.6151 2.45091,0.6151 1.48121,2.8644 1.4812,2.8643 1.6575,0.636 1.65751,0.6361 -0.54324,-2.0774 -0.54324,-2.0773 2.92272,0.6419 2.92272,0.642 V 62.997 61.588 l 5.5,-6.0777 5.5,-6.0777 v -1.6142 -1.6141 l -2.55265,-1.1631 -2.55265,-1.163 -2.84855,1.6826 -2.84855,1.6827 -4.8488,-0.106 -4.8488,-0.1059 -5.32281,0.742 -5.32282,0.742 -2.89049,-2.137 -2.8905,-2.1371 -1.07187,2.0029 -1.07188,2.0028 h -1.55452 -1.55452 l -1.87703,-2.25 -1.87702,-2.25 -0.0333,3.25 -0.0332,3.25 h -0.93261 -0.93261 l -0.63478,2 -0.63478,2 h -1.90275 -1.90275 l -2.27986,-3.9923 -2.27986,-3.9923 -1.10212,-0.01 -1.10211,-0.01 -3.39789,2.4678 -3.39788,2.4679 -6.5,4.4168 -6.5,4.4169 -2.26452,0.6873 -2.26452,0.6873 0.5908,0.9559 0.59081,0.9559 -2.32629,1.9388 -2.32628,1.9388 -1.71482,0.033 -1.71481,0.033 -1.14156,-2.133 -1.14155,-2.133 -2.33744,2.883 -2.33744,2.883 -4.15154,-2.3347 -4.15154,-2.3347 -2.49966,2.3347 -2.49967,2.3347 -1.40498,2.7004 -1.40499,2.7003 v 2.9663 2.9664 l 1.25,0.4482 1.25,0.4482 1.75,-0.9001 z m 117.69458,-6.8297 h 0.68124 l 2.93709,-3.1067 2.93709,-3.1067 5.10491,-2.9069 5.10491,-2.9069 4.23023,-5.0168 4.23022,-5.0168 2.91487,3.6679 2.91486,3.6679 v 1.8872 1.8873 l 2.5651,0.9752 2.5651,0.9753 h 0.49392 0.49391 l -0.5733,-0.9277 -0.5733,-0.9276 2.32081,-2.6981 2.32081,-2.6981 3.04343,1.5738 3.04343,1.5738 3.40005,-2.8653 3.40004,-2.8654 -2,-0.6351 -2,-0.6352 -4.23385,-2.078 -4.23384,-2.0779 -3.89159,0.6223 -3.8916,0.6223 -2.59657,-2.0425 -2.59657,-2.0425 -3.53895,0.6639 -3.53895,0.664 -1.44003,-1.1952 -1.44003,-1.1951 -0.68024,-4.5361 -0.68024,-4.5362 -4.40909,0.6043 -4.4091,0.6044 -1.96132,1.0496 -1.96133,1.0497 -1.56972,3.7139 -1.56971,3.714 -1.36684,9.0012 -1.36685,9.0013 0.56988,4.2487 0.56988,4.2488 z m 42.55542,-7 h 0.5 v -0.5 -0.5 h -0.5 -0.5 v 0.5 0.5 z m -66.11539,642.77362 -3.11538,0.9566 -1.63462,-0.9148 -1.63461,-0.9148 v -2.4817 -2.4817 l 1.33635,-0.5128 1.33636,-0.5128 0.0422,-8.9928 0.0422,-8.99292 1.87147,-2.065 1.87146,-2.0651 0.33848,-10.8979 0.33847,-10.8979 h 1.91153 1.91152 v 2.0563 2.0564 l 2.98542,2.7268 2.98542,2.7267 -0.6236,8.0868 -0.6236,8.0867 1.63818,3.2838 1.63818,3.2838 v 3.28302 3.283 l -3.24305,0.3133 -3.24304,0.3134 -1.37039,2.8728 -1.37039,2.8728 -0.13656,2.2858 -0.13657,2.2857 -3.11539,0.9565 z m -21.27999,-15.5112 -2.02418,0.5293 -3.29022,-1.75802 -3.29022,-1.758 -0.31984,-2.1401 -0.31984,-2.14 -1.99722,-1.0689 -1.99722,-1.0688 -2.38677,1.5638 -2.38677,1.5639 -2.29617,-0.8867 -2.29617,-0.8867 -2.38194,-2.561 -2.38193,-2.561 -0.11807,-3.7951 -0.11806,-3.7951 2.40962,-0.3405 2.40962,-0.3405 0.89007,1.5905 0.89007,1.5905 h 1.57531 1.57531 l -0.76719,-3.25 -0.76719,-3.25 -0.10781,-2.975 -0.10781,-2.975 1.9543,-0.3877 1.95429,-0.3877 2.16647,2.717 2.16648,2.7171 2.10627,-1.1273 2.10628,-1.1272 4.173,3.0229 4.17299,3.0229 h 0.84996 0.84996 v -1.9433 -1.9433 l 2.21899,-1.5543 2.219,-1.5542 1.72513,4.2475 1.72513,4.2476 0.0559,3.0757 0.0559,3.0757 -2.41492,2.2687 -2.41493,2.2687 -2.33507,-0.7263 -2.33508,-0.7262 -4.70097,-5.0838 -4.70097,-5.0839 -0.56198,0.562 -0.56198,0.5619 2.45803,5.5581 2.45802,5.558 3.80493,1.2165 3.80492,1.2165 0.89865,0.8279 0.89866,0.8278 -1.58425,2.4179 -1.58426,2.41792 -2.02418,0.5293 z m 60.39008,-3.26242 h -1.35184 l -1.57143,-1.5714 -1.57143,-1.5715 v -1.9943 -1.9943 l 1.12219,-2.1842 1.12218,-2.1843 2.56491,-2.75 2.5649,-2.75 h 0.95267 0.95266 l 1.32844,1.75 1.32844,1.75 0.0318,4.1611 0.0318,4.1611 -3.07673,2.5889 -3.07672,2.5889 h -1.35185 z m 17.73005,-16 h -0.82475 l -1.2,-1.2 -1.2,-1.2 v -0.9534 -0.9534 l -4.93454,-5.2175 -4.93455,-5.2176 -1.63641,-5.6291 -1.63642,-5.629 h -2.29526 -2.29527 l -3.63378,-4.6641 -3.63377,-4.6642 v -0.8358 -0.8359 l 2.04687,-1.75 2.04687,-1.75 2.67582,-2.75 2.67581,-2.75 h 1.21066 1.21066 l 5.10764,4.975 5.10763,4.975 0.37365,-1.225 0.37364,-1.225 1.47473,-4.6034 1.47472,-4.6034 -0.48111,-2.5168 -0.48111,-2.5168 3.24098,-1.1298 3.24099,-1.1298 h 0.23331 0.23332 l 4.11746,6.3197 4.11746,6.3197 v 2.0198 2.0197 l -2.31403,1.0544 -2.31403,1.0543 -1.69389,-0.9479 -1.69389,-0.948 -1.10458,0.6827 -1.10458,0.6827 0.51499,16.0628 0.51498,16.0628 -0.87773,2.3086 -0.87774,2.3087 z m -70.85593,-14 h -2.68068 l -4.89547,-5.25 -4.89547,-5.25 -1.9486,-3.9379 -1.9486,-3.9378 v -0.8122 -0.8121 h 1.97798 1.97797 l -2.93618,-4.6299 -2.93618,-4.6299 -0.66521,-4.436 -0.66522,-4.436 0.87342,-1.9484 0.87342,-1.9485 3.66167,2.4904 3.66167,2.4903 1.58913,4.774 1.58913,4.774 3.7492,2 3.7492,2 0.29965,5.7414 0.29964,5.7413 1.95036,1.0438 1.95035,1.0438 v 2.3997 2.3998 l -0.97525,2.5651 -0.97525,2.5651 z m -4.18173,-13 h 0.81291 l -0.0153,-1.25 -0.0153,-1.25 -0.7447,-1.1708 -0.7447,-1.1707 -2.98999,-0.7148 -2.98998,-0.7149 2.93709,3.1356 2.93709,3.1356 h 0.81291 z m 19.06978,2 h -1.87461 l -1.56344,-1.25 -1.56344,-1.25 -6.15116,-7.8451 -6.15116,-7.845 -1.46945,-2.8416 -1.46946,-2.8416 0.58531,-1.5253 0.5853,-1.5253 1.83238,-0.5816 1.83238,-0.5815 -2.3373,-5.2065 -2.3373,-5.2065 -1.25354,-5.7811 -1.25353,-5.781 3.27742,-3.3815 3.27742,-3.3814 1.67595,-0.4383 1.67595,-0.4382 2.21271,0.8185 2.2127,0.8185 v 1.1245 1.1245 l -2,2.5426 -2,2.5426 v 1.8493 1.8494 l 2.80884,3.1436 2.80883,3.1437 2.0587,-1.2857 2.0587,-1.2857 1.67762,0.6438 1.67762,0.6437 1.55443,3.7641 1.55443,3.7641 1.56095,1.7561 1.56095,1.7561 -0.61566,0.6157 -0.61567,0.6157 2.51385,4.9608 2.51385,4.9608 -0.30872,2.1674 -0.30872,2.1674 -4.22755,-0.085 -4.22755,-0.085 0.64126,2.5846 0.64126,2.5847 1.33524,3.2153 1.33525,3.2154 -1.93322,1.0346 -1.93321,1.0347 h -1.87461 z m 1.99313,-15.7605 0.75,-0.3576 v -1.4476 -1.4476 l -2.5,-2.1737 -2.5,-2.1737 -0.0354,-1.5697 -0.0354,-1.5696 -1.32205,-2.3851 -1.32205,-2.3851 -0.57653,0.9328 -0.57653,0.9329 0.9187,1.4522 0.9187,1.4523 0.0153,2.6871 0.0153,2.6872 2.75,2.8614 2.75,2.8614 0.75,-0.3576 z m 14.97695,15.7204 -1.72695,-0.04 -2.63143,-1.4297 -2.63142,-1.4298 -0.62182,-1.6204 -0.62182,-1.6205 0.50512,-0.8173 0.50512,-0.8173 4.9021,-3.5218 4.90211,-3.5218 0.57781,0.5778 0.57781,0.5778 -0.56682,2.2584 -0.56682,2.2584 1.1561,2.1602 1.1561,2.1602 -1.59412,2.433 -1.59413,2.4329 -1.72694,-0.04 z m 101.97336,-14.0501 -0.70031,-0.09 -3.25,-0.9384 -3.25,-0.9384 0.004,-0.7214 0.004,-0.7214 1.98156,-3.25 1.98156,-3.25 h 1.39226 1.39225 l 0.97801,1.25 0.97802,1.25 0.51367,2.1079 0.51367,2.108 -0.91893,1.642 -0.91893,1.6421 -0.70031,-0.09 z m -91.95031,-1.9949 -2.75,-0.085 -5.35852,-1.2962 -5.35852,-1.2962 -2.51285,-2.5128 -2.51284,-2.5129 2.12136,-0.6733 2.12137,-0.6733 v -3.8101 -3.8102 l 1.49499,-1.2407 1.495,-1.2408 2.6482,1.7352 2.64819,1.7352 4.35681,4.3568 4.35681,4.3568 v 3.5263 3.5263 l -2.75,-0.085 z m 94.30187,-36.9149 h -1.20324 l -2.21165,-2.3542 -2.21165,-2.3542 -2.35217,0.4496 -2.35216,0.4497 -2.6105,-1.7105 -2.6105,-1.7105 v -1.73 -1.73 l 1.82874,-1.6549 1.82874,-1.655 h 1.19031 1.19031 l -0.53321,-2.25 -0.53322,-2.25 -0.83455,-4.6313 -0.83455,-4.6313 1.18197,-2.2085 1.18197,-2.2086 3.08046,3.0805 3.08047,3.0804 1.67494,4.7594 1.67494,4.7594 0.98915,1.861 0.98916,1.861 0.82172,5.139 0.82172,5.139 -1.02198,1.25 -1.02198,1.25 z m 8.51622,-12 h -1.9319 l -1.92929,-2.75 -1.92929,-2.75 -1.30142,-4 -1.30143,-4 -0.27407,-2.5 -0.27408,-2.5 -1.17556,-6.2449 -1.17557,-6.2448 0.61676,-3.2876 0.61677,-3.2877 3.19388,-1.2055 3.19389,-1.2056 0.78629,1.238 0.7863,1.2381 0.0136,1.5 0.0136,1.5 0.48074,12.8981 0.48074,12.8981 1.52095,1.6806 1.52096,1.6806 v 2.6713 2.6713 h -1.93191 z m -28.98083,-5 h -1.84237 l -1.01514,-1.25 -1.01514,-1.25 -0.36451,-4.75 -0.36451,-4.75 h 1.5347 1.5347 l 2.10824,1.4766 2.10824,1.4767 0.63847,2.5439 0.63846,2.5438 -1.05938,1.9795 -1.05939,1.9795 z m 36.66745,-67.1947 -1.56824,0.3054 -0.56134,-0.9083 -0.56135,-0.9083 -1.09706,-7.0707 -1.09706,-7.0707 1.47944,-2.8609 1.47944,-2.8609 0.71546,-3.8138 0.71547,-3.8138 -1.87974,0.3893 -1.87973,0.3893 0.23821,2.2091 0.23821,2.209 h -3.03924 -3.03923 l -1.44898,-3.4679 -1.44897,-3.4679 v -1.5091 -1.509 l 2.55389,-1.6734 2.5539,-1.6734 4.09348,3.9003 4.09349,3.9004 -0.71754,-2 -0.71755,-2 -1.10128,-5 -1.10128,-5 -1.56124,-1.8359 -1.56124,-1.8358 3.48269,-2.8873 3.48268,-2.8872 1.17054,-0.027 1.17055,-0.027 0.63769,3.25 0.6377,3.25 1.09691,2.2241 1.09692,2.2242 -1.15643,8.2758 -1.15643,8.2759 -0.0748,9 -0.0748,9 -1.26244,3.5 -1.26245,3.5 -1.56824,0.3053 z m 17.63474,-51.8053 h -1.48036 l -2.45454,-2.4546 -2.45455,-2.4545 v -4.3544 -4.3543 l 1.4682,-1.9411 1.46819,-1.9411 0.0318,-3.1276 0.0318,-3.1275 1.37325,-1.1397 1.37325,-1.1397 1.42967,0.5486 1.42967,0.5486 1.71024,2.8952 1.71025,2.8952 3.48683,2.155 3.48684,2.155 v 0.7223 0.7222 l -3.56436,3.4462 -3.56436,3.4462 0.4395,2.3222 0.43949,2.3222 -2.44023,0.9278 -2.44024,0.9278 h -1.48035 z m -118.46164,-20 h -1.85822 l -3.53479,-3.1036 -3.5348,-3.1036 v -1.7221 -1.7221 l 2.31445,-2.1743 2.31445,-2.1743 h 1.09666 1.09665 l 2.5889,3.0767 2.58889,3.0767 v 2.3415 2.3415 l -0.60699,1.5818 -0.60699,1.5818 z m 130.46337,-9.5644 -2.10881,0.6095 -1.08335,-1.3053 -1.08334,-1.3054 -1.05128,-2.765 -1.05127,-2.7651 1.44241,-3.4522 1.44241,-3.4521 h 1.18295 1.18295 l 3.36807,3.5712 3.36808,3.5712 v 1.318 1.318 l -1.75,2.0239 -1.75,2.0239 z m 3.06055,-15.4356 h -1.54828 l -1.34835,-3.2068 -1.34836,-3.2068 0.89747,-2.3605 0.89748,-2.3606 1.06889,-1.9972 1.0689,-1.9973 1.40951,1.1698 1.40951,1.1698 1.52075,3.0484 1.52075,3.0484 v 1.3464 1.3464 l -2,2 -2,2 z m -156.51317,-50.0124 -0.56144,0.012 -2.18856,-2.039 -2.18856,-2.0389 v -1.9053 -1.9053 l 2.25256,-2.6188 2.25256,-2.6187 2.8289,2.9527 2.82891,2.9528 -2.33147,3.5978 -2.33146,3.5979 -0.56144,0.012 z m 63.99572,-2.0551 -4.43428,-0.067 -4.84065,-1.301 -4.84065,-1.3009 -2.15935,-2.1626 -2.15935,-2.1627 v -8.2189 -8.2189 l -3.34954,0.1582 -3.34954,0.1583 -2.65046,2.4881 -2.65046,2.488 -5.24784,2.2259 -5.24784,2.2259 -2.94438,-1.2196 -2.94439,-1.2196 3.80743,-3.6526 3.80742,-3.6526 3.70414,-2.25 3.70414,-2.25 h 1.43428 1.43429 l 3.73157,-2 3.73156,-2 h 1.26481 1.26481 v -0.893 -0.8931 l -1.58179,-0.6069 -1.58178,-0.607 h -3.84679 -3.84678 l -1.39247,1.3924 -1.39247,1.3925 -5.42896,2.7735 -5.42896,2.7735 -5.5,1.7018 -5.5,1.7018 -1.59556,3.2813 -1.59556,3.2813 -3.6855,1.8907 -3.68549,1.8908 -0.98686,-0.6099 -0.98687,-0.6099 0.20304,-7.6799 0.20304,-7.6799 -1.03515,-3.5 -1.03514,-3.5 -3.04773,-6.5 -3.04772,-6.5 -1.18362,-7.8353 -1.18361,-7.8353 0.61213,-0.6122 0.61213,-0.6121 2.80474,1.6568 2.80474,1.6568 1.9145,-1.2808 1.91449,-1.2807 4.8934,0.1323 4.8934,0.1324 2.305,2.8907 2.30499,2.8908 2.61603,-2.8228 2.61603,-2.8227 4.76572,0.4579 4.76572,0.4579 -0.42431,-2.2196 -0.42432,-2.2197 0.84417,-0.5099 0.84417,-0.5098 4.77584,-0.639 4.77583,-0.6389 3.94052,1.0611 3.94052,1.061 1.88272,-1.1757 1.88271,-1.1758 2.57386,0.646 2.57386,0.646 3.1374,2.6399 3.13741,2.64 1.13967,-1.1397 1.13966,-1.1396 h 6.8 6.8 v -1.441 -1.441 l 0.97933,-0.6053 0.97934,-0.6052 2.11501,1.1319 2.11502,1.1319 2.34973,-2.2074 2.34973,-2.2075 3.73717,0.7011 3.73717,0.7011 4.3149,4.6707 4.3149,4.6707 0.5705,1.7476 0.5705,1.7477 2.68335,0.5478 2.68335,0.5478 3.63137,0.9591 3.63138,0.9592 1.20124,1.4474 1.20125,1.4474 -0.64927,2.0457 -0.64927,2.0456 -2.52027,0.6326 -2.52028,0.6325 -4.77676,-2.2373 -4.77676,-2.2373 -4.39905,1.9459 -4.39904,1.9459 -4.48727,-2.8199 -4.48727,-2.82 -1.09501,-0.019 -1.09501,-0.019 -1.8938,2.0927 -1.8938,2.0926 -1.81329,0.9704 -1.81328,0.9705 -5.0126,-1.665 -5.01259,-1.6649 -3.68531,0.6482 -3.68531,0.6482 -4.5,0.5506 -4.5,0.5506 -0.74073,0.6938 -0.74073,0.6938 1.54743,2.2093 1.54744,2.2092 h 1.63954 1.63955 l 3.65672,2.5341 3.65672,2.5342 9.39703,1.0252 9.39703,1.0252 5.30095,1.359 5.30095,1.3591 2.44905,1.6047 2.44905,1.6046 v 0.882 0.8819 l 4.42807,2.595 4.42807,2.595 h 2.07193 2.07193 v -0.9409 -0.941 l -1,-0.6181 -1,-0.618 v -2.3736 -2.3736 l 1.85912,-0.5901 1.85913,-0.59 1.61228,0.6187 1.61229,0.6187 4.00279,-1.846 4.00279,-1.8461 0.0258,-2.1275 0.0258,-2.1276 1.43468,-1.1907 1.43467,-1.1906 3.31533,0.3182 3.31532,0.3182 0.33036,2.3325 0.33036,2.3325 -1.387,1.6675 -1.387,1.6675 -1.17192,2.75 -1.17192,2.75 h -2.33623 -2.33623 l -1.69907,3.563 -1.69907,3.563 -1.98614,-0.563 -1.98614,-0.5629 -2,-0.5674 -2,-0.5674 v 0.5252 0.5253 l 4.25,2.4238 4.25,2.4239 2.75,0.6373 2.75,0.6374 v 2.8585 2.8585 l -1.41077,1.1708 -1.41077,1.1708 -3.56986,0.5794 -3.56987,0.5793 -2.48418,-1.6277 -2.48418,-1.6277 h -1.66711 -1.66711 l -3.29977,3.4987 -3.29978,3.4988 -2.74202,1.0425 -2.74203,1.0426 -2.89683,-0.6363 -2.89683,-0.6362 0.69357,-1.6551 0.69356,-1.655 1.10714,-2.779 1.10715,-2.7789 -2.98016,-2.4351 -2.98015,-2.4351 -2.26261,-0.036 -2.26261,-0.036 -2.36717,5.3526 -2.36718,5.3526 -4.43594,2.1474 -4.43594,2.1474 -4.43427,-0.068 z m -97.4709,-66.1409 -2.03661,0.2915 -2.13645,-2.2915 -2.13645,-2.2916 -1.71996,-7.5 -1.71996,-7.5 -1.95843,-1.7425 -1.95844,-1.7424 1.58315,-0.6075 1.58314,-0.6076 -0.98168,-1.8343 -0.98169,-1.8343 v -0.5657 -0.5657 h 4.34501 4.34501 l 1.49987,1.75 1.49986,1.75 1.40513,4 1.40512,4 v 8.5 8.5 z" />
</svg>
