<?xml version="1.0" encoding="UTF-8" standalone="no"?>
<svg
   version="1.1"
   viewBox="0 0 1349 742.74719"
   xmlns="http://www.w3.org/2000/svg"
   xmlns:svg="http://www.w3.org/2000/svg">
  <path d="m 173.7784,268.1164 -14.2784,-0.1308 -8,-0.9014 -8,-0.9014 -8.38484,-1.9811 -8.38485,-1.9811 -6.11515,-2.9221 -6.11516,-2.9221 -3.39777,-3.3146 -3.39778,-3.3146 -1.35222,-3.2179 L 105,243.3114 v -4.2615 -4.2614 l 3.12779,-4.5207 3.12779,-4.5206 7.89829,-6.2488 7.8983,-6.2488 6.01365,-3.0357 6.01366,-3.0356 0.96026,0.5934 0.96026,0.5935 v -1.118 -1.1181 l 0.91938,0.5682 0.91938,0.5682 1.35443,-1.2591 1.35443,-1.2592 1.47619,-0.325 1.47619,-0.325 0.31461,-0.8689 0.31461,-0.8688 1.18539,0.4381 1.18539,0.438 13.5,-5.5979 13.5,-5.5978 6.665,-2.3919 6.6651,-2.3919 11.3992,-2.9391 11.39916,-2.9392 13.9357,-2.1655 13.9358,-2.1656 1.8581,-0.6876 1.8581,-0.6876 -14.3581,-6.7597 -14.3581,-6.7596 -11.99996,-6.5935 -12,-6.5935 -9,-5.0175 -9,-5.0175 -6.5,-4.5347 -6.5,-4.5347 -6.75271,-6.4735 -6.75272,-6.4735 -2.9685,-4.626 -2.9685,-4.626 -1.56568,-4.4376 -1.56567,-4.4376 -0.0383,-7.3399 -0.0383,-7.3398 1.82521,-5.0949 1.82521,-5.0948 4.31075,-4.7995 4.31076,-4.7995 5.68924,-3.4309 5.68925,-3.4309 11.25936,-5.1215 11.2594,-5.1216 15.7406,-5.8555 15.74056,-5.8554 15,-4.588 15,-4.5879 12.5,-3.4758 12.5,-3.4758 12,-2.9396 12,-2.9395 15,-3.1212 15,-3.1212 18.5,-2.4765 18.5,-2.4765 12.5,-1.1502 12.5,-1.1502 11,0.5646 11,0.5646 5.5,1.6473 5.5,1.6472 4.7989,3.0473 4.7988,3.0474 1.9512,3.8245 1.9511,3.8246 v 3.3435 3.3435 l -2.4806,4.9779 -2.4806,4.9779 -8.7694,8.7064 -8.7694,8.7064 -11.5,8.4947 -11.5,8.4948 -12.9961,7.7673 -12.9961,7.7673 -17.843,8.7859 -17.843,8.786 -2.7155,2.0076 -2.7155,2.0077 -1.6573,-0.636 -1.6574,-0.636 -0.5607,-1.7667 -0.5607,-1.7668 0.5749,-1.4982 0.5749,-1.4983 4.1978,-1.2568 4.1977,-1.2569 7,-3.5244 7,-3.5244 7.8382,-3.306 7.8383,-3.3059 10.1617,-5.7357 10.1618,-5.7357 12.5,-8.448 12.5,-8.4481 5,-4.0486 5,-4.0485 5.2973,-5.0731 5.2973,-5.0731 2.8757,-4.5 2.8758,-4.5 0.6423,-3.5052 0.6423,-3.5051 -2.3509,-3.4949 -2.3509,-3.4948 -5.5114,-2.1955 -5.5114,-2.1955 -6.4531,-1.0469 -6.453,-1.047 -10,-0.01 -10,-0.01 -21.8277,2.4691 -21.8277,2.4691 -11.6723,2.1029 -11.6723,2.1029 -9,1.9799 -9,1.9798 -19.9901,5.0007 -19.99,5.0007 -13.01,3.9012 -13.0099,3.9013 -11,3.6252 -10.99996,3.6252 -9.5,3.4495 -9.5,3.4494 -2.7521,1.5293 -2.752,1.5293 -0.9289,-0.5741 -0.9288,-0.5741 -0.6435,1.0412 -0.6435,1.0413 -6.7475,3.3979 -6.74747,3.398 -5.50004,3.3271 -5.50005,3.3272 -3.27004,3.7367 -3.27003,3.7368 -2.38692,6.7632 -2.38693,6.7633 -0.0211,3.0685 -0.0211,3.0685 1.48919,4.9315 1.4892,4.9315 4.9274,6.5 4.9274,6.5 4.78503,3.9683 4.78502,3.9683 14.04834,8.7987 14.0484,8.7987 31.21766,15.483 31.2177,15.483 h 1.5323 1.5323 v 0.919 0.919 l 8.75,4.7415 8.75,4.7416 6.2445,4.4233 6.2445,4.4233 4.4275,4.3029 4.4274,4.303 2.2656,4.3632 2.2657,4.3632 -0.078,7.1869 -0.078,7.187 -2.3603,4.313 -2.3604,4.3131 -6.9993,4.6112 -6.9994,4.6112 -9,4.0771 -9,4.0771 -11.8509,3.5746 -11.8509,3.5747 -13.3058,2.4575 -13.3058,2.4575 -14.56486,1.5295 -14.5648,1.5296 -14.2785,-0.1308 z m 11.8254,-5.2707 1.2083,-0.4637 12.3439,-1.102 12.34396,-1.102 7,-1.4613 7,-1.4614 9.4916,-1.5457 9.4916,-1.5457 0.9584,-0.9584 0.9584,-0.9583 h 1.8976 1.8976 l 11.6524,-4.1185 11.6524,-4.1184 6.9067,-3.473 6.9067,-3.4731 5.1954,-5.1954 5.1954,-5.1954 1.2678,-3.8414 1.2677,-3.8413 -1.2214,-4.0768 -1.2214,-4.0768 -6.6485,-6.6112 -6.6484,-6.6112 -7.5,-4.828 -7.5,-4.8281 -9.2982,-4.9706 -9.2981,-4.9706 -10.7019,1.6941 -10.7018,1.694 -14.0412,3.3983 -14.04126,3.3983 -16.4587,5.5695 -16.4588,5.5695 -20.1253,9.9422 -20.12529,9.9422 -5.87471,4.3319 -5.8747,4.332 -2.87788,4.1671 -2.87787,4.1672 -0.1036,3.9509 -0.1036,3.9509 2.48148,2.6611 2.48147,2.661 5.5,2.7709 5.5,2.7709 5.5,1.5562 5.5,1.5561 6.5,1.2161 6.5,1.2162 1,0.6543 1,0.6543 15.5,0.2937 15.5,0.2937 0.4478,0.4397 0.4477,0.4397 z M 162,62.2472 l 2,-1.0704 v -0.5 -0.5 l -2,1.0704 -2,1.0703 v 0.5 0.5 z m 7.5,-4.0636 h 1 l 1.9411,-1.4682 1.9412,-1.4682 h -1 -1 l -1.9412,1.4682 -1.9411,1.4682 z m 8,-3.9364 h 0.5 v -0.5 -0.5 h -0.5 -0.5 v 0.5 0.5 z m 2,-1 h 0.5 v -0.5 -0.5 h -0.5 -0.5 v 0.5 0.5 z m 2,-1 h 0.5 v -0.5 -0.5 h -0.5 -0.5 v 0.5 0.5 z m 2,-1 h 0.5 v -0.5 -0.5 h -0.5 -0.5 v 0.5 0.5 z m 2.5,-1 h 1.3333 L 186.6667,49.5805 186,48.9138 l -0.6667,0.6667 -0.6666,0.6667 z m 2.5,-1 h 0.5 v -0.5 -0.5 h -0.5 -0.5 v 0.5 0.5 z m 2.5,-1 h 1.3333 L 191.6667,47.5805 191,46.9138 l -0.6667,0.6667 -0.6666,0.6667 z m 2.5,-1 h 0.5 v -0.5 -0.5 h -0.5 -0.5 v 0.5 0.5 z m 3,-1 h 0.5 v -0.5 -0.5 h -0.5 -0.5 v 0.5 0.5 z m 11,-4 h 0.5 v -0.5 -0.5 h -0.5 -0.5 v 0.5 0.5 z m 2.5,-1 h 1.33326 L 210.6667,40.5805 210,39.9138 l -0.6667,0.6667 -0.6666,0.6667 z m 2.99996,-1 h 1.3333 l -0.6666,-0.6667 -0.6667,-0.6667 -0.6667,0.6667 -0.6666,0.6667 z m 6,-2 h 1.3333 l -0.6666,-0.6667 -0.6667,-0.6667 -0.6667,0.6667 -0.6666,0.6667 z m 2.5,-1 h 0.5 v -0.5 -0.5 h -0.5 -0.5 v 0.5 0.5 z m 9,-3 h 0.5 v -0.5 -0.5 h -0.5 -0.5 v 0.5 0.5 z m 9,-3 h 0.5 v -0.5 -0.5 h -0.5 -0.5 v 0.5 0.5 z m 3.5,-1 h 1.3333 l -0.6666,-0.6667 -0.6667,-0.6667 -0.6667,0.6667 -0.6666,0.6667 z m 3.4167,-1.079 1.9166,0.079 -0.6041,-0.6042 -0.6042,-0.6041 -1.3125,0.5252 -1.3125,0.5252 1.9167,0.079 z m 3.5833,-0.921 h 1.3333 l -0.6666,-0.6667 -0.6667,-0.6667 -0.6667,0.6667 -0.6666,0.6667 z m 3.5,-1 h 0.5 v -0.5 -0.5 h -0.5 -0.5 v 0.5 0.5 z m 3.5,-1 h 1.3333 l -0.6666,-0.6667 -0.6667,-0.6667 -0.6667,0.6667 -0.6666,0.6667 z m 3.5,-1 h 0.5 v -0.5 -0.5 h -0.5 -0.5 v 0.5 0.5 z m 12,-3 h 0.5 v -0.5 -0.5 h -0.5 -0.5 v 0.5 0.5 z M 152.5,261.2472 H 152 v -0.5 -0.5 h 0.5 0.5 v 0.5 0.5 z m 378.82136,3.9655 -4.1785,0.034 -1.5715,-1.5714 -1.5714,-1.5714 v -2.9782 -2.9783 l 1.652,-3.2003 1.652,-3.2004 6.598,-6.8682 6.59798,-6.8682 8,-6.2613 8,-6.2612 12.0538,-7.8705 12.0537,-7.8706 14.1963,-7.3687 14.1962,-7.3687 0.1107,-2.1313 0.1107,-2.1313 -0.2119,-2.4762 -0.2119,-2.4762 -1.9806,-4.2134 -1.9805,-4.2134 -4.722,-4.3104 -4.722,-4.3104 -6.7239,-5.25 -6.7238,-5.25 h -0.8348 -0.8347 l -7.8877,7.2586 -7.8876,7.2586 -8,5.5788 -8,5.5788 -10.9413,6.8166 -10.94118,6.8167 -9.3895,4.4478 -9.3895,4.4479 -4.8121,0.1481 -4.8122,0.1481 -2.1071,-1.9049 -2.1071,-1.905 v -3.7623 -3.7622 l 5.5,-6.71 5.5,-6.7099 v -0.8728 -0.8729 h -1.664 -1.664 l -14.086,8.3799 -14.086,8.3799 -2.1843,1.1201 -2.1842,1.1201 h -2.6773 -2.6774 l -9.1384,6.3264 -9.1384,6.3263 -13.5,8.4091 -13.5,8.4091 -8.3337,4.2034 -8.3337,4.2035 -6.8653,1.5615 -6.8654,1.5615 -4.9154,-1.0542 -4.9154,-1.0541 -2.8855,-3.0146 -2.8856,-3.0145 0.046,-6.6817 0.046,-6.6817 2.1528,-4.1099 2.1529,-4.11 7.4068,-9.89 7.4068,-9.8901 2.7447,-2.5 2.7447,-2.5 4.1017,-4.8802 4.1018,-4.8802 -3.2766,1.6944 -3.2766,1.6944 -15.1756,9.2632 -15.1755,9.2632 -12.5,6.6049 -12.5,6.6049 -7.6763,2.5677 -7.6763,2.5677 h -3.6506 -3.6506 l -2.9231,-2.923 -2.9231,-2.9231 v -2.7612 -2.7612 l 2.1932,-4.5305 2.1931,-4.5304 10.5569,-10.7277 10.5568,-10.7276 4.5,-2.0357 4.5,-2.0356 2.1392,-0.022 2.1392,-0.022 2.2699,1.838 2.2699,1.8381 -0.6709,1.0855 -0.6708,1.0854 -4.9421,1.6415 -4.9421,1.6415 -8.2961,7.2629 -8.2962,7.2629 -3.5945,4.4221 -3.5946,4.4221 -1.2324,2.3281 -1.2325,2.3281 0.5456,1.4219 0.5456,1.4219 h 3.3563 3.3562 l 7.384,-2.5115 7.384,-2.5114 11.0411,-5.3115 11.0412,-5.3114 11,-6.3313 11,-6.3312 13,-8.0312 13,-8.0312 5.6945,-4.5647 5.6944,-4.5646 14.8056,-12.8026 14.8055,-12.8025 5.0269,-4.3133 5.0269,-4.3134 4.4731,-2.2547 4.4731,-2.2547 4,-3.2318 4,-3.2318 3.1053,-1.5985 3.1052,-1.5984 6.2131,-4.1268 6.213,-4.1268 5.1817,-2.4126 5.1817,-2.4126 3.691,-0.01 3.691,-0.01 0.6235,1.009 0.6236,1.0089 -0.5937,1.8707 -0.5938,1.8707 -6.4923,4.1986 -6.4923,4.1987 -11.1211,7.9609 -11.1211,7.9609 -7.1074,4.1274 -7.1074,4.1274 -5,4.2134 -5,4.2133 -6.5,3.9629 -6.5,3.9629 -9.5,6.3788 -9.5,6.3787 -12.6493,12.7589 -12.6493,12.7588 -9.2078,11.7642 -9.2079,11.7642 -2.4128,4.7616 -2.4129,4.7615 -0.5937,4.3318 -0.5937,4.3317 2.8637,2.2716 2.8637,2.2715 6.2917,-0.5758 6.2917,-0.5757 9.2083,-3.6637 9.2083,-3.6638 12.6821,-6.2776 12.6822,-6.2777 6.8178,-4.4404 6.8179,-4.4405 1.9976,-2.2543 1.9977,-2.2543 2.7523,-1.4233 2.7524,-1.4233 v -2.6279 -2.6279 l 3.9649,-3.6604 3.965,-3.6604 7.8114,-5.6243 7.8114,-5.6243 5.9148,-3.5617 5.9148,-3.5617 h 2.2618 2.2618 l 2.547,1.1605 2.5471,1.1605 v 0.8395 0.8395 h 1.5087 1.5086 l 4.2047,-3.0458 4.2046,-3.0459 2.5367,0.2959 2.5367,0.2958 0.3107,2.1823 0.3107,2.1823 -1.4776,2.8177 -1.4776,2.8177 -4.6216,4.5 -4.6216,4.5 -5.9615,7.3093 -5.9615,7.3094 v 1.5519 1.552 l 3.75,-0.6506 3.75,-0.6506 10.2048,-4.8984 10.2048,-4.8983 10.79518,-6.7476 10.7952,-6.7475 5.5,-3.9709 5.5,-3.9708 6.6623,-5.3857 6.6624,-5.3857 1.568,-2.393 1.5679,-2.393 -1.9583,-4.3153 -1.9584,-4.3152 -0.022,-3.7342 -0.022,-3.7342 2.918,-3.2658 2.9179,-3.2658 h 4.6687 4.6686 l 2.4134,2.8058 2.4134,2.8057 -0.01,2.1943 -0.01,2.1942 -2.9881,5 -2.9882,5 -1.5104,2.0783 -1.5104,2.0783 5.7389,3.9217 5.7389,3.9217 6.519,5.5819 6.5191,5.582 2.6428,4.918 2.6428,4.9181 0.7015,3.3176 0.7015,3.3175 1.3335,0.5118 1.3336,0.5117 8.8221,-3.5013 8.8222,-3.5013 7,-2 7,-2 3.75,-0.5152 3.75,-0.5151 -0.038,0.6872 -0.038,0.6871 -11.7122,3.8968 -11.7121,3.8969 -8.3328,3.4878 -8.3328,3.4879 -1.0664,2.6153 -1.0663,2.6153 -2.9093,6.5 -2.9093,6.5 -10.701,10.5 -10.701,10.5 -11.4906,8.6239 -11.4905,8.6239 -7.47,4.8169 -7.47,4.8169 -7.03,2.7748 -7.02998,2.7748 -4.1786,0.034 z m 0.9286,-5.9663 2.25,-8e-4 6.49998,-3.087 6.5,-3.0871 4.7446,-1.814 4.7447,-1.8141 9.7553,-6.9853 9.7554,-6.9853 12.678,-13.0619 12.678,-13.0619 2.6935,-4.5961 2.6935,-4.5961 -0.5621,-0.5621 -0.5622,-0.5622 -10.8093,5.746 -10.8094,5.746 -7.5,5.0198 -7.5,5.0198 -6.5,5.058 -6.5,5.058 -8.7511,7.3524 -8.7512,7.3524 -4.49878,5.5228 -4.4989,5.5228 v 1.4083 1.4084 z m -38.4456,-81.9572 3.6956,-1.943 2.7581,-1.8748 2.758,-1.8748 -0.6351,-0.6351 -0.635,-0.635 -3.431,1.4335 -3.431,1.4336 -2.9538,2.1032 -2.9537,2.1033 0.5662,0.9161 0.5661,0.9161 z m 86.46468,-30.0489 1.2309,-0.01 2.1919,-3.2431 2.1919,-3.2432 1.0199,-2.7146 1.0199,-2.7146 -1.0186,-0.6295 -1.0187,-0.6296 -2.4718,0.6204 -2.4719,0.6204 -1.6062,3.3682 -1.6062,3.3683 0.654,2.6055 0.6539,2.6055 1.231,-0.01 z m -125.76908,-9.412 3,-1.8843 17.5,-12.2346 17.5,-12.2346 2.5,-2.2023 2.5,-2.2023 -4,2.2847 -4,2.2847 -8.5,5.4326 -8.5,5.4325 -9.0793,6.8132 -9.0794,6.8131 -1.4206,1.7908 -1.4207,1.7908 z m 114.99998,93.4189 h -0.5 v -0.5 -0.5 h 0.5 0.5 v 0.5 0.5 z m -124.99998,-31 h -0.5 v -0.5 -0.5 h 0.5 0.5 v 0.5 0.5 z m -92.6588,-47.3142 -2.6588,1.2455 -2.4683,-1.9416 -2.4682,-1.9415 -0.5197,-1.9873 -0.5197,-1.9874 1.1467,-0.9005 1.1468,-0.9005 8.5698,-0.6283 8.5699,-0.6282 1.9154,1.4006 1.9153,1.4005 -5.9852,2.8116 -5.9852,2.8116 z m 66.6588,-2.6858 h -0.5 v -0.5 -0.5 h 0.5 0.5 v 0.5 0.5 z m 3,-3 h -0.5 v -0.5 -0.5 h 0.5 0.5 v 0.5 0.5 z" />
  <path d="m 461.79196,333.6342 -7.292,0.4781 -5.1128,-0.8066 -5.1128,-0.8067 -4.9922,-1.6581 -4.9922,-1.6581 -4.395,-2.8223 -4.395,-2.8222 -4.1356,-4.2274 -4.1356,-4.2273 -2.5815,-4.7431 -2.5815,-4.7431 -1.5329,-5.8852 -1.5329,-5.8852 v -5.7407 -5.7407 l 1.1341,-5.2992 1.1341,-5.2992 2.5765,-5.5 2.5765,-5.5 5.5394,-5.5641 5.5394,-5.564 5.5,-2.6555 5.5,-2.6555 5.9601,-1.5305 5.9601,-1.5304 7.5399,0.015 7.5399,0.015 6.2692,1.478 6.2691,1.4781 5.1769,2.6234 5.1769,2.6233 5.665,5.4035 5.6649,5.4034 3.0962,6.7304 3.0962,6.7303 1.0913,7.0664 1.0914,7.0663 -1.0995,6.9337 -1.0994,6.9336 -2.4762,5.4301 -2.4763,5.4302 -3.6532,4.4582 -3.6531,4.4582 -5.9976,3.8764 -5.9975,3.8764 -6.2802,1.9398 -6.2801,1.9397 -7.292,0.4781 z m 520.35858,285.5322 -16.6506,-0.081 -10.841,-1.9084 -10.841,-1.9084 -10.3192,-3.453 -10.3191,-3.453 -7.3398,-3.6664 -7.3399,-3.6664 -8.5,-5.6054 -8.5,-5.6053 -10.0066,-10.0361 -10.0065,-10.0361 -5.3039,-8 -5.3038,-8 -3.8159,-8 -3.8158,-8 -2.0914,-6 -2.0913,-6 -1.9947,-8.5 -1.9947,-8.5 -1.1408,-11.5 -1.1409,-11.5 0.6491,-9 0.6491,-9 1.5339,-9.5 1.5338,-9.5 3.428,-10.3562 3.428,-10.3563 4.6785,-9.0583 4.6784,-9.0584 5.9747,-8.0854 5.9747,-8.0854 6.3913,-6.2929 6.3914,-6.2929 8.1459,-6.0399 8.146,-6.0398 11.0517,-5.3787 11.0518,-5.3786 7.7601,-2.5002 7.7601,-2.5002 7.5727,-1.5642 7.5727,-1.5642 10.6672,-1.0935 10.6672,-1.0935 12.2933,0.6375 12.29336,0.6374 10.4148,2.0099 10.4149,2.0099 7.7918,2.5355 7.7918,2.5356 9.0222,4.265 9.0221,4.2651 6.9779,4.6025 6.9778,4.6024 6.717,5.8189 6.7169,5.8189 5.0984,6 5.0983,6 4.3199,6.5 4.3199,6.5 3.9936,8 3.9936,8 3.0215,9.5 3.0215,9.5 1.7198,10 1.7198,10 -0.09,15.5 -0.09,15.5 -0.7929,5 -0.7928,5 -94.7377,0.2551 -94.73766,0.2551 v 0.6019 0.602 l 3.0493,6.3892 3.0493,6.3892 5.4371,5.8728 5.4372,5.8727 6.7635,3.5212 6.7636,3.5212 7.1974,1.6098 7.1974,1.6098 h 8.3926 8.3927 l 7.5535,-1.9318 7.55346,-1.9319 5.9574,-3.0073 5.9575,-3.0073 3.0433,-2.5609 3.0434,-2.5608 h 45.0911 45.091 l -1.9583,4.9684 -1.9584,4.9684 -4.158,8.2816 -4.158,8.2816 -3.0506,4.5 -3.0506,4.5 -5.8359,7.1085 -5.8359,7.1084 -7.7325,6.5125 -7.7326,6.5125 -6.5,4.2062 -6.5,4.2063 -8.1841,3.9198 -8.184,3.9198 -8.9602,3.0019 -8.9602,3.0019 -11.7051,2.0011 -11.70506,2.0011 -16.6507,-0.081 z m 1.336,-160.9192 h 53.51336 v -1.1038 -1.1038 l -3.588,-6.8279 -3.5879,-6.8279 -5.8745,-5.6033 -5.8744,-5.6032 -6.3752,-2.9833 -6.3751,-2.9833 -6.91246,-1.4644 -6.9124,-1.4644 h -7.5 -7.5 l -6.9124,1.4644 -6.9125,1.4644 -6.0875,2.8546 -6.0876,2.8545 -5.6536,5.176 -5.6536,5.1759 -3.0481,4.75 -3.0481,4.75 -1.5617,3.7377 -1.5617,3.7378 z m -936.82279,156 H 0 v -171.5 -171.5 h 37.75316 37.75316 l 46.9152,68.25 46.91518,68.25 3.4404,4.7821 3.4405,4.7822 1.1412,-0.9764 1.1412,-0.9765 48.99996,-72.024 49,-72.0241 37.75,-0.032 37.75,-0.032 v 171.5 171.5 h -46.6086 -46.6085 l 0.3585,-88.4501 0.3586,-88.45 -0.7495,0.7495 -0.7495,0.7496 -29.7505,43.4505 -29.75046,43.4505 -22.5,0.2526 -22.5,0.2527 -12,-17.4922 -12,-17.4922 -18.5,-26.9872 -18.5,-26.9871 -0.88084,-0.023 -0.88084,-0.023 0.63574,3.75 0.63575,3.75 0.65884,84.75 0.65884,84.75 H 46.66375 Z m 411.83621,0 h -43.5 v -130 -130 h 43.5 43.5 v 130 130 z m 148.49998,0 h -44 v -171.5 -171.5 h 44 44 v 171.5 171.5 z m 148.75,-0.2395 -43.75,0.2605 V 442.7577 271.2472 h 44.0029 44.0028 l -0.2528,171.25 -0.2529,171.25 z m 452.87166,0.2395 h -43.2884 l -0.652,-0.6521 -0.6521,-0.652 -0.022,-129.348 -0.022,-129.3479 h 40.3699 40.3699 l 1.2819,12.5729 1.282,12.573 5.1053,-4.9043 5.1053,-4.9043 4.1284,-3.1564 4.1285,-3.1564 8.3715,-3.9864 8.3716,-3.9864 6,-1.5602 6,-1.5602 10.25,-1.1682 10.25,-1.1681 10.3948,1.1616 10.3948,1.1616 4.6052,1.1596 4.6052,1.1596 v 40.237 40.2371 l -7.75,-1.475 -7.75,-1.475 -15.5,-0.026 -15.5,-0.026 -8.1615,2.4696 -8.1616,2.4696 -5.6982,3.4257 -5.6983,3.4257 -4.4819,4.9601 -4.4818,4.9601 -2.8283,5.6028 -2.8283,5.6029 -1.7757,5.937 -1.7756,5.9371 -0.3494,68.75 -0.3493,68.75 h -43.2884 z" />
  <path d="m 836.62814,742.74722 h -14.669 l 1.7704,-0.6665 1.7704,-0.6664 1.765,-0.5579 1.765,-0.5579 0.985,-2.5908 0.985,-2.5907 v -23.8698 -23.86982 l -0.9605,-2.5263 -0.9605,-2.5262 -3.2895,-0.9049 -3.2895,-0.9048 2.5,-0.5708 2.5,-0.5708 5.75,-0.5719 5.75,-0.572 v 1.9599 1.9598 l 4.25,-1.9291 4.25,-1.9292 5.6849,-0.022 5.6849,-0.022 2.8151,1.0666 2.8151,1.0666 2.3819,2.1834 2.3819,2.1834 1.8462,4 1.8461,4.00002 0.022,5.5927 0.022,5.5927 -2.3276,4.4073 -2.3277,4.4073 -4.5332,2.8079 -4.5332,2.8079 -5.5358,0.5713 -5.5357,0.5714 -4.6034,-1.5686 -4.6034,-1.5685 v 11.3803 11.3803 l 1.1226,0.6937 1.1225,0.6938 5.0261,1.1153 5.0261,1.1152 h -14.6691 z m 14.9869,-26.5037 h 4.1152 l 2.756,-2.1679 2.7561,-2.1679 1.3788,-3.3 1.3788,-3.3 v -6.0642 -6.0642 l -1.364,-3.26462 -1.3641,-3.2646 -3.3405,-2.8109 -3.3405,-2.8108 -4.87,0.4679 -4.8699,0.4679 -2.6755,1.9951 -2.6755,1.9952 -0.2827,11.75272 -0.2826,11.7526 1.2826,1.5539 1.2827,1.5539 3,1.8342 3,1.8342 h 4.1151 z M 83.5,719.22362 l -3,-0.022 -3.11706,-1.5378 -3.11706,-1.5377 -1.13294,-2.4866 L 72,711.15302 v -2.8181 -2.8181 l 2.09239,-2.66 2.09239,-2.6601 3.64924,-1.5247 3.64925,-1.5248 7.86723,-0.6066 7.86723,-0.6067 -0.43344,-5.99212 -0.43343,-5.9922 -2.28621,-1.8512 -2.28622,-1.8513 h -3.46966 -3.46966 l -1.57125,4 -1.57124,4 -1.59831,-0.014 -1.59831,-0.014 -2.25,-0.603 -2.25,-0.603 v -0.9833 -0.9834 l 3.50251,-3.5025 3.50252,-3.5025 8.57952,0.3525 8.57953,0.3525 2.91796,3.2658 L 106,685.278 v 12.04992 12.05 l 1.03518,1.9342 1.03519,1.9343 h 2.84237 2.84237 l 1.24489,-1.5 1.24489,-1.5 H 117.12244 118 v 0.9542 0.9542 l -4.6438,3.5458 -4.6438,3.5458 h -1.84043 -1.84042 l -3.2082,-2.8665 -3.20821,-2.8666 -6.05757,2.8658 -6.05757,2.8657 -3,-0.022 z m 6.0616,-5.2305 4.40954,-0.497 2.56475,-1.6805 2.56474,-1.6804 -0.30031,-5.194 -0.30032,-5.194 -6.27847,-0.2985 -6.27846,-0.2984 -2.97154,2.9715 L 80,705.09342 v 2.1223 2.1224 l 2.57603,2.576 2.57603,2.5761 z m 98.9384,5.1427 -5,-0.067 -4.8347,-1.3286 -4.8346,-1.3286 -0.3833,-0.3832 -0.3832,-0.3833 -0.6533,-5.9487 -0.6532,-5.9488 4.8711,4.8852 4.8712,4.8852 3.2179,1.3648 3.2179,1.3648 H 191.4679 195 l 2,-2 2,-2 v -1.2775 -1.2775 l -1.493,-2.1316 -1.4931,-2.1316 -9.0545,-3.753 -9.0544,-3.753 -2.4525,-2.9146 L 173,692.0941 v -2.8762 -2.8762 l 1.1947,-2.622 1.1947,-2.6221 2.7556,-1.425 2.7557,-1.425 h 4.5004 4.5005 l 4.9359,1.0586 4.9359,1.0585 0.6133,3.0665 0.6133,3.0664 v 2.5414 2.5414 l -3.8266,-4.145 -3.8266,-4.145 -3.7592,-1.5706 -3.7591,-1.5707 -3.4147,1.1269 -3.4147,1.127 -0.6514,2.5954 -0.6514,2.5953 2.7138,2.1639 2.7137,2.1638 6.589,2.32622 6.589,2.3261 3.2788,2.8788 3.2789,2.8789 0.6489,2.9546 0.649,2.9547 -1.1886,3.6015 -1.1887,3.6016 -4.14,1.8799 -4.1401,1.88 -5,-0.068 z m 32.29706,-0.1828 -4.2971,0.4708 -3.4678,-2.3564 -3.46766,-2.3564 -0.9422,-3.285 -0.9421,-3.285 1.6734,-3.5091 1.67336,-3.5091 4.5692,-2.0212 4.5692,-2.0211 7.4173,-0.561 7.4173,-0.561 v -5.68132 -5.6814 l -2.3145,-2.1743 -2.3144,-2.1743 h -3.1288 -3.1289 l -1.5567,2.2225 -1.5567,2.2225 v 1.7775 1.7775 l -1.75,-0.014 -1.75,-0.014 -2.25,-0.603 -2.25,-0.603 v -1.4603 -1.4602 l 2.9231,-2.9231 2.9231,-2.9231 h 7.6265 7.6266 l 3.0291,1.5664 3.0292,1.5664 1.4212,3.4015 1.4212,3.4015 v 10.95032 10.9503 l 0.607,1.5818 0.607,1.5818 h 2.6705 2.6705 l 2.2225,-1.5567 2.2225,-1.5567 v 0.8696 0.8696 l -2.75,2.5649 -2.75,2.5649 -2.1843,1.1222 -2.1842,1.1222 h -1.46 -1.46 l -3.1408,-2.9339 -3.1408,-2.934 -4.9178,2.5515 -4.9179,2.5515 -4.2971,0.4707 z m 3.9327,-4.7205 2.2297,0.015 4.0664,-1.627 4.0663,-1.6271 -0.2961,-5.6229 -0.2961,-5.623 -5.2018,-0.3006 -5.2019,-0.3006 -3.0336,1.5688 -3.0337,1.5688 -0.5974,2.3801 -0.5974,2.3801 0.3329,2.3267 0.3329,2.3266 2.5,1.2603 2.5,1.2603 2.2298,0.015 z m 49.1404,4.5946 -6.3702,0.3688 -5.2803,-1.338 -5.2803,-1.338 -0.3316,-0.3863 -0.3317,-0.3864 -0.5658,-5.75 -0.5658,-5.75 h 0.4072 0.4071 l 4.0603,4.4049 4.0603,4.4049 3.3614,1.5951 3.3615,1.5951 h 3.3763 3.3764 l 2.2225,-1.5567 2.2225,-1.5567 v -2.269 -2.269 l -2.25,-2.1123 -2.25,-2.1124 -8.1064,-3.0946 -8.1064,-3.0947 -2.3936,-2.5479 -2.3936,-2.5478 v -4.50152 -4.5015 l 3.2658,-2.9179 3.2658,-2.918 h 5.4079 5.4079 l 5.0763,1.1717 5.0763,1.1718 v 5.5082 5.5083 l -3.4772,-4.0623 -3.4771,-4.0623 -4.1402,-1.6565 -4.1401,-1.6566 -3.3349,1.1006 -3.3349,1.1007 -0.6032,1.9004 -0.6032,1.9005 1.0401,1.9434 1.0401,1.9434 9.0291,3.74252 9.0292,3.7425 2.4457,2.2666 2.4457,2.2666 0.6833,2.7225 0.6833,2.7224 -0.8929,3.517 -0.8928,3.5169 -2.6298,1.9514 -2.6298,1.9513 z m 147.6298,0.3706 -4,-0.038 -3.9422,-1.4043 -3.9422,-1.4044 -2.5578,-1.8603 -2.5578,-1.8603 -2.25,-4.4033 -2.25,-4.4034 v -4.6389 -4.6389 l 1.1361,-3.39922 1.136,-3.3992 2.614,-2.8761 2.6139,-2.8761 4,-1.8519 4,-1.852 h 6.5 6.5 l 4,1.852 4,1.8519 2.6864,2.8761 2.6864,2.8761 1.0636,2.8151 1.0636,2.81512 v 5.223 5.223 l -2.25,4.4538 -2.25,4.4539 -3.3824,2.2476 -3.3823,2.2476 -3.6177,1.0049 -3.6176,1.0048 -4,-0.038 z m 2.1151,-3.0139 3.1152,0.063 2.756,-2.1679 2.7561,-2.1679 1.3788,-3.3 1.3788,-3.3 v -5.7164 -5.7164 l -2.0858,-4.30872 -2.0859,-4.3087 -2.6641,-1.8648 -2.6642,-1.8648 -2.9997,-0.5513 -2.9998,-0.5512 -3.2823,1.3714 -3.2823,1.3714 -1.946,4.2877 -1.946,4.2876 -0.022,5.28212 -0.022,5.2821 1.5477,3.7043 1.5478,3.7042 2.2022,2.373 2.2023,2.373 2,0.8273 2,0.8272 3.1151,0.063 z m 43.494,3.0406 -3.6091,-0.023 -3.1171,-1.5378 -3.117,-1.5377 -1.133,-2.4866 -1.1329,-2.4865 v -13.0187 -13.01872 l -0.9917,-1.853 -0.9917,-1.8529 -3.2583,-0.7508 -3.2583,-0.7508 2.5,-0.7308 2.5,-0.7308 5.75,-0.1 5.75,-0.1 v 15.54552 15.5454 l 2.4545,2.4546 2.4546,2.4545 h 3.2297 3.2298 l 4.3157,-2.0892 4.3157,-2.0892 v -13.3541 -13.35412 l -2.2225,-1.5567 -2.2225,-1.5567 -2.0275,-0.07 -2.0275,-0.07 2,-0.8594 2,-0.8594 6.25,-0.07 6.25,-0.07 v 17.37762 17.3775 l 1.4361,1.1918 1.436,1.1919 2.814,0.8446 2.8139,0.8447 -4.5,0.097 -4.5,0.097 -3.75,0.6198 -3.75,0.6199 v -2.6309 -2.6308 l -0.25,0.013 -0.25,0.013 -5.8909,2.9874 -5.8909,2.9873 -3.6091,-0.023 z m 53.3909,-0.4211 -6,0.3246 -4.7924,-1.2 -4.7925,-1.2 -0.9422,-1.4904 -0.9423,-1.4903 -0.015,-4.9782 -0.015,-4.9782 4.318,4.7032 4.318,4.7032 3.6499,1.525 3.6499,1.525 h 2.8096 2.8096 l 2.2787,-1.5961 2.2787,-1.596 -0.3062,-3.154 -0.3062,-3.1539 -5.0753,-2.5 -5.0754,-2.5 -4.611,-1.8227 -4.6111,-1.8228 -2.5636,-2.5636 -2.5636,-2.5636 v -3.92942 -3.9294 l 1.0296,-1.9239 1.0297,-1.9239 2.9207,-1.5103 2.9207,-1.5104 h 4.5004 4.5005 l 5.0492,1.0829 5.0492,1.0828 v 2.2922 2.2921 l 0.625,3.125 0.625,3.125 h -0.956 -0.956 l -1.3219,-2.47 -1.3219,-2.4699 -3.8476,-2.6664 -3.8476,-2.6664 h -3.9828 -3.9827 l -1.5167,1.2588 -1.5168,1.2588 v 2.0488 2.0488 l 1.5537,1.7169 1.5538,1.7168 7.5521,2.86192 7.5521,2.8619 3.6214,3.116 3.6214,3.116 v 4.0251 4.0251 l -1.3371,2.4984 -1.3371,2.4985 -2.6402,1.2262 -2.6401,1.2263 -6,0.3245 z m 40.58788,0.077 -5.5879,0.4138 -3.4702,-1.5677 -3.4703,-1.5676 -1.8862,-1.7056 -1.8861,-1.7057 -1.9123,-3.7468 -1.9123,-3.7468 -0.5844,-4.2635 -0.5844,-4.2636 1.1452,-4.25282 1.1452,-4.2528 3.1063,-3.5379 3.1064,-3.538 2.8019,-1.4489 2.8019,-1.4489 h 5.6485 5.6485 l 3.4904,1.6563 3.4904,1.6563 2.389,3.6101 2.389,3.61 0.6468,3.2337 0.6467,3.23362 h -15.125 -15.125 l 0.01,1.75 0.01,1.75 1.0855,4 1.0855,4 3.095,3.2396 3.095,3.2396 3.3139,0.6217 3.3139,0.6217 3.3994,-0.6378 3.3994,-0.6377 3.5722,-2.4241 3.5721,-2.4241 0.6898,1.1161 0.6897,1.116 -2.9113,2.3872 -2.9113,2.3871 -2.9121,1.5569 -2.9122,1.5569 -5.5878,0.4137 z m -2.6955,-25.6328 h 9.2743 l 0.55,-0.5501 0.5501,-0.55002 -0.8121,-3.6009 -0.8122,-3.6009 -1.9747,-1.9747 -1.9747,-1.9747 -4.0357,-0.1058 -4.0357,-0.1058 -2.5828,2.4263 -2.5827,2.4264 -0.8313,3.0551 -0.8313,3.0551 0.4122,0.75 0.4122,0.75002 z m 70.1076,25.9505 -4,-0.038 -3.9422,-1.4043 -3.9422,-1.4044 -2.5188,-1.8806 -2.5189,-1.8806 -2.289,-4.3284 -2.2889,-4.3285 0.022,-5.0927 0.022,-5.0927 1.8461,-4.00002 1.8462,-4 2.3955,-2.2023 2.3956,-2.2022 3.7042,-1.5478 3.7043,-1.5477 h 6.4179 6.4179 l 5.291,2.764 5.291,2.7641 2.3232,4.3932 2.3232,4.3933 -0.016,6.09272 -0.016,6.0927 -2.2488,3.9704 -2.2488,3.9705 -3.3671,2.2691 -3.3671,2.2691 -3.6177,1.0049 -3.6176,1.0048 -4,-0.038 z m 2.013,-2.9505 h 3.2173 l 2.6548,-2.0883 2.6549,-2.0883 1.48,-2.862 1.48,-2.8621 -0.022,-6.2996 -0.022,-6.2997 -1.8615,-4.09892 -1.8615,-4.099 -2.8666,-2.0052 -2.8665,-2.0052 -2.7416,-0.6628 -2.7416,-0.6628 -3.5404,1.4793 -3.5405,1.4793 -1.946,4.2877 -1.946,4.2876 -0.022,5.53812 -0.022,5.5381 2.25,4.4538 2.25,4.4539 3.3979,2.258 3.3979,2.2581 h 3.2172 z m 172.8564,2.6251 -5.8694,0.4571 -4.1161,-1.9322 -4.1161,-1.9323 -2.5101,-3.3589 -2.5102,-3.3588 -1.2467,-3.8877 -1.2468,-3.8876 0.588,-4.9648 0.588,-4.96482 2.437,-4.1583 2.4369,-4.1583 3.9842,-2.2392 3.9842,-2.2393 h 5.6537 5.6537 l 3.8594,1.9689 3.8594,1.9689 1.9929,3.2811 1.9929,3.2811 0.6873,3.25 0.6873,3.25002 h -15.0794 -15.0795 v 2.134 2.134 l 1.1931,3.9822 1.1931,3.9821 2.8458,2.8459 2.8458,2.8458 3.4611,0.6493 3.4611,0.6493 3.3994,-0.6378 3.3994,-0.6377 3.5193,-2.3882 3.5192,-2.3882 0.5814,0.5813 0.5813,0.5813 v 0.7116 0.7115 l -5.3806,3.7058 -5.3807,3.7058 z m -2.977,-25.6251 h 9.2743 l 0.55,-0.5501 0.5501,-0.55002 -0.8121,-3.6009 -0.8122,-3.6009 -1.9747,-1.9747 -1.9747,-1.9747 -4.0127,-0.1052 -4.0127,-0.1052 -2.2219,1.9808 -2.2218,1.9809 -1.3938,3.294 -1.3938,3.294 0.5908,0.956 0.5908,0.95602 z m 137.2451,25.5562 -5.1375,0.3884 -2.7086,-0.8748 -2.7087,-0.8747 -2.9555,-2.1045 -2.9555,-2.1046 -2.1668,-4.4759 -2.1668,-4.4759 0.029,-5.9541 0.028,-5.95412 1.9551,-3.813 1.9552,-3.813 2.3473,-2.1834 2.3473,-2.1834 2.8151,-1.0666 2.8151,-1.0666 h 4.967 4.967 l 3.2179,1.3711 3.2179,1.3711 2.3118,2.5092 2.3119,2.5091 1.3903,4.6198 1.3903,4.61972 h -15.0794 -15.0794 l 0.4876,5.0745 0.4876,5.0745 1.9607,2.6755 1.9608,2.6755 3.4289,1.8054 3.4289,1.8054 4.7254,-0.4063 4.7254,-0.4062 3.9765,-2.6315 3.9765,-2.6315 0.5508,0.8912 0.5508,0.8912 -3.1226,2.6275 -3.1226,2.6274 -2.9926,1.5476 -2.9926,1.5475 z m -2.5262,-25.5562 h 10.1113 l -0.6923,-3.75002 -0.6923,-3.75 -2.0138,-2.1654 -2.0139,-2.1654 -2.3967,-0.6015 -2.3968,-0.6016 -3.442,1.4382 -3.442,1.4381 -1.5664,3.0292 -1.5664,3.0291 v 2.0496 2.04972 z m 41.3887,25.8784 -4,-0.1104 -2,-0.4599 -2,-0.4599 -3.75,-0.9626 -3.75,-0.9627 v -6.1414 -6.1415 l 3.6074,4.2145 3.6075,4.2145 3.8527,1.9655 3.8527,1.9655 h 3.3174 3.3173 l 2.2225,-1.5567 2.2225,-1.5567 v -2.3544 -2.3544 l -2.8544,-2.4018 -2.8544,-2.4018 -6.3956,-2.3016 -6.3956,-2.3015 -3.1249,-2.341 -3.1249,-2.3411 -0.5102,-2.66872 -0.5102,-2.6688 0.9196,-3.3303 0.9195,-3.3302 2.6004,-2.0455 2.6004,-2.0455 h 5.2889 5.2888 l 5.0763,1.1717 5.0763,1.1718 v 5.5082 5.5083 l -3.5106,-4.1013 -3.5106,-4.1014 -4.395,-1.6784 -4.395,-1.6785 -2.8444,1.3592 -2.8444,1.3591 -0.3304,2.3231 -0.3303,2.3231 1.7164,1.8966 1.7163,1.8966 5.4103,2.02422 5.4102,2.0242 3.8877,1.9834 3.8876,1.9833 1.5661,2.2359 1.5661,2.2359 v 4.1426 4.1427 l -2.0455,2.6004 -2.0455,2.6004 -3.7045,1.0289 -3.7045,1.0288 z m 40.38396,0.022 -3.384,-0.1 -2.2571,-0.6503 -2.2572,-0.6503 -3.5986,-2.877 -3.5986,-2.877 -1.87226,-4.123 -1.8723,-4.123 -0.022,-5.4343 -0.022,-5.4343 2.10236,-4.34292 2.1023,-4.3429 3.4954,-2.6661 3.4954,-2.666 5.8658,-0.4243 5.8658,-0.4243 2.4594,0.6173 2.4594,0.6172 3.1129,2.6194 3.113,2.6194 1.3238,2.6309 1.3237,2.6309 0.6594,2.75 0.6594,2.75002 h -15.019 -15.0191 l 0.022,3.25 0.022,3.25 1.8943,4.172 1.8942,4.1721 2.3861,1.5634 2.386,1.5634 3.1624,0.6325 3.1624,0.6325 3.4348,-0.6444 3.4347,-0.6444 3.5722,-2.4241 3.5721,-2.4241 0.5355,0.8665 0.5356,0.8666 -3.9995,3.4234 -3.9995,3.4235 -3.8736,1.1605 -3.8736,1.1606 -3.384,-0.1 z m -0.884,-25.9007 h 10 v -2.54972 -2.5496 l -1.4826,-2.8671 -1.4826,-2.867 -3.4793,-1.1483 -3.4793,-1.1483 -3.4609,1.6423 -3.4608,1.6422 -1.5772,3.3239 -1.5773,3.3239 v 1.5988 1.59892 z m 91.25,25.9963 h -3.25 l -2,-2 -2,-2 v -16.5 -16.50002 l -4.75,-0.071 -4.75,-0.071 4.0926,-1.8215 4.0925,-1.8215 2.0968,-2.6656 2.0968,-2.6656 1.6965,-4.4423 1.6965,-4.4422 h 0.8642 0.8641 v 7.5 7.5 h 7 7 v 1.5 1.5 h -7 -7 v 14.80002 14.8 l 1.2,1.2 1.2,1.2 h 2.7233 2.7232 l 3.0768,-2.5889 3.0767,-2.5889 v 0.9146 0.9146 l -2.25,2.0693 -2.25,2.0693 -3.5,2.1013 -3.5,2.1012 h -3.25 z m 29.0871,-0.4002 -4.8371,0.5224 -3.1194,-1.9651 -3.1193,-1.9651 -1.0921,-3.1329 -1.0922,-3.1329 1.2115,-3.7113 1.2115,-3.7112 4.6787,-2.3217 4.6787,-2.3217 7.5713,-0.5727 7.5713,-0.5726 v -5.85562 -5.8557 l -2,-2 -2,-2 h -3.3776 -3.3775 l -1.0421,1.2556 -1.042,1.2556 -0.7161,2.8532 -0.7161,2.8532 -3.4882,-0.566 -3.4882,-0.5661 -0.4674,-0.4674 -0.4674,-0.4674 0.6806,-2.1443 0.6806,-2.1444 3.1607,-1.9273 3.1607,-1.9272 h 7 7 l 3.2749,1.9967 3.275,1.9967 0.975,2.5647 0.9751,2.5646 v 11.73492 11.7349 l 1.2,1.2 1.2,1.2 h 2.1089 2.1088 l 1.9412,-1.4682 1.9411,-1.4682 0.9371,-0.032 0.9371,-0.032 -2.9371,3.0893 -2.9371,3.0893 -2.7003,1.4107 -2.7004,1.4107 h -1.0148 -1.0149 l -3.4137,-2.9973 -3.4137,-2.9973 -4.534,2.5341 -4.5339,2.5341 -4.8372,0.5225 z m 3.879,-4.6265 2.716,0.03 3.534,-1.6852 3.5339,-1.6852 v -5.8148 -5.8148 h -5.9233 -5.9232 l -3.0768,2.5889 -3.0767,2.5889 0.015,2.6611 0.015,2.6611 0.7347,1.0855 0.7347,1.0854 2,1.1342 2,1.1341 2.7161,0.03 z m 42.3296,5.0304 h -2.3241 l -2.3608,-1.9095 -2.3608,-1.9094 -0.3173,-16.5906 -0.3173,-16.59052 -4.1827,-0.028 -4.1827,-0.028 4.5,-2.2898 4.5,-2.2897 3.5,-6.8448 3.5,-6.8447 0.2921,7.6626 0.292,7.6627 h 6.958 6.9579 v 1.5 1.5 h -7 -7 v 13.77752 13.7775 l 1.5567,2.2225 1.5567,2.2225 h 2.1933 2.1933 l 3.2742,-1.9962 3.2741,-1.9963 h 0.4788 0.4787 l -3.8278,3.4582 -3.8278,3.4582 -2.7402,1.0418 -2.7402,1.0418 h -2.3241 z m 62.8616,0 h -1.4241 l -3.8761,-8.25 -3.8761,-8.25 -4.0073,-8.5 -4.0074,-8.50002 -2.3581,-2.1134 -2.3582,-2.1135 -2,-1.1061 -2,-1.1062 12.5,0.01 12.5,0.01 -3.1546,1.3724 -3.1545,1.3725 -0.6209,1.9563 -0.6209,1.9563 1.0655,2.8821 1.0655,2.8821 4.1258,8.75002 4.1258,8.75 h 0.7473 0.7473 l 3.8648,-7.25 3.8649,-7.25 1.846,-4.18812 1.8459,-4.1881 -0.6219,-2.4779 -0.6219,-2.4779 -2.7521,-1.005 -2.752,-1.0051 10,-0.056 10,-0.056 -3.1761,1.5664 -3.1761,1.5663 -2.681,4.0513 -2.681,4.0513 -7.4772,14.35962 -7.4772,14.3596 h -1.4241 z m 49.2302,-0.4438 -5.1375,0.3884 -2.9063,-0.9276 -2.9063,-0.9276 -3.4629,-3.2947 -3.463,-3.2947 -1.3807,-3.2179 -1.3808,-3.2179 0.022,-5.7821 0.022,-5.7821 1.8692,-4.11612 1.8692,-4.1161 3.7066,-2.8271 3.7066,-2.8272 5.7963,-0.4193 5.7963,-0.4193 3.441,1.1357 3.441,1.1356 2.722,2.8411 2.7219,2.8411 1.3952,4.6358 1.3951,4.63582 h -15.0794 -15.0794 l 0.4876,5.0745 0.4876,5.0745 1.9607,2.6755 1.9608,2.6755 3.4289,1.8054 3.4289,1.8054 4.7254,-0.4063 4.7254,-0.4062 3.9765,-2.6315 3.9765,-2.6315 0.5508,0.8912 0.5508,0.8912 -3.1226,2.6275 -3.1226,2.6274 -2.9926,1.5476 -2.9926,1.5475 -5.1375,0.3885 z m -2.6375,-25.5562 h 10 v -2.03212 -2.0321 l -1.4201,-3.3989 -1.4201,-3.3988 -3.7154,-1.0258 -3.7154,-1.0259 -3.2981,1.378 -3.2981,1.378 -1.5664,3.0292 -1.5664,3.0291 v 2.0496 2.04972 z m 41.5,25.8784 -4,-0.1104 -2,-0.4599 -2,-0.4599 -3.75,-0.9626 -3.75,-0.9627 v -6.1893 -6.1893 l 3.0736,3.7288 3.0736,3.7289 4.2643,2.499 4.2642,2.499 h 3.4397 3.4396 l 2.2225,-1.5567 2.2225,-1.5567 v -2.4043 -2.4044 l -2.1862,-2.0368 -2.1863,-2.0368 -5.36,-2.0054 -5.36,-2.0054 -3.9203,-2 -3.9203,-2 -1.0335,-1.931 -1.0334,-1.93102 v -4.1427 -4.1426 l 2.9231,-2.9231 2.9231,-2.9231 h 5.5277 5.5277 l 5.0492,1.0829 5.0492,1.0828 v 5.452 5.4519 l -3.25,-3.7016 -3.25,-3.7016 -4.0505,-1.7917 -4.0505,-1.7918 -2.4495,0.603 -2.4495,0.603 -1.25,0.978 -1.25,0.978 v 2.305 2.3049 l 2.5625,2.0157 2.5625,2.0156 3.6875,1.19352 3.6875,1.1934 4.6804,2.3451 4.6804,2.345 1.5696,2.241 1.5696,2.2409 v 4.1426 4.1427 l -2.0455,2.6004 -2.0455,2.6004 -3.7045,1.0289 -3.7045,1.0288 z M 15,717.74722 H 0.19098 l 0.46353,-0.75 0.46352,-0.75 h 2.36841 2.3684 L 7.92742,713.61232 10,710.97752 V 683.5669 656.1563 L 7.54545,653.7017 5.09091,651.2472 H 2.54545 0 v -0.75 -0.75 h 15 15 v 0.75 0.75 h -2.44424 -2.44423 l -2.67484,2.3008 -2.67484,2.3008 -0.52274,13.6992 -0.52274,13.6992 h 0.90257 0.90258 l 8.5476,-6.8788 8.54761,-6.8789 4.19163,-4.762 L 46,659.9656 v -3.4103 -3.4102 l -3.5,-1.4624 -3.5,-1.4624 v -0.2366 -0.2365 H 54.5 70 v 0.5426 0.5426 l -4.25,1.1755 -4.25,1.1755 -6.5,4.937 -6.5,4.937 -6,5.4863 -6,5.4864 11,16.3285 11,16.32852 4.39794,4.3346 4.39795,4.3347 2.87286,0.5746 2.87287,0.5745 0.3837,0.6209 0.3837,0.6208 H 57.5 41.19098 l 0.3837,-0.6208 0.3837,-0.6209 3.03187,-0.6063 3.03186,-0.6064 1.16143,-2.5491 1.16143,-2.549 -10.35568,-15.3679 -10.35567,-15.36782 -5.45366,4.1176 -5.45365,4.1175 0.54671,11.86622 0.54671,11.8661 2.26445,2.4104 2.26445,2.4104 h 2.26667 2.26667 l 0.46352,0.75 0.46353,0.75 z m 113.40451,0 H 117 v -0.2366 -0.2366 l 3.5256,-1.473 3.5256,-1.4731 -0.2756,-15.7904 -0.2756,-15.79032 -2.75,-0.3164 -2.75,-0.3164 v -0.8184 -0.8184 l 5.65677,-0.7067 5.65677,-0.7068 1.34323,-0.5154 L 132,678.0332 v 2.607 2.607 l 0.75,-0.031 0.75,-0.031 4,-2.4637 4,-2.4637 4.79966,-0.01 4.79966,-0.01 2.93341,1.5169 2.93342,1.517 1.65034,3.1914 1.65034,3.1914 0.36658,10.51442 0.36659,10.5144 v 2.8283 2.8283 l 3.5,1.4623 3.5,1.4624 2e-4,0.2366 2e-4,0.2366 h -10.99794 -10.99792 l -0.002,-0.75 -0.002,-0.75 h 1.97695 1.97694 l 1.63131,-2.4897 1.63131,-2.4897 -0.39354,-11.2603 -0.39354,-11.26032 -1.45671,-2.2523 -1.4567,-2.2523 -3.15732,-1.042 -3.15733,-1.042 -2.85068,0.6901 -2.85069,0.6902 -2.75,1.9222 -2.75,1.9223 v 12.43192 12.4319 l 2,2 2,2 h 1.44098 1.44099 l 0.46352,0.75 0.46353,0.75 h -11.40451 z m 204.07045,0 h -15.5242 l 2.2746,-0.8594 2.2746,-0.8595 2.2701,-0.8782 2.2701,-0.8783 0.9799,-2.5774 0.9799,-2.5774 V 683.6324 658.1478 l -1.463,-2.8291 -1.463,-2.8292 -1.6188,-0.6212 -1.6188,-0.6211 h -2.4182 -2.4182 v -0.75 -0.75 l 15.2515,0.3567 15.2515,0.3567 -1,0.3058 -1,0.3058 -2.8159,0.6231 -2.8159,0.623 -1.4341,3.4323 -1.4341,3.4323 v 10.0321 10.0322 h 19.5 19.5 v -10.5497 -10.5497 l -1.463,-2.8291 -1.463,-2.8292 -1.6188,-0.6212 -1.6188,-0.6211 h -2.4182 -2.4182 v -0.75 -0.75 h 15 15 v 0.75 0.75 h -2.0657 -2.0658 l -1.8291,0.9789 -1.829,0.9788 -1.1052,3.1704 -1.1052,3.1703 v 24.3829 24.38292 l 1.4244,3.409 1.4243,3.409 4.0757,1.0974 4.0756,1.0975 v 0.2114 0.2115 h -15.5233 -15.5233 l 2.2733,-0.8594 2.2733,-0.8595 2.2701,-0.8782 2.2701,-0.8783 0.9799,-2.5774 0.9799,-2.5774 v -13.4349 -13.43492 h -19.5 -19.5 v 13.03212 13.0321 l 1.4244,3.409 1.4243,3.409 4.0757,1.0974 4.0756,1.0975 -4e-4,0.2114 -5e-4,0.2115 h -15.5241 z m 336.08528,0 h -13.3681 l 0.4629,-0.75 0.4629,-0.75 h 1.3843 1.3843 l 1.5567,-2.2225 1.5567,-2.2225 v -14.2775 -14.27752 h -2.5 -2.5 v -1.5 -1.5 h 2.3837 2.3837 l 0.4325,-9.75 0.4326,-9.75 2.3168,-5.2731 2.3168,-5.2731 2.9124,-2.4506 2.9124,-2.4506 3.7361,-1.0061 3.7361,-1.006 3.7249,1.0286 3.725,1.0285 2.0397,2.1893 2.0396,2.1893 -0.2961,3.5119 -0.2962,3.5119 -2.6112,0.303 -2.6112,0.303 -0.5758,-4.2928 -0.5758,-4.2928 -2.1738,-1.7602 -2.1738,-1.7602 h -1.6667 -1.6667 l -2.3281,1.6307 -2.3282,1.6307 -1.3943,3.3371 -1.3944,3.3372 v 12.5321 12.5322 h 6.5 6.5 v 1.5 1.5 h -6.5 -6.5 v 14.46102 14.4611 l 2.1886,2.0389 2.1885,2.039 2.0615,0.07 2.0614,0.07 1.7142,0.6797 1.7142,0.6797 h -13.3681 z m 57.9436,0 h -15.5453 l 2.2707,-0.8594 2.2707,-0.8595 2.1995,-0.8461 2.1995,-0.8461 1.1131,-4.134 1.1132,-4.134 -0.3126,-24.83182 -0.3127,-24.8319 -2.4243,-2.5786 -2.4243,-2.5786 h -2.8257 -2.8257 v -0.75 -0.75 h 20.2591 20.2592 l 4.8806,2.5044 4.8806,2.5045 3.1067,3.8384 3.1066,3.8383 v 6.3339 6.3338 l -2.0447,2.8234 -2.0447,2.8233 -5.6391,2.8426 -5.6391,2.8426 2.8758,4.6574 2.8758,4.65742 5.3808,6.5 5.3807,6.5 4.1252,2.85 4.1253,2.8499 3.802,1.3562 3.802,1.3561 -10.0255,0.044 -10.0256,0.044 -7.2049,-9.0356 -7.205,-9.0355 -3.2695,-5.9612 -3.2695,-5.96112 -1.5,-0.4192 -1.5,-0.4193 -4.75,-0.6453 -4.75,-0.6453 v 11.99612 11.9962 l 0.9799,2.5774 0.9799,2.5774 2.2701,0.8783 2.2701,0.8782 2.2746,0.8595 2.2746,0.8594 h -15.5453 z m 14.4961,-34.56492 5.5,0.062 3.4289,-1.7485 3.4289,-1.7484 2.0365,-2.777 2.0365,-2.777 0.035,-5.8965 0.035,-5.8966 -2.0919,-2.8265 -2.092,-2.8264 -3.3059,-2.25 -3.306,-2.25 h -6.2703 -6.2703 l -1.5818,0.607 -1.5818,0.6069 v 13.9253 13.9252 l 2.25,0.9044 2.25,0.9044 5.5,0.062 z m 147.4056,34.56492 h -11.4042 l -7e-4,-0.2366 -7e-4,-0.2366 3.5,-1.4624 3.5,-1.4623 v -15.5825 -15.58242 l -1.75,-0.5645 -1.75,-0.5646 -1.5,-0.5518 -1.5,-0.5517 4.5,-0.8103 4.5,-0.8102 2.6894,-0.5049 2.6894,-0.505 0.3106,3.1186 0.3106,3.1186 3,-2.515 3,-2.515 3.2003,-1.6407 3.2004,-1.6407 h 2.0951 2.0951 l 2.4546,2.4545 2.4545,2.4546 v 1.8602 1.8603 l -3.5339,1.6852 -3.534,1.6852 h -0.3724 -0.3725 l 0.4543,-1.75 0.4543,-1.75 -1.3923,-1.8975 -1.3923,-1.8974 -2.6373,0.6619 -2.6372,0.6619 -3.5184,3.0891 -3.5183,3.0892 v 11.89642 11.8964 l 2,2 2,2 h 1.441 1.441 l 0.4638,0.75 0.4639,0.75 z m 162.99996,0 h -11.4042 l -7e-4,-0.2366 -7e-4,-0.2366 3.5256,-1.473 3.5256,-1.4731 -0.2756,-15.7904 -0.2756,-15.79032 -2.5,-0.3347 -2.5,-0.3347 -0.8136,-0.7789 -0.8137,-0.779 6.1312,-0.6936 6.1311,-0.6937 1.4325,-0.5497 1.4325,-0.5497 v 2.607 2.607 h 0.3979 0.398 l 4.352,-2.488 4.3521,-2.4879 4.7997,-0.012 4.7996,-0.012 2.9334,1.5169 2.9334,1.517 1.517,2.9334 1.5169,2.9334 v 11.48452 11.4846 l 0.9286,2.4424 0.9286,2.4424 3.0714,1.0707 3.0714,1.0707 2e-4,0.302 2e-4,0.302 h -10.9979 -10.998 v -0.6804 -0.6805 l 2.225,-0.3195 2.2249,-0.3196 1.3248,-2.5 1.3248,-2.5 -0.3673,-11 -0.3674,-11.00002 -1.4047,-2.2208 -1.4047,-2.2207 -2.6514,-1.0983 -2.6514,-1.0982 -3.635,0.6819 -3.635,0.6819 -2.4913,1.9597 -2.4913,1.9597 v 12.77242 12.7724 l 1.8287,1.655 1.8288,1.655 h 1.6122 1.6123 l 0.4638,0.75 0.4639,0.75 H 1051.41 Z m 158.6327,0 h -12.0083 l 3.035,-1.0219 3.035,-1.0219 0.9347,-1.4781 0.9347,-1.4781 0.015,-12.6849 0.015,-12.68492 -0.9286,-2.4424 -0.9286,-2.4424 -3.2335,-1.1272 -3.2336,-1.1272 0.4121,-0.356 0.4122,-0.3559 7.7275,-0.6249 7.7275,-0.6249 0.2725,18.12752 0.2725,18.1274 1.5,0.7559 1.5,0.7558 2.2733,0.8521 2.2733,0.852 h -12.0083 z m -1.5108,-58.51532 -1.0275,-0.015 -1.1003,-0.7347 -1.1003,-0.7347 -1.085,-2.0633 -1.085,-2.0634 1.2085,-2.4366 1.2084,-2.4367 2.7873,-0.3223 2.7873,-0.3222 1.4396,1.1947 1.4395,1.1947 v 2.8208 2.8209 l -2.2225,1.5567 -2.2225,1.5567 -1.0275,-0.015 z" />
</svg>
