<?xml version="1.0" encoding="UTF-8" standalone="no"?>
<svg
   version="1.1"
   viewBox="0 0 551.99854 268.24231"
   xmlns="http://www.w3.org/2000/svg"
   xmlns:svg="http://www.w3.org/2000/svg">
  <path d="M 68.7784,268.1164 54.5,267.9856 l -8,-0.9014 -8,-0.9014 -8.38484,-1.9811 -8.38485,-1.9811 -6.11515,-2.9221 L 9.5,256.3764 6.10223,253.0618 2.70445,249.7472 1.35223,246.5293 0,243.3114 v -4.2615 -4.2614 l 3.12779,-4.5207 3.12779,-4.5206 7.89829,-6.2488 7.8983,-6.2488 6.01365,-3.0357 6.01366,-3.0356 0.96026,0.5934 L 36,208.3652 v -1.118 -1.1181 l 0.91938,0.5682 0.91938,0.5682 1.35443,-1.2591 1.35443,-1.2592 1.47619,-0.325 1.47619,-0.325 0.31461,-0.8689 0.31461,-0.8688 1.18539,0.4381 1.18539,0.438 13.5,-5.5979 13.5,-5.5978 6.665,-2.3919 6.6651,-2.3919 11.3992,-2.9391 11.39916,-2.9392 13.9357,-2.1655 13.9358,-2.1656 1.8581,-0.6876 1.8581,-0.6876 -14.3581,-6.7597 -14.3581,-6.7596 -11.99996,-6.5935 -12,-6.5935 -9,-5.0175 -9,-5.0175 -6.5,-4.5347 -6.5,-4.5347 -6.75271,-6.4735 -6.75272,-6.4735 -2.9685,-4.626 -2.9685,-4.626 -1.56568,-4.4376 -1.56567,-4.4376 -0.0383,-7.3399 -0.0383,-7.3398 1.82521,-5.0949 1.82521,-5.0948 4.31075,-4.7995 4.31076,-4.7995 5.68924,-3.4309 5.68925,-3.4309 11.25936,-5.1215 11.2594,-5.1216 15.7406,-5.8555 15.74056,-5.8554 15,-4.588 15,-4.5879 12.5,-3.4758 12.5,-3.4758 12,-2.9396 12,-2.9395 15,-3.1212 15,-3.1212 18.5,-2.4765 18.5,-2.4765 12.5,-1.1502 12.5,-1.1502 11,0.5646 11,0.5646 5.5,1.6473 5.5,1.6472 4.7989,3.0473 4.7988,3.0474 1.9512,3.8245 1.9511,3.8246 v 3.3435 3.3435 l -2.4806,4.9779 -2.4806,4.9779 -8.7694,8.7064 -8.7694,8.7064 -11.5,8.4947 -11.5,8.4948 -12.9961,7.7673 -12.9961,7.7673 -17.843,8.7859 -17.843,8.786 -2.7155,2.0076 -2.7155,2.0077 -1.6573,-0.636 -1.6574,-0.636 -0.5607,-1.7667 -0.5607,-1.7668 0.5749,-1.4982 0.5749,-1.4983 4.1978,-1.2568 4.1977,-1.2569 7,-3.5244 7,-3.5244 7.8382,-3.306 7.8383,-3.3059 10.1617,-5.7357 10.1618,-5.7357 12.5,-8.448 12.5,-8.4481 5,-4.0486 5,-4.0485 5.2973,-5.0731 5.2973,-5.0731 2.8757,-4.5 2.8758,-4.5 0.6423,-3.5052 0.6423,-3.5051 -2.3509,-3.4949 -2.3509,-3.4948 -5.5114,-2.1955 -5.5114,-2.1955 -6.4531,-1.0469 -6.453,-1.047 -10,-0.01 -10,-0.01 -21.8277,2.4691 -21.8277,2.4691 -11.6723,2.1029 -11.6723,2.1029 -9,1.9799 -9,1.9798 -19.9901,5.0007 -19.99,5.0007 -13.01,3.9012 -13.0099,3.9013 -11,3.6252 -10.99996,3.6252 -9.5,3.4495 -9.5,3.4494 -2.7521,1.5293 -2.752,1.5293 -0.9289,-0.5741 -0.9288,-0.5741 -0.6435,1.0412 -0.6435,1.0413 -6.7475,3.3979 -6.74747,3.398 -5.50004,3.3271 -5.50005,3.3272 -3.27004,3.7367 -3.27003,3.7368 -2.38692,6.7632 -2.38693,6.7633 -0.0211,3.0685 -0.0211,3.0685 1.48919,4.9315 1.4892,4.9315 4.9274,6.5 4.9274,6.5 4.78503,3.9683 4.78502,3.9683 14.04834,8.7987 14.0484,8.7987 31.21766,15.483 31.2177,15.483 h 1.5323 1.5323 v 0.919 0.919 l 8.75,4.7415 8.75,4.7416 6.2445,4.4233 6.2445,4.4233 4.4275,4.3029 4.4274,4.303 2.2656,4.3632 2.2657,4.3632 -0.078,7.1869 -0.078,7.187 -2.3603,4.313 -2.3604,4.3131 -6.9993,4.6112 -6.9994,4.6112 -9,4.0771 -9,4.0771 -11.8509,3.5746 -11.8509,3.5747 -13.3058,2.4575 -13.3058,2.4575 -14.56486,1.5295 -14.5648,1.5296 -14.2785,-0.1308 z m 11.8254,-5.2707 1.2083,-0.4637 12.3439,-1.102 12.34396,-1.102 7,-1.4613 7,-1.4614 9.4916,-1.5457 9.4916,-1.5457 0.9584,-0.9584 0.9584,-0.9583 h 1.8976 1.8976 l 11.6524,-4.1185 11.6524,-4.1184 6.9067,-3.473 6.9067,-3.4731 5.1954,-5.1954 5.1954,-5.1954 1.2678,-3.8414 1.2677,-3.8413 -1.2214,-4.0768 -1.2214,-4.0768 -6.6485,-6.6112 -6.6484,-6.6112 -7.5,-4.828 -7.5,-4.8281 -9.2982,-4.9706 -9.2981,-4.9706 -10.7019,1.6941 -10.7018,1.694 -14.0412,3.3983 -14.04126,3.3983 -16.4587,5.5695 -16.4588,5.5695 -20.1253,9.9422 -20.12529,9.9422 -5.87471,4.3319 -5.8747,4.332 -2.87788,4.1671 -2.87787,4.1672 -0.1036,3.9509 -0.1036,3.9509 2.48148,2.6611 2.48147,2.661 5.5,2.7709 5.5,2.7709 5.5,1.5562 5.5,1.5561 6.5,1.2161 6.5,1.2162 1,0.6543 1,0.6543 15.5,0.2937 15.5,0.2937 0.4478,0.4397 0.4477,0.4397 z M 57,62.2472 59,61.1768 v -0.5 -0.5 l -2,1.0704 -2,1.0703 v 0.5 0.5 z m 7.5,-4.0636 h 1 l 1.9411,-1.4682 1.9412,-1.4682 h -1 -1 L 65.4411,56.7154 63.5,58.1836 Z m 8,-3.9364 H 73 v -0.5 -0.5 H 72.5 72 v 0.5 0.5 z m 2,-1 H 75 v -0.5 -0.5 H 74.5 74 v 0.5 0.5 z m 2,-1 H 77 v -0.5 -0.5 H 76.5 76 v 0.5 0.5 z m 2,-1 H 79 v -0.5 -0.5 H 78.5 78 v 0.5 0.5 z m 2.5,-1 h 1.3333 L 81.6667,49.5805 81,48.9138 l -0.6667,0.6667 -0.6666,0.6667 z m 2.5,-1 H 84 v -0.5 -0.5 H 83.5 83 v 0.5 0.5 z m 2.5,-1 h 1.3333 L 86.6667,47.5805 86,46.9138 l -0.6667,0.6667 -0.6666,0.6667 z m 2.5,-1 H 89 v -0.5 -0.5 H 88.5 88 v 0.5 0.5 z m 3,-1 H 92 v -0.5 -0.5 H 91.5 91 v 0.5 0.5 z m 11,-4 h 0.5 v -0.5 -0.5 h -0.5 -0.5 v 0.5 0.5 z m 2.5,-1 h 1.33326 L 105.6667,40.5805 105,39.9138 l -0.6667,0.6667 -0.6666,0.6667 z m 2.99996,-1 h 1.3333 l -0.6666,-0.6667 -0.6667,-0.6667 -0.6667,0.6667 -0.6666,0.6667 z m 6,-2 h 1.3333 l -0.6666,-0.6667 -0.6667,-0.6667 -0.6667,0.6667 -0.6666,0.6667 z m 2.5,-1 h 0.5 v -0.5 -0.5 h -0.5 -0.5 v 0.5 0.5 z m 9,-3 h 0.5 v -0.5 -0.5 h -0.5 -0.5 v 0.5 0.5 z m 9,-3 h 0.5 v -0.5 -0.5 h -0.5 -0.5 v 0.5 0.5 z m 3.5,-1 h 1.3333 l -0.6666,-0.6667 -0.6667,-0.6667 -0.6667,0.6667 -0.6666,0.6667 z m 3.4167,-1.079 1.9166,0.079 -0.6041,-0.6042 -0.6042,-0.6041 -1.3125,0.5252 -1.3125,0.5252 1.9167,0.079 z m 3.5833,-0.921 h 1.3333 l -0.6666,-0.6667 -0.6667,-0.6667 -0.6667,0.6667 -0.6666,0.6667 z m 3.5,-1 h 0.5 v -0.5 -0.5 h -0.5 -0.5 v 0.5 0.5 z m 3.5,-1 h 1.3333 l -0.6666,-0.6667 -0.6667,-0.6667 -0.6667,0.6667 -0.6666,0.6667 z m 3.5,-1 h 0.5 v -0.5 -0.5 h -0.5 -0.5 v 0.5 0.5 z m 12,-3 h 0.5 v -0.5 -0.5 h -0.5 -0.5 v 0.5 0.5 z M 47.5,261.2472 H 47 v -0.5 -0.5 h 0.5 0.5 v 0.5 0.5 z m 378.82136,3.9655 -4.1785,0.034 -1.5715,-1.5714 -1.5714,-1.5714 v -2.9782 -2.9783 l 1.652,-3.2003 1.652,-3.2004 6.598,-6.8682 6.59798,-6.8682 8,-6.2613 8,-6.2612 12.0538,-7.8705 12.0537,-7.8706 14.1963,-7.3687 14.1962,-7.3687 0.1107,-2.1313 0.1107,-2.1313 -0.2119,-2.4762 -0.2119,-2.4762 -1.9806,-4.2134 -1.9805,-4.2134 -4.722,-4.3104 -4.722,-4.3104 -6.7239,-5.25 -6.7238,-5.25 h -0.8348 -0.8347 l -7.8877,7.2586 -7.8876,7.2586 -8,5.5788 -8,5.5788 -10.9413,6.8166 -10.94118,6.8167 -9.3895,4.4478 -9.3895,4.4479 -4.8121,0.1481 -4.8122,0.1481 -2.1071,-1.9049 -2.1071,-1.905 v -3.7623 -3.7622 l 5.5,-6.71 5.5,-6.7099 v -0.8728 -0.8729 h -1.664 -1.664 l -14.086,8.3799 -14.086,8.3799 -2.1843,1.1201 -2.1842,1.1201 h -2.6773 -2.6774 l -9.1384,6.3264 -9.1384,6.3263 -13.5,8.4091 -13.5,8.4091 -8.3337,4.2034 -8.3337,4.2035 -6.8653,1.5615 -6.8654,1.5615 -4.9154,-1.0542 -4.9154,-1.0541 -2.8855,-3.0146 -2.8856,-3.0145 0.046,-6.6817 0.046,-6.6817 2.1528,-4.1099 2.1529,-4.11 7.4068,-9.89 7.4068,-9.8901 2.7447,-2.5 2.7447,-2.5 4.1017,-4.8802 4.1018,-4.8802 -3.2766,1.6944 -3.2766,1.6944 -15.1756,9.2632 -15.1755,9.2632 -12.5,6.6049 -12.5,6.6049 -7.6763,2.5677 -7.6763,2.5677 h -3.6506 -3.6506 l -2.9231,-2.923 -2.9231,-2.9231 v -2.7612 -2.7612 l 2.1932,-4.5305 2.1931,-4.5304 10.5569,-10.7277 10.5568,-10.7276 4.5,-2.0357 4.5,-2.0356 2.1392,-0.022 2.1392,-0.022 2.2699,1.838 2.2699,1.8381 -0.6709,1.0855 -0.6708,1.0854 -4.9421,1.6415 -4.9421,1.6415 -8.2961,7.2629 -8.2962,7.2629 -3.5945,4.4221 -3.5946,4.4221 -1.2324,2.3281 -1.2325,2.3281 0.5456,1.4219 0.5456,1.4219 h 3.3563 3.3562 l 7.384,-2.5115 7.384,-2.5114 11.0411,-5.3115 11.0412,-5.3114 11,-6.3313 11,-6.3312 13,-8.0312 13,-8.0312 5.6945,-4.5647 5.6944,-4.5646 14.8056,-12.8026 14.8055,-12.8025 5.0269,-4.3133 5.0269,-4.3134 4.4731,-2.2547 4.4731,-2.2547 4,-3.2318 4,-3.2318 3.1053,-1.5985 3.1052,-1.5984 6.2131,-4.1268 6.213,-4.1268 5.1817,-2.4126 5.1817,-2.4126 3.691,-0.01 3.691,-0.01 0.6235,1.009 0.6236,1.0089 -0.5937,1.8707 -0.5938,1.8707 -6.4923,4.1986 -6.4923,4.1987 -11.1211,7.9609 -11.1211,7.9609 -7.1074,4.1274 -7.1074,4.1274 -5,4.2134 -5,4.2133 -6.5,3.9629 -6.5,3.9629 -9.5,6.3788 -9.5,6.3787 -12.6493,12.7589 -12.6493,12.7588 -9.2078,11.7642 -9.2079,11.7642 -2.4128,4.7616 -2.4129,4.7615 -0.5937,4.3318 -0.5937,4.3317 2.8637,2.2716 2.8637,2.2715 6.2917,-0.5758 6.2917,-0.5757 9.2083,-3.6637 9.2083,-3.6638 12.6821,-6.2776 12.6822,-6.2777 6.8178,-4.4404 6.8179,-4.4405 1.9976,-2.2543 1.9977,-2.2543 2.7523,-1.4233 2.7524,-1.4233 v -2.6279 -2.6279 l 3.9649,-3.6604 3.965,-3.6604 7.8114,-5.6243 7.8114,-5.6243 5.9148,-3.5617 5.9148,-3.5617 h 2.2618 2.2618 l 2.547,1.1605 2.5471,1.1605 v 0.8395 0.8395 h 1.5087 1.5086 l 4.2047,-3.0458 4.2046,-3.0459 2.5367,0.2959 2.5367,0.2958 0.3107,2.1823 0.3107,2.1823 -1.4776,2.8177 -1.4776,2.8177 -4.6216,4.5 -4.6216,4.5 -5.9615,7.3093 -5.9615,7.3094 v 1.5519 1.552 l 3.75,-0.6506 3.75,-0.6506 10.2048,-4.8984 10.2048,-4.8983 10.79518,-6.7476 10.7952,-6.7475 5.5,-3.9709 5.5,-3.9708 6.6623,-5.3857 6.6624,-5.3857 1.568,-2.393 1.5679,-2.393 -1.9583,-4.3153 -1.9584,-4.3152 -0.022,-3.7342 -0.022,-3.7342 2.918,-3.2658 2.9179,-3.2658 h 4.6687 4.6686 l 2.4134,2.8058 2.4134,2.8057 -0.01,2.1943 -0.01,2.1942 -2.9881,5 -2.9882,5 -1.5104,2.0783 -1.5104,2.0783 5.7389,3.9217 5.7389,3.9217 6.519,5.5819 6.5191,5.582 2.6428,4.918 2.6428,4.9181 0.7015,3.3176 0.7015,3.3175 1.3335,0.5118 1.3336,0.5117 8.8221,-3.5013 8.8222,-3.5013 7,-2 7,-2 3.75,-0.5152 3.75,-0.5151 -0.038,0.6872 -0.038,0.6871 -11.7122,3.8968 -11.7121,3.8969 -8.3328,3.4878 -8.3328,3.4879 -1.0664,2.6153 -1.0663,2.6153 -2.9093,6.5 -2.9093,6.5 -10.701,10.5 -10.701,10.5 -11.4906,8.6239 -11.4905,8.6239 -7.47,4.8169 -7.47,4.8169 -7.03,2.7748 -7.02998,2.7748 -4.1786,0.034 z m 0.9286,-5.9663 2.25,-8e-4 6.49998,-3.087 6.5,-3.0871 4.7446,-1.814 4.7447,-1.8141 9.7553,-6.9853 9.7554,-6.9853 12.678,-13.0619 12.678,-13.0619 2.6935,-4.5961 2.6935,-4.5961 -0.5621,-0.5621 -0.5622,-0.5622 -10.8093,5.746 -10.8094,5.746 -7.5,5.0198 -7.5,5.0198 -6.5,5.058 -6.5,5.058 -8.7511,7.3524 -8.7512,7.3524 -4.49878,5.5228 -4.4989,5.5228 v 1.4083 1.4084 z m -38.4456,-81.9572 3.6956,-1.943 2.7581,-1.8748 2.758,-1.8748 -0.6351,-0.6351 -0.635,-0.635 -3.431,1.4335 -3.431,1.4336 -2.9538,2.1032 -2.9537,2.1033 0.5662,0.9161 0.5661,0.9161 z m 86.46468,-30.0489 1.2309,-0.01 2.1919,-3.2431 2.1919,-3.2432 1.0199,-2.7146 1.0199,-2.7146 -1.0186,-0.6295 -1.0187,-0.6296 -2.4718,0.6204 -2.4719,0.6204 -1.6062,3.3682 -1.6062,3.3683 0.654,2.6055 0.6539,2.6055 1.231,-0.01 z m -125.76908,-9.412 3,-1.8843 17.5,-12.2346 17.5,-12.2346 2.5,-2.2023 2.5,-2.2023 -4,2.2847 -4,2.2847 -8.5,5.4326 -8.5,5.4325 -9.0793,6.8132 -9.0794,6.8131 -1.4206,1.7908 -1.4207,1.7908 z m 114.99998,93.4189 h -0.5 v -0.5 -0.5 h 0.5 0.5 v 0.5 0.5 z m -124.99998,-31 h -0.5 v -0.5 -0.5 h 0.5 0.5 v 0.5 0.5 z m -92.6588,-47.3142 -2.6588,1.2455 -2.4683,-1.9416 -2.4682,-1.9415 -0.5197,-1.9873 -0.5197,-1.9874 1.1467,-0.9005 1.1468,-0.9005 8.5698,-0.6283 8.5699,-0.6282 1.9154,1.4006 1.9153,1.4005 -5.9852,2.8116 -5.9852,2.8116 z m 66.6588,-2.6858 h -0.5 v -0.5 -0.5 h 0.5 0.5 v 0.5 0.5 z m 3,-3 h -0.5 v -0.5 -0.5 h 0.5 0.5 v 0.5 0.5 z" />
</svg>
